<svg preserveAspectRatio="none" width="100%" height="100%" overflow="visible" style="display: block;" viewBox="0 0 1382.57 498.415" fill="none" xmlns="http://www.w3.org/2000/svg">
<path id="Vector 3587" d="M0 497.675L6.07883 498.415L6.81898 492.336L0.740149 491.596L0 497.675ZM805.371 52.6228L805.143 51.9084L805.371 52.6228ZM1382.57 76.954L1382.12 70.8467L1376.01 71.294L1376.46 77.4014L1382.57 76.954ZM5.04627 494.683C5.37358 494.429 5.43314 493.958 5.1793 493.63C4.92545 493.303 4.45433 493.244 4.12701 493.497L4.58664 494.09L5.04627 494.683ZM8.00282 490.509C7.67419 490.761 7.61219 491.232 7.86433 491.561C8.11648 491.889 8.58729 491.951 8.91592 491.699L8.45937 491.104L8.00282 490.509ZM11.1216 490.011C11.4508 489.759 11.5138 489.289 11.2623 488.959C11.0108 488.63 10.5402 488.567 10.211 488.819L10.6663 489.415L11.1216 490.011ZM14.3187 485.691C13.9888 485.942 13.9243 486.412 14.1747 486.742C14.4251 487.072 14.8956 487.137 15.2255 486.886L14.7721 486.289L14.3187 485.691ZM17.4985 485.164C17.8289 484.914 17.8941 484.444 17.6442 484.113C17.3943 483.783 16.9239 483.718 16.5936 483.968L17.0461 484.566L17.4985 485.164ZM20.8249 480.776C20.4939 481.025 20.4275 481.495 20.6765 481.826C20.9255 482.157 21.3957 482.224 21.7267 481.975L21.2758 481.375L20.8249 480.776ZM23.9669 480.292C24.2982 480.043 24.3653 479.573 24.1167 479.242C23.8682 478.91 23.3981 478.843 23.0667 479.092L23.5168 479.692L23.9669 480.292ZM27.0175 476.135C26.6856 476.383 26.6175 476.853 26.8653 477.185C27.1132 477.516 27.5832 477.585 27.915 477.337L27.4663 476.736L27.0175 476.135ZM30.4442 475.451C30.7764 475.203 30.8451 474.733 30.5977 474.401C30.3503 474.069 29.8804 474 29.5482 474.247L29.9962 474.849L30.4442 475.451ZM33.4912 471.317C33.1585 471.564 33.0889 472.033 33.3356 472.366C33.5824 472.699 34.0521 472.768 34.3848 472.522L33.938 471.919L33.4912 471.317ZM36.7339 470.782C37.0669 470.535 37.1371 470.065 36.8907 469.733C36.6443 469.4 36.1747 469.329 35.8417 469.576L36.2878 470.179L36.7339 470.782ZM39.9394 466.55C39.6059 466.796 39.5348 467.265 39.7806 467.599C40.0263 467.932 40.4959 468.003 40.8293 467.757L40.3843 467.154L39.9394 466.55ZM43.3937 465.87C43.7274 465.624 43.799 465.155 43.5537 464.821C43.3083 464.487 42.8389 464.416 42.5052 464.661L42.9494 465.265L43.3937 465.87ZM46.3615 461.831C46.0273 462.076 45.9549 462.545 46.1997 462.879C46.4445 463.214 46.9138 463.286 47.2479 463.041L46.8047 462.436L46.3615 461.831ZM49.6276 461.3C49.962 461.055 50.035 460.586 49.7905 460.252C49.5461 459.917 49.0768 459.844 48.7424 460.089L49.185 460.694L49.6276 461.3ZM52.8403 457.099C52.5054 457.342 52.4317 457.812 52.6756 458.146C52.9195 458.481 53.3886 458.555 53.7234 458.311L53.2818 457.705L52.8403 457.099ZM56.2579 456.467C56.593 456.224 56.6672 455.755 56.4237 455.419C56.1802 455.084 55.7111 455.01 55.376 455.254L55.817 455.86L56.2579 456.467ZM59.342 452.376C59.0065 452.619 58.9316 453.088 59.1746 453.424C59.4175 453.759 59.8865 453.834 60.2219 453.591L59.782 452.984L59.342 452.376ZM62.5915 451.876C62.9272 451.634 63.0026 451.165 62.76 450.829C62.5173 450.493 62.0484 450.418 61.7128 450.661L62.1521 451.269L62.5915 451.876ZM65.7621 447.738C65.4261 447.981 65.3499 448.449 65.592 448.785C65.8342 449.121 66.3029 449.198 66.639 448.955L66.2006 448.347L65.7621 447.738ZM69.1258 447.166C69.4621 446.924 69.5387 446.455 69.2969 446.119C69.0551 445.782 68.5865 445.706 68.2502 445.948L68.688 446.557L69.1258 447.166ZM72.4396 442.941C72.1029 443.182 72.0255 443.65 72.2668 443.987C72.5081 444.324 72.9766 444.401 73.3133 444.16L72.8764 443.55L72.4396 442.941ZM75.6585 442.481C75.9954 442.24 76.0731 441.771 75.8322 441.434C75.5912 441.098 75.1227 441.02 74.7858 441.261L75.2222 441.871L75.6585 442.481ZM78.7735 438.413C78.4362 438.654 78.3578 439.122 78.5982 439.459C78.8387 439.796 79.3071 439.875 79.6443 439.634L79.2089 439.024L78.7735 438.413ZM82.0818 437.898C82.4193 437.658 82.4982 437.19 82.258 436.852C82.0179 436.515 81.5496 436.436 81.2121 436.676L81.647 437.287L82.0818 437.898ZM85.3525 433.734C85.0146 433.974 84.9351 434.442 85.1747 434.78C85.4144 435.118 85.8825 435.197 86.2204 434.958L85.7864 434.346L85.3525 433.734ZM88.7488 433.166C89.0868 432.926 89.1668 432.458 88.9275 432.12C88.6881 431.782 88.22 431.702 87.882 431.941L88.3154 432.554L88.7488 433.166ZM91.9257 429.083C91.5873 429.322 91.5066 429.79 91.7455 430.128C91.9843 430.466 92.4523 430.547 92.7907 430.308L92.3582 429.696L91.9257 429.083ZM95.1828 428.621C95.5214 428.383 95.6025 427.915 95.364 427.576C95.1254 427.238 94.6575 427.157 94.3189 427.395L94.7509 428.008L95.1828 428.621ZM98.3692 424.546C98.0302 424.784 97.9485 425.252 98.1865 425.591C98.4246 425.929 98.8924 426.011 99.2314 425.773L98.8003 425.159L98.3692 424.546ZM101.697 424.043C102.036 423.805 102.119 423.337 101.881 422.998C101.643 422.659 101.175 422.577 100.836 422.814L101.267 423.429L101.697 424.043ZM105.008 419.893C104.669 420.131 104.586 420.598 104.823 420.938C105.061 421.277 105.528 421.36 105.868 421.123L105.438 420.508L105.008 419.893ZM108.406 419.35C108.746 419.113 108.829 418.646 108.592 418.306C108.355 417.966 107.888 417.883 107.548 418.12L107.977 418.735L108.406 419.35ZM111.577 415.313C111.237 415.55 111.153 416.017 111.389 416.357C111.626 416.697 112.093 416.781 112.433 416.545L112.005 415.929L111.577 415.313ZM114.847 414.867C115.187 414.631 115.272 414.163 115.035 413.823C114.799 413.483 114.332 413.399 113.992 413.635L114.419 414.251L114.847 414.867ZM118.067 410.809C117.726 411.045 117.641 411.512 117.877 411.853C118.113 412.193 118.58 412.278 118.921 412.043L118.494 411.426L118.067 410.809ZM121.395 410.331C121.736 410.096 121.821 409.628 121.586 409.288C121.35 408.947 120.883 408.862 120.542 409.097L120.969 409.714L121.395 410.331ZM124.718 406.216C124.376 406.451 124.29 406.918 124.526 407.259C124.761 407.6 125.228 407.686 125.569 407.451L125.143 406.833L124.718 406.216ZM128.102 405.707C128.444 405.472 128.53 405.005 128.295 404.664C128.061 404.322 127.594 404.236 127.252 404.471L127.677 405.089L128.102 405.707ZM131.357 401.652C131.015 401.886 130.928 402.353 131.163 402.694C131.397 403.036 131.864 403.123 132.205 402.889L131.781 402.27L131.357 401.652ZM134.628 401.229C134.969 400.995 135.057 400.528 134.823 400.187C134.589 399.845 134.122 399.758 133.78 399.991L134.204 400.61L134.628 401.229ZM137.861 397.202C137.519 397.435 137.431 397.902 137.664 398.244C137.898 398.586 138.365 398.674 138.707 398.441L138.284 397.821L137.861 397.202ZM141.179 396.754C141.522 396.521 141.61 396.055 141.377 395.712C141.144 395.37 140.677 395.281 140.335 395.515L140.757 396.135L141.179 396.754ZM144.499 392.681C144.157 392.914 144.068 393.38 144.301 393.723C144.533 394.066 145 394.155 145.342 393.922L144.921 393.302L144.499 392.681ZM147.865 392.21C148.208 391.977 148.297 391.511 148.065 391.168C147.832 390.825 147.366 390.736 147.023 390.968L147.444 391.589L147.865 392.21ZM151.261 388.099C150.918 388.331 150.828 388.797 151.06 389.14C151.292 389.483 151.758 389.573 152.101 389.341L151.681 388.72L151.261 388.099ZM154.525 387.704C154.868 387.472 154.958 387.006 154.727 386.663C154.495 386.319 154.029 386.229 153.686 386.461L154.105 387.082L154.525 387.704ZM157.763 383.712C157.419 383.944 157.328 384.41 157.559 384.753C157.791 385.097 158.257 385.188 158.6 384.957L158.181 384.335L157.763 383.712ZM161.067 383.298C161.411 383.067 161.502 382.601 161.271 382.257C161.04 381.913 160.574 381.822 160.23 382.053L160.649 382.675L161.067 383.298ZM164.379 379.27C164.035 379.5 163.943 379.966 164.173 380.31C164.404 380.654 164.87 380.746 165.214 380.516L164.796 379.893L164.379 379.27ZM167.723 378.836C168.067 378.606 168.16 378.14 167.929 377.796C167.699 377.452 167.233 377.359 166.889 377.59L167.306 378.213L167.723 378.836ZM171.108 374.773C170.763 375.002 170.67 375.468 170.9 375.813C171.129 376.157 171.595 376.25 171.94 376.021L171.524 375.397L171.108 374.773ZM174.491 374.321C174.836 374.092 174.929 373.626 174.7 373.281C174.47 372.937 174.004 372.843 173.66 373.073L174.075 373.697L174.491 374.321ZM177.785 370.331C177.44 370.56 177.346 371.025 177.575 371.371C177.804 371.716 178.269 371.81 178.614 371.581L178.199 370.956L177.785 370.331ZM181.074 369.95C181.419 369.721 181.513 369.256 181.285 368.911C181.056 368.565 180.59 368.471 180.245 368.7L180.659 369.325L181.074 369.95ZM184.376 365.967C184.031 366.195 183.936 366.66 184.164 367.006C184.392 367.351 184.857 367.447 185.203 367.218L184.79 366.592L184.376 365.967ZM187.699 365.571C188.045 365.343 188.14 364.878 187.912 364.532C187.684 364.186 187.219 364.091 186.873 364.319L187.286 364.945L187.699 365.571ZM191.065 361.559C190.719 361.786 190.623 362.251 190.85 362.597C191.078 362.943 191.543 363.04 191.889 362.812L191.477 362.185L191.065 361.559ZM194.421 361.149C194.767 360.921 194.864 360.457 194.637 360.11C194.409 359.764 193.944 359.667 193.598 359.895L194.01 360.522L194.421 361.149ZM197.85 357.109C197.503 357.335 197.406 357.8 197.633 358.147C197.859 358.493 198.324 358.591 198.671 358.364L198.26 357.736L197.85 357.109ZM201.21 356.704C201.557 356.477 201.655 356.012 201.428 355.666C201.202 355.319 200.737 355.221 200.39 355.448L200.8 356.076L201.21 356.704ZM204.506 352.763C204.159 352.99 204.06 353.454 204.286 353.801C204.513 354.148 204.977 354.246 205.324 354.02L204.915 353.392L204.506 352.763ZM207.809 352.404C208.156 352.178 208.254 351.714 208.029 351.366C207.803 351.019 207.338 350.921 206.991 351.146L207.4 351.775L207.809 352.404ZM211.159 348.44C210.812 348.666 210.713 349.13 210.938 349.478C211.163 349.825 211.628 349.924 211.975 349.699L211.567 349.07L211.159 348.44ZM214.491 348.07C214.839 347.845 214.938 347.38 214.713 347.032C214.488 346.685 214.024 346.585 213.676 346.81L214.084 347.44L214.491 348.07ZM217.897 344.083C217.549 344.308 217.449 344.772 217.673 345.12C217.898 345.468 218.362 345.568 218.71 345.344L218.303 344.714L217.897 344.083ZM221.257 343.702C221.605 343.478 221.705 343.014 221.481 342.666C221.257 342.317 220.793 342.217 220.445 342.441L220.851 343.072L221.257 343.702ZM224.717 339.694C224.368 339.918 224.267 340.382 224.491 340.731C224.714 341.079 225.178 341.18 225.527 340.957L225.122 340.325L224.717 339.694ZM228.059 339.332C228.408 339.109 228.509 338.645 228.286 338.296C228.062 337.948 227.598 337.846 227.25 338.07L227.654 338.701L228.059 339.332ZM231.399 335.414C231.05 335.637 230.948 336.101 231.171 336.45C231.394 336.799 231.858 336.901 232.207 336.678L231.803 336.046L231.399 335.414ZM234.709 335.081C235.058 334.858 235.161 334.394 234.938 334.045C234.716 333.696 234.252 333.593 233.903 333.816L234.306 334.448L234.709 335.081ZM238.098 331.144C237.749 331.366 237.645 331.83 237.868 332.179C238.09 332.529 238.554 332.632 238.903 332.41L238.501 331.777L238.098 331.144ZM241.433 330.802C241.783 330.58 241.886 330.117 241.664 329.767C241.442 329.417 240.979 329.314 240.629 329.536L241.031 330.169L241.433 330.802ZM244.87 326.848C244.52 327.07 244.416 327.533 244.637 327.883C244.859 328.233 245.322 328.337 245.672 328.116L245.271 327.482L244.87 326.848ZM248.229 326.499C248.579 326.278 248.684 325.815 248.463 325.464C248.241 325.114 247.778 325.01 247.428 325.231L247.828 325.865L248.229 326.499ZM251.713 322.528C251.363 322.749 251.258 323.212 251.478 323.562C251.699 323.913 252.162 324.018 252.513 323.797L252.113 323.163L251.713 322.528ZM255.077 322.184C255.428 321.963 255.534 321.5 255.313 321.15C255.093 320.799 254.63 320.694 254.279 320.914L254.678 321.549L255.077 322.184ZM258.456 318.293C258.105 318.513 257.998 318.976 258.218 319.327C258.438 319.678 258.901 319.784 259.252 319.564L258.854 318.928L258.456 318.293ZM261.769 317.988C262.12 317.768 262.227 317.306 262.007 316.955C261.788 316.603 261.325 316.497 260.974 316.716L261.371 317.352L261.769 317.988ZM265.19 314.083C264.839 314.302 264.732 314.765 264.951 315.116C265.17 315.468 265.633 315.575 265.984 315.356L265.587 314.719L265.19 314.083ZM268.525 313.773C268.877 313.554 268.984 313.091 268.765 312.74C268.547 312.388 268.084 312.28 267.732 312.499L268.129 313.136L268.525 313.773ZM271.989 309.854C271.637 310.073 271.529 310.535 271.747 310.887C271.965 311.239 272.428 311.347 272.78 311.129L272.384 310.491L271.989 309.854ZM275.344 309.539C275.696 309.321 275.805 308.859 275.587 308.507C275.369 308.154 274.907 308.046 274.555 308.264L274.949 308.901L275.344 309.539ZM278.85 305.608C278.498 305.825 278.388 306.287 278.606 306.64C278.824 306.992 279.286 307.102 279.638 306.884L279.244 306.246L278.85 305.608ZM282.226 305.288C282.579 305.071 282.688 304.609 282.471 304.256C282.254 303.903 281.792 303.794 281.439 304.011L281.833 304.65L282.226 305.288ZM285.673 301.406C285.32 301.623 285.21 302.085 285.426 302.438C285.643 302.791 286.105 302.901 286.458 302.685L286.065 302.046L285.673 301.406ZM288.987 301.133C289.34 300.916 289.451 300.454 289.235 300.101C289.018 299.748 288.556 299.637 288.203 299.854L288.595 300.493L288.987 301.133ZM292.438 297.262C292.085 297.478 291.973 297.939 292.189 298.293C292.405 298.646 292.867 298.757 293.221 298.541L292.829 297.902L292.438 297.262ZM295.771 296.984C296.125 296.769 296.236 296.307 296.021 295.953C295.805 295.6 295.344 295.488 294.99 295.704L295.38 296.344L295.771 296.984ZM299.26 293.103C298.906 293.319 298.794 293.78 299.009 294.134C299.224 294.488 299.685 294.6 300.039 294.385L299.65 293.744L299.26 293.103ZM302.611 292.823C302.965 292.608 303.078 292.147 302.863 291.793C302.648 291.439 302.187 291.326 301.832 291.541L302.222 292.182L302.611 292.823ZM306.137 288.933C305.783 289.147 305.669 289.608 305.883 289.963C306.098 290.317 306.559 290.431 306.913 290.217L306.525 289.575L306.137 288.933ZM309.505 288.65C309.86 288.436 309.974 287.975 309.76 287.621C309.546 287.266 309.085 287.152 308.73 287.366L309.118 288.008L309.505 288.65ZM313.051 284.762C312.696 284.976 312.582 285.436 312.795 285.791C313.009 286.146 313.47 286.261 313.824 286.047L313.438 285.405L313.051 284.762ZM316.365 284.52C316.72 284.307 316.835 283.846 316.622 283.491C316.409 283.136 315.948 283.021 315.593 283.234L315.979 283.877L316.365 284.52ZM319.845 280.685C319.49 280.898 319.374 281.358 319.587 281.714C319.8 282.069 320.26 282.185 320.616 281.972L320.231 281.328L319.845 280.685ZM323.175 280.442C323.531 280.229 323.647 279.769 323.435 279.413C323.222 279.057 322.762 278.941 322.406 279.154L322.791 279.798L323.175 280.442ZM326.69 276.599C326.334 276.811 326.217 277.272 326.429 277.627C326.641 277.983 327.101 278.1 327.457 277.888L327.073 277.244L326.69 276.599ZM330.035 276.355C330.391 276.143 330.508 275.683 330.297 275.327C330.085 274.971 329.625 274.854 329.269 275.065L329.652 275.71L330.035 276.355ZM333.583 272.506C333.226 272.717 333.108 273.177 333.32 273.534C333.531 273.89 333.991 274.008 334.347 273.797L333.965 273.152L333.583 272.506ZM336.943 272.261C337.3 272.05 337.418 271.591 337.207 271.234C336.997 270.877 336.537 270.759 336.18 270.97L336.562 271.616L336.943 272.261ZM340.524 268.407C340.167 268.617 340.048 269.077 340.259 269.434C340.469 269.791 340.929 269.91 341.286 269.699L340.905 269.053L340.524 268.407ZM343.9 268.161C344.257 267.952 344.376 267.492 344.166 267.135C343.956 266.778 343.497 266.658 343.14 266.868L343.52 267.515L343.9 268.161ZM347.414 264.36C347.057 264.57 346.937 265.029 347.146 265.386C347.356 265.744 347.815 265.864 348.172 265.655L347.793 265.007L347.414 264.36ZM350.742 264.151C351.099 263.942 351.22 263.483 351.011 263.125C350.802 262.768 350.342 262.647 349.985 262.856L350.363 263.504L350.742 264.151ZM354.282 260.349C353.924 260.557 353.803 261.016 354.012 261.374C354.22 261.732 354.679 261.853 355.037 261.645L354.66 260.997L354.282 260.349ZM357.623 260.14C357.981 259.932 358.102 259.473 357.894 259.115C357.686 258.757 357.227 258.635 356.869 258.843L357.246 259.492L357.623 260.14ZM361.194 256.334C360.835 256.541 360.713 257 360.921 257.358C361.128 257.717 361.587 257.839 361.946 257.632L361.57 256.983L361.194 256.334ZM364.547 256.126C364.906 255.919 365.029 255.46 364.821 255.101C364.614 254.743 364.155 254.62 363.797 254.827L364.172 255.477L364.547 256.126ZM368.148 252.316C367.789 252.523 367.666 252.982 367.873 253.341C368.08 253.699 368.538 253.823 368.897 253.616L368.523 252.966L368.148 252.316ZM371.515 252.11C371.874 251.903 371.998 251.445 371.791 251.086C371.585 250.727 371.126 250.603 370.767 250.809L371.141 251.46L371.515 252.11ZM375.145 248.298C374.786 248.503 374.661 248.962 374.867 249.321C375.073 249.681 375.531 249.805 375.891 249.599L375.518 248.948L375.145 248.298ZM378.472 248.123C378.831 247.917 378.956 247.459 378.751 247.1C378.545 246.74 378.087 246.615 377.727 246.82L378.099 247.472L378.472 248.123ZM382.041 244.36C381.681 244.565 381.555 245.023 381.76 245.383C381.965 245.743 382.423 245.868 382.783 245.663L382.412 245.012L382.041 244.36ZM385.377 244.188C385.737 243.983 385.863 243.525 385.659 243.165C385.454 242.805 384.996 242.679 384.636 242.883L385.007 243.536L385.377 244.188ZM388.974 240.423C388.614 240.627 388.487 241.085 388.691 241.445C388.895 241.806 389.353 241.933 389.713 241.729L389.344 241.076L388.974 240.423ZM392.322 240.253C392.683 240.05 392.81 239.592 392.606 239.231C392.402 238.871 391.945 238.744 391.584 238.947L391.953 239.6L392.322 240.253ZM395.946 236.488C395.585 236.691 395.457 237.148 395.66 237.509C395.863 237.87 396.321 237.998 396.682 237.795L396.314 237.142L395.946 236.488ZM399.305 236.321C399.666 236.118 399.794 235.661 399.591 235.299C399.388 234.938 398.931 234.81 398.57 235.013L398.937 235.667L399.305 236.321ZM402.955 232.555C402.594 232.757 402.465 233.214 402.667 233.576C402.869 233.937 403.326 234.066 403.688 233.864L403.322 233.209L402.955 232.555ZM406.325 232.391C406.686 232.189 406.816 231.732 406.614 231.37C406.412 231.008 405.955 230.879 405.594 231.081L405.959 231.736L406.325 232.391ZM409.966 228.645C409.604 228.846 409.474 229.303 409.675 229.665C409.877 230.027 410.333 230.157 410.695 229.956L410.331 229.3L409.966 228.645ZM413.3 228.509C413.662 228.308 413.793 227.852 413.592 227.49C413.391 227.127 412.934 226.997 412.572 227.198L412.936 227.853L413.3 228.509ZM416.926 224.787C416.563 224.987 416.432 225.443 416.632 225.806C416.832 226.169 417.289 226.3 417.651 226.1L417.288 225.443L416.926 224.787ZM420.269 224.655C420.631 224.455 420.763 223.999 420.563 223.636C420.363 223.273 419.907 223.141 419.544 223.341L419.906 223.998L420.269 224.655ZM423.919 220.934C423.556 221.133 423.424 221.589 423.623 221.952C423.823 222.315 424.279 222.448 424.642 222.248L424.281 221.591L423.919 220.934ZM427.272 220.805C427.635 220.606 427.768 220.151 427.569 219.787C427.37 219.424 426.914 219.291 426.551 219.49L426.911 220.148L427.272 220.805ZM430.947 217.086C430.583 217.284 430.449 217.74 430.648 218.103C430.846 218.467 431.302 218.601 431.666 218.402L431.306 217.744L430.947 217.086ZM434.308 216.962C434.672 216.764 434.806 216.308 434.608 215.945C434.41 215.581 433.955 215.446 433.591 215.645L433.949 216.303L434.308 216.962ZM438.007 213.244C437.643 213.442 437.508 213.897 437.706 214.261C437.903 214.625 438.358 214.76 438.723 214.563L438.365 213.904L438.007 213.244ZM441.377 213.125C441.742 212.928 441.877 212.473 441.68 212.109C441.483 211.744 441.028 211.609 440.663 211.806L441.02 212.465L441.377 213.125ZM445.048 209.438C444.684 209.635 444.547 210.09 444.744 210.454C444.94 210.819 445.395 210.955 445.76 210.759L445.404 210.099L445.048 209.438ZM448.388 209.344C448.752 209.148 448.889 208.694 448.693 208.329C448.497 207.964 448.042 207.827 447.677 208.023L448.033 208.684L448.388 209.344ZM452.069 205.667C451.704 205.863 451.567 206.317 451.762 206.683C451.957 207.048 452.412 207.185 452.777 206.99L452.423 206.329L452.069 205.667ZM455.417 205.579C455.782 205.383 455.92 204.929 455.725 204.564C455.53 204.198 455.075 204.06 454.71 204.255L455.063 204.917L455.417 205.579ZM459.12 201.905C458.755 202.099 458.616 202.554 458.81 202.919C459.005 203.285 459.459 203.424 459.825 203.229L459.473 202.567L459.12 201.905ZM462.475 201.822C462.841 201.627 462.98 201.173 462.786 200.808C462.592 200.442 462.138 200.302 461.772 200.496L462.124 201.159L462.475 201.822ZM466.201 198.152C465.835 198.345 465.695 198.799 465.888 199.165C466.082 199.532 466.535 199.672 466.902 199.478L466.551 198.815L466.201 198.152ZM469.563 198.074C469.93 197.881 470.07 197.428 469.877 197.061C469.684 196.695 469.23 196.554 468.864 196.747L469.213 197.411L469.563 198.074ZM473.311 194.409C472.944 194.602 472.803 195.055 472.995 195.422C473.187 195.789 473.641 195.93 474.008 195.737L473.659 195.073L473.311 194.409ZM476.677 194.339C477.044 194.147 477.186 193.693 476.994 193.326C476.802 192.959 476.349 192.818 475.982 193.01L476.329 193.674L476.677 194.339ZM480.394 190.706C480.026 190.897 479.884 191.35 480.075 191.718C480.266 192.085 480.719 192.228 481.087 192.036L480.74 191.371L480.394 190.706ZM483.738 190.657C484.105 190.466 484.248 190.013 484.057 189.645C483.866 189.278 483.413 189.135 483.046 189.326L483.392 189.991L483.738 190.657ZM487.475 187.029C487.107 187.22 486.963 187.672 487.153 188.04C487.343 188.408 487.796 188.552 488.164 188.361L487.819 187.695L487.475 187.029ZM490.825 186.987C491.193 186.797 491.337 186.344 491.147 185.976C490.957 185.608 490.505 185.464 490.137 185.654L490.481 186.32L490.825 186.987ZM494.582 183.365C494.213 183.554 494.068 184.006 494.257 184.375C494.447 184.743 494.899 184.888 495.267 184.699L494.925 184.032L494.582 183.365ZM497.938 183.329C498.306 183.14 498.452 182.688 498.263 182.32C498.074 181.951 497.622 181.805 497.254 181.994L497.596 182.662L497.938 183.329ZM501.715 179.714C501.346 179.902 501.199 180.354 501.388 180.723C501.576 181.092 502.027 181.238 502.396 181.05L502.056 180.382L501.715 179.714ZM505.076 179.685C505.445 179.497 505.592 179.046 505.405 178.676C505.217 178.307 504.765 178.16 504.396 178.348L504.736 179.016L505.076 179.685ZM508.873 176.076C508.503 176.263 508.355 176.715 508.542 177.084C508.73 177.454 509.181 177.602 509.55 177.415L509.212 176.745L508.873 176.076ZM512.232 176.059C512.602 175.872 512.75 175.421 512.563 175.051C512.377 174.682 511.925 174.533 511.556 174.72L511.894 175.389L512.232 176.059ZM516.007 172.478C515.637 172.664 515.487 173.115 515.673 173.485C515.859 173.855 516.31 174.004 516.68 173.818L516.343 173.148L516.007 172.478ZM519.354 172.477C519.724 172.291 519.874 171.84 519.688 171.47C519.503 171.1 519.052 170.95 518.682 171.136L519.018 171.806L519.354 172.477ZM523.147 168.903C522.776 169.088 522.626 169.538 522.811 169.909C522.996 170.28 523.446 170.43 523.817 170.245L523.482 169.574L523.147 168.903ZM526.499 168.91C526.869 168.725 527.021 168.275 526.836 167.904C526.652 167.533 526.202 167.382 525.831 167.567L526.165 168.238L526.499 168.91ZM530.31 165.344C529.939 165.528 529.787 165.978 529.971 166.349C530.154 166.72 530.604 166.872 530.976 166.689L530.643 166.016L530.31 165.344ZM533.666 165.359C534.037 165.176 534.19 164.726 534.007 164.355C533.823 163.983 533.374 163.831 533.002 164.014L533.334 164.686L533.666 165.359ZM537.496 161.802C537.124 161.984 536.97 162.434 537.153 162.806C537.336 163.178 537.785 163.331 538.157 163.148L537.826 162.475L537.496 161.802ZM540.855 161.825C541.227 161.643 541.381 161.194 541.199 160.822C541.017 160.45 540.568 160.296 540.196 160.478L540.525 161.152L540.855 161.825ZM544.703 158.277C544.33 158.458 544.175 158.907 544.357 159.28C544.538 159.652 544.987 159.807 545.359 159.625L545.031 158.951L544.703 158.277ZM548.058 158.313C548.431 158.132 548.586 157.683 548.405 157.31C548.224 156.938 547.775 156.782 547.403 156.963L547.731 157.638L548.058 158.313ZM551.893 154.788C551.52 154.968 551.364 155.417 551.544 155.79C551.724 156.163 552.172 156.319 552.545 156.139L552.219 155.464L551.893 154.788ZM555.242 154.838C555.615 154.658 555.772 154.21 555.592 153.837C555.412 153.464 554.964 153.307 554.591 153.487L554.916 154.162L555.242 154.838ZM559.093 151.323C558.72 151.502 558.562 151.95 558.741 152.324C558.92 152.697 559.368 152.855 559.741 152.676L559.417 151.999L559.093 151.323ZM562.445 151.382C562.819 151.204 562.977 150.756 562.798 150.382C562.62 150.008 562.172 149.85 561.798 150.029L562.122 150.705L562.445 151.382ZM566.313 147.877C565.939 148.055 565.78 148.503 565.957 148.877C566.135 149.251 566.583 149.41 566.957 149.232L566.635 148.555L566.313 147.877ZM569.667 147.946C570.042 147.768 570.201 147.321 570.024 146.947C569.847 146.573 569.4 146.413 569.025 146.59L569.346 147.268L569.667 147.946ZM573.552 144.452C573.177 144.628 573.016 145.075 573.193 145.45C573.369 145.824 573.816 145.985 574.191 145.809L573.871 145.13L573.552 144.452ZM576.908 144.53C577.283 144.354 577.445 143.907 577.268 143.532C577.092 143.157 576.646 142.996 576.271 143.172L576.59 143.851L576.908 144.53ZM580.808 141.047C580.433 141.222 580.271 141.668 580.446 142.044C580.622 142.419 581.068 142.581 581.443 142.406L581.126 141.726L580.808 141.047ZM584.162 141.138C584.538 140.963 584.701 140.517 584.526 140.141C584.351 139.766 583.905 139.603 583.529 139.778L583.846 140.458L584.162 141.138ZM588.059 137.675C587.683 137.849 587.519 138.295 587.693 138.67C587.867 139.046 588.313 139.21 588.689 139.036L588.374 138.355L588.059 137.675ZM591.408 137.779C591.784 137.605 591.949 137.16 591.775 136.784C591.602 136.408 591.156 136.243 590.78 136.417L591.094 137.098L591.408 137.779ZM595.32 134.328C594.944 134.5 594.778 134.946 594.951 135.322C595.124 135.699 595.569 135.864 595.946 135.691L595.633 135.009L595.32 134.328ZM598.671 134.442C599.048 134.27 599.213 133.825 599.041 133.449C598.869 133.072 598.424 132.906 598.047 133.078L598.359 133.76L598.671 134.442ZM602.598 131.003C602.221 131.175 602.054 131.62 602.225 131.997C602.397 132.374 602.841 132.54 603.218 132.369L602.908 131.686L602.598 131.003ZM605.95 131.129C606.327 130.958 606.494 130.514 606.323 130.137C606.153 129.759 605.708 129.592 605.331 129.763L605.64 130.446L605.95 131.129ZM609.891 127.703C609.513 127.873 609.345 128.317 609.515 128.695C609.685 129.072 610.129 129.241 610.507 129.07L610.199 128.387L609.891 127.703ZM613.244 127.84C613.622 127.67 613.791 127.226 613.621 126.848C613.452 126.471 613.008 126.302 612.63 126.471L612.937 127.156L613.244 127.84ZM617.2 124.426C616.821 124.595 616.651 125.039 616.82 125.417C616.989 125.795 617.433 125.965 617.811 125.796L617.505 125.111L617.2 124.426ZM620.551 124.576C620.93 124.408 621.1 123.964 620.932 123.586C620.764 123.207 620.32 123.037 619.942 123.205L620.247 123.891L620.551 124.576ZM624.512 121.18C624.133 121.347 623.962 121.79 624.129 122.169C624.297 122.548 624.739 122.719 625.118 122.552L624.815 121.866L624.512 121.18ZM627.861 121.342C628.24 121.176 628.412 120.733 628.245 120.354C628.079 119.975 627.636 119.803 627.257 119.97L627.559 120.656L627.861 121.342ZM631.836 117.96C631.456 118.126 631.283 118.569 631.449 118.948C631.615 119.328 632.057 119.501 632.437 119.335L632.136 118.647L631.836 117.96ZM635.185 118.135C635.564 117.969 635.738 117.527 635.573 117.148C635.407 116.768 634.965 116.594 634.586 116.76L634.885 117.447L635.185 118.135ZM639.173 114.767C638.793 114.932 638.618 115.373 638.782 115.753C638.947 116.134 639.389 116.308 639.769 116.144L639.471 115.455L639.173 114.767ZM642.521 114.954C642.902 114.79 643.077 114.349 642.913 113.968C642.749 113.588 642.308 113.413 641.927 113.577L642.224 114.265L642.521 114.954ZM646.523 111.601C646.142 111.764 645.965 112.205 646.129 112.586C646.292 112.967 646.733 113.143 647.113 112.98L646.818 112.29L646.523 111.601ZM649.871 111.8C650.252 111.638 650.429 111.197 650.266 110.816C650.104 110.435 649.663 110.258 649.282 110.421L649.576 111.111L649.871 111.8ZM653.885 108.463C653.503 108.624 653.325 109.065 653.487 109.446C653.649 109.827 654.089 110.005 654.47 109.844L654.177 109.153L653.885 108.463ZM657.232 108.675C657.614 108.514 657.793 108.074 657.632 107.692C657.47 107.311 657.03 107.132 656.649 107.293L656.941 107.984L657.232 108.675ZM661.261 105.352C660.879 105.512 660.699 105.952 660.859 106.334C661.019 106.716 661.459 106.896 661.841 106.735L661.551 106.044L661.261 105.352ZM664.608 105.577C664.99 105.418 665.17 104.978 665.011 104.596C664.851 104.214 664.412 104.034 664.03 104.193L664.319 104.885L664.608 105.577ZM668.648 102.271C668.266 102.429 668.084 102.868 668.243 103.251C668.401 103.633 668.84 103.815 669.223 103.656L668.935 102.963L668.648 102.271ZM671.994 102.509C672.377 102.351 672.559 101.913 672.401 101.53C672.243 101.147 671.804 100.965 671.421 101.123L671.708 101.816L671.994 102.509ZM676.046 99.2192C675.663 99.3763 675.48 99.8144 675.637 100.198C675.794 100.581 676.232 100.764 676.615 100.607L676.331 99.9131L676.046 99.2192ZM679.39 99.4714C679.774 99.3148 679.958 98.877 679.801 98.4935C679.644 98.11 679.207 97.9261 678.823 98.0827L679.107 98.7771L679.39 99.4714ZM683.454 96.1984C683.071 96.354 682.886 96.7913 683.041 97.1752C683.197 97.5591 683.634 97.7441 684.018 97.5885L683.736 96.8934L683.454 96.1984ZM686.796 96.4647C687.18 96.3096 687.366 95.8726 687.211 95.4885C687.056 95.1044 686.619 94.9187 686.235 95.0737L686.516 95.7692L686.796 96.4647ZM690.872 93.2091C690.487 93.3631 690.3 93.7997 690.455 94.1842C690.609 94.5687 691.045 94.7556 691.43 94.6015L691.151 93.9053L690.872 93.2091ZM694.214 93.4887C694.598 93.3353 694.786 92.899 694.633 92.5143C694.479 92.1295 694.043 91.942 693.658 92.0954L693.936 92.7921L694.214 93.4887ZM698.312 90.2464C697.927 90.3988 697.738 90.8346 697.891 91.2198C698.043 91.6049 698.479 91.7936 698.864 91.6412L698.588 90.9438L698.312 90.2464ZM701.656 90.5388C702.041 90.387 702.231 89.9515 702.079 89.5661C701.927 89.1808 701.492 88.9914 701.106 89.1432L701.381 89.841L701.656 90.5388ZM705.766 87.3149C705.38 87.4657 705.189 87.9007 705.34 88.2865C705.491 88.6723 705.926 88.8628 706.312 88.712L706.039 88.0135L705.766 87.3149ZM709.106 87.6223C709.492 87.4721 709.683 87.0375 709.533 86.6514C709.383 86.2654 708.948 86.0742 708.562 86.2244L708.834 86.9233L709.106 87.6223ZM713.226 84.4173C712.84 84.5665 712.648 85.0006 712.797 85.3871C712.946 85.7735 713.38 85.9659 713.766 85.8168L713.496 85.117L713.226 84.4173ZM716.564 84.7399C716.951 84.5914 717.144 84.1576 716.995 83.7709C716.847 83.3842 716.413 83.1911 716.026 83.3396L716.295 84.0397L716.564 84.7399ZM720.694 81.5542C720.307 81.7017 720.113 82.135 720.261 82.5221C720.408 82.9092 720.841 83.1034 721.228 82.956L720.961 82.2551L720.694 81.5542ZM724.028 81.8923C724.416 81.7455 724.611 81.3125 724.464 80.9252C724.317 80.5379 723.884 80.3429 723.497 80.4896L723.763 81.191L724.028 81.8923ZM728.169 78.7264C727.781 78.8721 727.585 79.3046 727.731 79.6923C727.876 80.0801 728.309 80.2763 728.697 80.1306L728.433 79.4285L728.169 78.7264ZM731.503 79.0788C731.891 78.9337 732.088 78.5016 731.943 78.1136C731.798 77.7256 731.366 77.5287 730.978 77.6737L731.24 78.3762L731.503 79.0788ZM735.675 75.9251C735.287 76.0691 735.089 76.5006 735.233 76.889C735.376 77.2774 735.808 77.4756 736.196 77.3317L735.936 76.6284L735.675 75.9251ZM739.013 76.2903C739.402 76.1471 739.601 75.7158 739.458 75.3272C739.315 74.9386 738.883 74.7396 738.495 74.8829L738.754 75.5866L739.013 76.2903ZM743.196 73.1576C742.806 73.2997 742.606 73.7304 742.748 74.1194C742.891 74.5085 743.321 74.7086 743.71 74.5665L743.453 73.862L743.196 73.1576ZM746.529 73.5393C746.919 73.3978 747.119 72.9675 746.978 72.5782C746.836 72.1889 746.406 71.988 746.017 72.1295L746.273 72.8344L746.529 73.5393ZM750.721 70.4278C750.331 70.5682 750.129 70.9979 750.269 71.3876C750.409 71.7773 750.839 71.9795 751.229 71.8391L750.975 71.1335L750.721 70.4278ZM754.049 70.8263C754.439 70.6867 754.642 70.2573 754.503 69.8674C754.363 69.4774 753.934 69.2745 753.544 69.4141L753.797 70.1202L754.049 70.8263ZM758.25 67.7367C757.86 67.8752 757.655 68.3039 757.794 68.6943C757.932 69.0847 758.361 69.2889 758.751 69.1504L758.501 68.4436L758.25 67.7367ZM761.573 68.1522C761.964 68.0144 762.169 67.5861 762.031 67.1955C761.893 66.8048 761.465 66.5999 761.074 66.7376L761.324 67.4449L761.573 68.1522ZM765.783 65.0849C765.392 65.2215 765.186 65.6492 765.322 66.0403C765.459 66.4313 765.887 66.6376 766.278 66.501L766.03 65.7929L765.783 65.0849ZM769.107 65.5154C769.499 65.3795 769.706 64.9521 769.57 64.5608C769.434 64.1695 769.007 63.9625 768.615 64.0984L768.861 64.8069L769.107 65.5154ZM773.357 62.46C772.965 62.5947 772.757 63.0214 772.891 63.4131C773.026 63.8048 773.453 64.0132 773.845 63.8785L773.601 63.1693L773.357 62.46ZM776.687 62.9042C777.079 62.7702 777.288 62.3439 777.154 61.9519C777.021 61.56 776.594 61.3508 776.202 61.4847L776.445 62.1944L776.687 62.9042ZM780.945 59.8723C780.553 60.005 780.342 60.4307 780.475 60.8231C780.608 61.2154 781.033 61.4259 781.426 61.2932L781.185 60.5828L780.945 59.8723ZM784.269 60.3346C784.662 60.2026 784.873 59.7773 784.741 59.3847C784.609 58.9921 784.184 58.7808 783.791 58.9127L784.03 59.6237L784.269 60.3346ZM788.535 57.3267C788.142 57.4574 787.93 57.882 788.06 58.2751C788.191 58.6681 788.616 58.8808 789.009 58.7501L788.772 58.0384L788.535 57.3267ZM791.853 57.8074C792.246 57.6775 792.459 57.2533 792.329 56.86C792.199 56.4667 791.775 56.2532 791.382 56.3831L791.617 57.0953L791.853 57.8074ZM796.127 54.824C795.733 54.9526 795.518 55.3761 795.647 55.7698C795.775 56.1636 796.199 56.3784 796.593 56.2498L796.36 55.5369L796.127 54.824ZM799.437 55.3233C799.831 55.1955 800.046 54.7724 799.919 54.3784C799.791 53.9844 799.368 53.7687 798.974 53.8966L799.205 54.61L799.437 55.3233ZM803.719 52.3648C803.324 52.4914 803.107 52.9138 803.234 53.3082C803.36 53.7026 803.783 53.9197 804.177 53.7931L803.948 53.0789L803.719 52.3648ZM807.064 52.8698C807.458 52.744 807.676 52.3221 807.55 51.9275C807.425 51.5328 807.003 51.3148 806.608 51.4406L806.836 52.1552L807.064 52.8698ZM811.478 49.899C811.083 50.0232 810.863 50.4443 810.987 50.8394C811.112 51.2346 811.533 51.4542 811.928 51.3299L811.703 50.6144L811.478 49.899ZM814.836 50.4191C815.231 50.2957 815.451 49.8751 815.328 49.4797C815.205 49.0843 814.784 48.8638 814.389 48.9871L814.612 49.7031L814.836 50.4191ZM819.222 47.4892C818.827 47.611 818.604 48.0307 818.726 48.4266C818.848 48.8225 819.268 49.0446 819.664 48.9228L819.443 48.206L819.222 47.4892ZM822.55 48.038C822.946 47.917 823.169 47.4978 823.048 47.1017C822.927 46.7055 822.508 46.4824 822.112 46.6034L822.331 47.3207L822.55 48.038ZM826.91 45.1486C826.513 45.268 826.288 45.6864 826.408 46.083C826.527 46.4796 826.946 46.7043 827.342 46.5849L827.126 45.8667L826.91 45.1486ZM830.207 45.7258C830.604 45.6073 830.829 45.1895 830.711 44.7926C830.592 44.3957 830.174 44.17 829.778 44.2886L829.992 45.0072L830.207 45.7258ZM834.539 42.8765C834.142 42.9935 833.915 43.4105 834.032 43.8078C834.149 44.2052 834.566 44.4324 834.963 44.3154L834.751 43.596L834.539 42.8765ZM837.806 43.4819C838.204 43.3659 838.432 42.9494 838.316 42.5518C838.2 42.1542 837.783 41.926 837.386 42.042L837.596 42.762L837.806 43.4819ZM842.114 40.6716C841.716 40.7861 841.487 41.2016 841.601 41.5997C841.716 41.9978 842.131 42.2276 842.529 42.1131L842.322 41.3923L842.114 40.6716ZM845.481 41.2678C845.879 41.1542 846.11 40.7393 845.996 40.3409C845.883 39.9426 845.468 39.7117 845.069 39.8253L845.275 40.5465L845.481 41.2678ZM849.975 38.4376C849.576 38.5495 849.343 38.9636 849.455 39.3624C849.567 39.7612 849.981 39.9937 850.38 39.8818L850.177 39.1597L849.975 38.4376ZM853.308 39.0638C853.707 38.9529 853.941 38.5394 853.83 38.1403C853.719 37.7412 853.305 37.5077 852.906 37.6186L853.107 38.3412L853.308 39.0638ZM857.773 36.2763C857.373 36.3856 857.138 36.7981 857.247 37.1976C857.356 37.5972 857.769 37.8324 858.168 37.7231L857.97 36.9997L857.773 36.2763ZM861.073 36.9321C861.473 36.8238 861.709 36.4119 861.601 36.0121C861.492 35.6123 861.08 35.376 860.681 35.4844L860.877 36.2082L861.073 36.9321ZM865.508 34.1868C865.108 34.2935 864.87 34.7044 864.976 35.1047C865.083 35.5049 865.494 35.7429 865.894 35.6362L865.701 34.9115L865.508 34.1868ZM868.775 34.8719C869.176 34.7662 869.415 34.3559 869.309 33.9554C869.203 33.5549 868.793 33.3159 868.393 33.4216L868.584 34.1468L868.775 34.8719ZM873.181 32.1684C872.78 32.2724 872.539 32.6818 872.643 33.0827C872.747 33.4836 873.157 33.7243 873.558 33.6203L873.369 32.8943L873.181 32.1684ZM876.415 32.8824C876.817 32.7794 877.058 32.3706 876.955 31.9694C876.852 31.5682 876.443 31.3265 876.042 31.4296L876.229 32.156L876.415 32.8824ZM880.937 30.1834C880.536 30.2847 880.292 30.6924 880.394 31.0941C880.495 31.4957 880.903 31.7391 881.304 31.6378L881.121 30.9106L880.937 30.1834ZM884.27 30.8938C884.672 30.7935 884.916 30.3864 884.816 29.9845C884.715 29.5827 884.308 29.3381 883.906 29.4384L884.088 30.1661L884.27 30.8938ZM888.834 28.2204C888.431 28.3189 888.185 28.725 888.284 29.1273C888.382 29.5296 888.788 29.7759 889.191 29.6774L889.012 28.9489L888.834 28.2204ZM892.13 28.9616C892.533 28.8641 892.78 28.4588 892.683 28.0562C892.585 27.6536 892.18 27.4063 891.777 27.5037L891.954 28.2327L892.13 28.9616ZM896.662 26.3325C896.259 26.4282 896.01 26.8325 896.106 27.2355C896.202 27.6385 896.606 27.8876 897.009 27.792L896.836 27.0622L896.662 26.3325ZM899.923 27.1041C900.327 27.0095 900.577 26.6059 900.482 26.2026C900.387 25.7993 899.984 25.5491 899.581 25.6437L899.752 26.3739L899.923 27.1041ZM904.423 24.5188C904.019 24.6116 903.768 25.0141 903.86 25.4178C903.953 25.8215 904.356 26.0735 904.759 25.9806L904.591 25.2497L904.423 24.5188ZM907.648 25.3203C908.052 25.2285 908.305 24.8267 908.214 24.4228C908.122 24.0189 907.72 23.7658 907.316 23.8576L907.482 24.5889L907.648 25.3203ZM912.125 22.7764C911.721 22.8663 911.466 23.267 911.556 23.6713C911.646 24.0757 912.046 24.3305 912.451 24.2405L912.288 23.5084L912.125 22.7764ZM915.448 23.5781C915.853 23.4892 916.109 23.0893 916.02 22.6847C915.931 22.2801 915.531 22.0241 915.126 22.113L915.287 22.8455L915.448 23.5781ZM920.106 21.032C919.701 21.1189 919.443 21.5177 919.53 21.9227C919.617 22.3276 920.015 22.5855 920.42 22.4985L920.263 21.7652L920.106 21.032ZM923.39 21.8655C923.795 21.7797 924.054 21.3816 923.968 20.9764C923.882 20.5712 923.484 20.3122 923.079 20.398L923.235 21.1317L923.39 21.8655ZM928.012 19.3657C927.607 19.4496 927.346 19.8464 927.43 20.2521C927.513 20.6577 927.91 20.9185 928.316 20.8346L928.164 20.1002L928.012 19.3657ZM931.258 20.2306C931.664 20.1478 931.926 19.7517 931.843 19.3459C931.76 18.94 931.364 18.6781 930.958 18.7608L931.108 19.4957L931.258 20.2306ZM935.845 17.7766C935.439 17.8574 935.175 18.2522 935.256 18.6585C935.337 19.0647 935.732 19.3286 936.138 19.2477L935.991 18.5122L935.845 17.7766ZM939.052 18.6723C939.458 18.5926 939.723 18.1985 939.644 17.7921C939.564 17.3856 939.17 17.1206 938.763 17.2003L938.908 17.9363L939.052 18.6723ZM943.604 16.2635C943.198 16.3412 942.931 16.734 943.008 17.1409C943.086 17.5478 943.479 17.8146 943.886 17.7368L943.745 17.0002L943.604 16.2635ZM946.847 17.1756C947.254 17.0991 947.522 16.707 947.446 16.2999C947.369 15.8928 946.977 15.6249 946.57 15.7014L946.708 16.4385L946.847 17.1756ZM951.59 14.7706C951.182 14.8451 950.912 15.2358 950.987 15.6432C951.061 16.0507 951.452 16.3206 951.86 16.2461L951.725 15.5083L951.59 14.7706ZM954.852 15.7036C955.26 15.6303 955.531 15.2404 955.458 14.8327C955.384 14.4251 954.994 14.154 954.587 14.2272L954.719 14.9654L954.852 15.7036ZM959.556 13.3469C959.148 13.4181 958.875 13.8066 958.946 14.2147C959.018 14.6227 959.406 14.8957 959.814 14.8245L959.685 14.0857L959.556 13.3469ZM962.777 14.312C963.185 14.242 963.459 13.8544 963.389 13.4461C963.319 13.0378 962.931 12.7636 962.523 12.8336L962.65 13.5728L962.777 14.312ZM967.443 12.003C967.034 12.0709 966.758 12.4572 966.826 12.8658C966.894 13.2744 967.28 13.5506 967.689 13.4826L967.566 12.7428L967.443 12.003ZM970.621 12.9997C971.03 12.9331 971.307 12.5476 971.24 12.1388C971.174 11.73 970.788 11.4526 970.379 11.5193L970.5 12.2595L970.621 12.9997ZM975.249 10.7376C974.84 10.8022 974.56 11.1863 974.625 11.5954C974.69 12.0046 975.074 12.2839 975.483 12.2193L975.366 11.4784L975.249 10.7376ZM978.459 11.7541C978.868 11.6907 979.149 11.3075 979.085 10.8982C979.022 10.4889 978.639 10.2084 978.229 10.2717L978.344 11.0129L978.459 11.7541ZM983.277 9.50456C982.867 9.5657 982.585 9.94738 982.646 10.3571C982.707 10.7667 983.089 11.0493 983.498 10.9881L983.388 10.2463L983.277 9.50456ZM986.505 10.5442C986.915 10.4844 987.199 10.1036 987.139 9.69376C987.079 9.28389 986.699 9.00013 986.289 9.05995L986.397 9.80209L986.505 10.5442ZM991.281 8.34484C990.871 8.40247 990.586 8.7817 990.643 9.19189C990.701 9.60207 991.08 9.88788 991.49 9.83025L991.386 9.08755L991.281 8.34484ZM994.465 9.41726C994.875 9.36096 995.162 8.98265 995.106 8.57228C995.049 8.16191 994.671 7.87488 994.261 7.93119L994.363 8.67423L994.465 9.41726ZM999.199 7.26722C998.788 7.32131 998.499 7.69807 998.553 8.10873C998.607 8.5194 998.984 8.80846 999.395 8.75437L999.297 8.0108L999.199 7.26722ZM1002.34 8.37177C1002.75 8.31901 1003.04 7.94319 1002.98 7.53235C1002.93 7.12151 1002.56 6.83123 1002.15 6.88399L1002.24 7.62788L1002.34 8.37177ZM1007.03 6.27015C1006.62 6.32068 1006.33 6.69492 1006.38 7.10604C1006.43 7.51716 1006.8 7.80947 1007.21 7.75894L1007.12 7.01454L1007.03 6.27015ZM1010.26 7.38956C1010.67 7.34043 1010.97 6.96719 1010.92 6.5559C1010.87 6.14461 1010.49 5.85102 1010.08 5.90015L1010.17 6.64485L1010.26 7.38956ZM1015.14 5.31046C1014.73 5.35724 1014.44 5.72881 1014.48 6.14037C1014.53 6.55193 1014.9 6.84765 1015.31 6.80087L1015.23 6.05567L1015.14 5.31046ZM1018.32 6.46368C1018.74 6.41831 1019.03 6.04777 1018.99 5.63605C1018.94 5.22432 1018.57 4.92734 1018.16 4.97271L1018.24 5.71819L1018.32 6.46368ZM1023.16 4.43626C1022.75 4.47927 1022.45 4.8481 1022.49 5.26008C1022.53 5.67205 1022.9 5.97116 1023.32 5.92815L1023.24 5.1822L1023.16 4.43626ZM1026.29 5.62255C1026.7 5.58096 1027 5.21316 1026.96 4.80104C1026.92 4.38892 1026.55 4.08854 1026.14 4.13014L1026.22 4.87635L1026.29 5.62255ZM1031.08 3.64591C1030.67 3.68513 1030.37 4.0512 1030.41 4.46356C1030.44 4.87591 1030.81 5.17839 1031.22 5.13917L1031.15 4.39254L1031.08 3.64591ZM1034.16 4.86457C1034.58 4.82677 1034.88 4.46175 1034.84 4.04926C1034.8 3.63678 1034.44 3.33303 1034.03 3.37082L1034.1 4.1177L1034.16 4.86457ZM1039.04 2.92633C1038.63 2.96168 1038.32 3.32489 1038.36 3.7376C1038.39 4.1503 1038.76 4.45621 1039.17 4.42086L1039.11 3.6736L1039.04 2.92633ZM1042.22 4.16563C1042.63 4.13179 1042.94 3.76969 1042.9 3.35686C1042.87 2.94403 1042.51 2.6368 1042.09 2.67064L1042.15 3.41814L1042.22 4.16563ZM1047.14 2.27192C1046.73 2.30325 1046.42 2.66347 1046.45 3.0765C1046.49 3.48953 1046.85 3.79895 1047.26 3.76762L1047.2 3.01977L1047.14 2.27192ZM1050.26 3.54509C1050.68 3.51527 1050.99 3.15618 1050.96 2.74304C1050.93 2.3299 1050.57 2.01916 1050.16 2.04898L1050.21 2.79703L1050.26 3.54509ZM1055.14 1.70426C1054.73 1.73156 1054.42 2.08875 1054.44 2.50206C1054.47 2.91538 1054.83 3.2283 1055.24 3.201L1055.19 2.45263L1055.14 1.70426ZM1058.21 3.01048C1058.62 2.98469 1058.94 2.62866 1058.91 2.21525C1058.89 1.80184 1058.53 1.4876 1058.12 1.51338L1058.16 2.26193L1058.21 3.01048ZM1063.04 1.22152C1062.63 1.24476 1062.31 1.59887 1062.33 2.01243C1062.36 2.42599 1062.71 2.7424 1063.12 2.71915L1063.08 1.97033L1063.04 1.22152ZM1066.15 2.5549C1066.56 2.53322 1066.88 2.18033 1066.86 1.76668C1066.84 1.35304 1066.48 1.03528 1066.07 1.05695L1066.11 1.80593L1066.15 2.5549ZM1071.16 0.806464C1070.75 0.82547 1070.43 1.17631 1070.45 1.59009C1070.47 2.00386 1070.82 2.32389 1071.23 2.30488L1071.2 1.55567L1071.16 0.806464ZM1074.26 2.17162C1074.68 2.15422 1075 1.80462 1074.98 1.39077C1074.96 0.976924 1074.61 0.65554 1074.2 0.672941L1074.23 1.42228L1074.26 2.17162ZM1079.22 0.477991C1078.81 0.492711 1078.48 0.840219 1078.5 1.25417C1078.51 1.66812 1078.86 1.99176 1079.27 1.97704L1079.25 1.22752L1079.22 0.477991ZM1082.26 1.87664C1082.68 1.86353 1083 1.51728 1082.99 1.10328C1082.97 0.68927 1082.63 0.36428 1082.21 0.37739L1082.24 1.12701L1082.26 1.87664ZM1087.17 0.236637C1086.75 0.247058 1086.43 0.591185 1086.44 1.00527C1086.45 1.41935 1086.79 1.74658 1087.2 1.73616L1087.19 0.9864L1087.17 0.236637ZM1090.15 1.66781C1090.56 1.65901 1090.89 1.31616 1090.88 0.902043C1090.87 0.487923 1090.53 0.159349 1090.12 0.168153L1090.13 0.917983L1090.15 1.66781ZM1095.22 0.0771C1094.8 0.0830842 1094.47 0.423687 1094.48 0.837857C1094.48 1.25203 1094.82 1.58293 1095.24 1.57694L1095.23 0.827022L1095.22 0.0771ZM1098.28 1.5392C1098.7 1.53492 1099.03 1.19568 1099.02 0.781491C1099.02 0.367299 1098.68 0.0350018 1098.27 0.0392832L1098.27 0.789243L1098.28 1.5392ZM1103.31 0.00440407C1102.9 0.0058431 1102.56 0.342794 1102.56 0.757005C1102.57 1.17122 1102.9 1.50583 1103.32 1.5044L1103.31 0.7544L1103.31 0.00440407ZM1106.32 1.50015C1106.73 1.50042 1107.07 1.16485 1107.07 0.75064C1107.07 0.336426 1106.73 0.000421882 1106.32 0.000153005L1106.32 0.750153L1106.32 1.50015ZM1111.29 0.0204418C1110.87 0.0173225 1110.53 0.350571 1110.53 0.764773C1110.53 1.17897 1110.86 1.51728 1111.27 1.5204L1111.28 0.77042L1111.29 0.0204418ZM1114.23 1.54872C1114.64 1.55356 1114.98 1.22171 1114.98 0.807524C1114.99 0.393338 1114.66 0.0536579 1114.24 0.0488262L1114.23 0.798775L1114.23 1.54872ZM1119.29 0.125677C1118.88 0.117895 1118.54 0.447314 1118.53 0.861455C1118.52 1.2756 1118.85 1.61763 1119.26 1.62541L1119.28 0.875545L1119.29 0.125677ZM1122.32 1.68938C1122.73 1.69897 1123.07 1.37104 1123.08 0.956937C1123.09 0.542834 1122.76 0.199367 1122.35 0.189782L1122.33 0.939581L1122.32 1.68938ZM1127.4 0.325089C1126.99 0.312495 1126.64 0.637917 1126.63 1.05194C1126.62 1.46596 1126.94 1.8118 1127.36 1.8244L1127.38 1.07474L1127.4 0.325089ZM1130.36 1.9222C1130.77 1.9366 1131.12 1.61269 1131.13 1.19873C1131.15 0.784763 1130.82 0.437506 1130.41 0.423105L1130.38 1.17265L1130.36 1.9222ZM1135.38 0.614032C1134.97 0.596617 1134.62 0.917989 1134.6 1.33184C1134.58 1.74568 1134.9 2.09529 1135.32 2.11271L1135.35 1.36337L1135.38 0.614032ZM1138.27 2.24326C1138.68 2.26249 1139.03 1.94265 1139.05 1.52888C1139.07 1.11511 1138.75 0.764104 1138.33 0.744879L1138.3 1.49407L1138.27 2.24326ZM1143.38 0.998123C1142.96 0.975782 1142.61 1.29297 1142.59 1.70658C1142.56 2.12019 1142.88 2.4736 1143.3 2.49594L1143.34 1.74703L1143.38 0.998123ZM1146.34 2.66752C1146.76 2.69177 1147.11 2.37622 1147.13 1.96271C1147.16 1.54921 1146.84 1.19434 1146.43 1.1701L1146.39 1.91881L1146.34 2.66752ZM1151.47 1.48517C1151.06 1.45775 1150.7 1.77057 1150.67 2.18387C1150.65 2.59718 1150.96 2.95446 1151.37 2.98188L1151.42 2.23353L1151.47 1.48517ZM1154.36 3.18724C1154.78 3.21657 1155.14 2.9054 1155.16 2.49223C1155.19 2.07905 1154.88 1.72033 1154.47 1.691L1154.42 2.43912L1154.36 3.18724ZM1159.42 2.06145C1159.01 2.02895 1158.64 2.33734 1158.61 2.75028C1158.58 3.16321 1158.89 3.52432 1159.3 3.55683L1159.36 2.80914L1159.42 2.06145ZM1162.24 3.79469C1162.65 3.82911 1163.01 3.52239 1163.05 3.10961C1163.08 2.69682 1162.77 2.3343 1162.36 2.29988L1162.3 3.04729L1162.24 3.79469ZM1167.43 2.7435C1167.02 2.70576 1166.66 3.00955 1166.62 3.42204C1166.58 3.83453 1166.89 4.19952 1167.3 4.23726L1167.37 3.49038L1167.43 2.7435ZM1170.33 4.52182C1170.74 4.56157 1171.11 4.25956 1171.15 3.84725C1171.19 3.43495 1170.88 3.06849 1170.47 3.02875L1170.4 3.77528L1170.33 4.52182ZM1175.48 3.53216C1175.07 3.48907 1174.7 3.78809 1174.66 4.20006C1174.61 4.61203 1174.91 4.98093 1175.32 5.02402L1175.4 4.27809L1175.48 3.53216ZM1178.29 5.34175C1178.7 5.38685 1179.07 5.08962 1179.12 4.67787C1179.16 4.26612 1178.87 3.89577 1178.46 3.85067L1178.37 4.59621L1178.29 5.34175ZM1183.36 4.4083C1182.95 4.35986 1182.58 4.65407 1182.53 5.06544C1182.48 5.47681 1182.78 5.84956 1183.19 5.89801L1183.27 5.15315L1183.36 4.4083ZM1186.17 6.25735C1186.59 6.30785 1186.96 6.01551 1187.01 5.60439C1187.06 5.19326 1186.77 4.81904 1186.36 4.76854L1186.27 5.51294L1186.17 6.25735ZM1191.42 5.41247C1191.01 5.35845 1190.63 5.64757 1190.58 6.05825C1190.52 6.46893 1190.81 6.84564 1191.22 6.89966L1191.32 6.15607L1191.42 5.41247ZM1194.22 7.30164C1194.63 7.35777 1195.01 7.07058 1195.07 6.66019C1195.12 6.2498 1194.83 5.87161 1194.42 5.81547L1194.32 6.55855L1194.22 7.30164ZM1199.37 6.51409C1198.96 6.45445 1198.58 6.73838 1198.52 7.14828C1198.46 7.55818 1198.75 7.93881 1199.16 7.99846L1199.27 7.25628L1199.37 6.51409ZM1202.09 8.43228C1202.5 8.49403 1202.88 8.21205 1202.94 7.80247C1203 7.39288 1202.72 7.01079 1202.31 6.94904L1202.2 7.69066L1202.09 8.43228ZM1207.25 7.71608C1206.84 7.65075 1206.46 7.92937 1206.39 8.3384C1206.33 8.74743 1206.61 9.13197 1207.02 9.1973L1207.13 8.45669L1207.25 7.71608ZM1210.03 9.688C1210.44 9.75555 1210.83 9.47901 1210.9 9.07034C1210.96 8.66167 1210.69 8.27563 1210.28 8.20808L1210.16 8.94804L1210.03 9.688ZM1215.26 9.0549C1214.86 8.98367 1214.47 9.25671 1214.4 9.66475C1214.32 10.0728 1214.6 10.4613 1215.01 10.5326L1215.13 9.79372L1215.26 9.0549ZM1217.95 11.0548C1218.36 11.1283 1218.75 10.8573 1218.82 10.4497C1218.89 10.042 1218.62 9.65204 1218.22 9.5786L1218.08 10.3167L1217.95 11.0548ZM1223.08 10.4766C1222.67 10.3995 1222.28 10.6669 1222.2 11.0738C1222.12 11.4808 1222.39 11.8732 1222.8 11.9504L1222.94 11.2135L1223.08 10.4766ZM1225.74 12.5175C1226.15 12.5969 1226.55 12.3317 1226.62 11.9251C1226.7 11.5186 1226.44 11.1247 1226.03 11.0453L1225.89 11.7814L1225.74 12.5175ZM1231.04 12.0475C1230.63 11.9643 1230.24 12.2257 1230.15 12.6315C1230.07 13.0373 1230.33 13.4337 1230.74 13.5169L1230.89 12.7822L1231.04 12.0475ZM1233.69 14.1316C1234.1 14.2172 1234.49 13.958 1234.58 13.5527C1234.67 13.1474 1234.41 12.7495 1234 12.664L1233.85 13.3978L1233.69 14.1316ZM1238.87 13.7157C1238.46 13.6263 1238.06 13.8817 1237.98 14.2861C1237.89 14.6906 1238.14 15.0909 1238.55 15.1803L1238.71 14.448L1238.87 13.7157ZM1241.42 15.8235C1241.82 15.9152 1242.22 15.6621 1242.31 15.2581C1242.41 14.8542 1242.15 14.4524 1241.75 14.3607L1241.58 15.0921L1241.42 15.8235ZM1246.7 15.5116C1246.3 15.4159 1245.9 15.665 1245.8 16.068C1245.71 16.471 1245.96 16.8753 1246.36 16.971L1246.53 16.2413L1246.7 15.5116ZM1249.31 17.6819C1249.71 17.7801 1250.12 17.5334 1250.22 17.131C1250.32 16.7286 1250.07 16.3228 1249.67 16.2246L1249.49 16.9533L1249.31 17.6819ZM1254.53 17.4356C1254.13 17.3335 1253.72 17.5761 1253.62 17.9775C1253.51 18.3789 1253.76 18.7872 1254.16 18.8893L1254.34 18.1625L1254.53 17.4356ZM1257.02 19.6266C1257.42 19.7311 1257.83 19.491 1257.93 19.0902C1258.04 18.6894 1257.8 18.2797 1257.4 18.1752L1257.21 18.9009L1257.02 19.6266ZM1262.26 19.4698C1261.86 19.3612 1261.45 19.5971 1261.34 19.9968C1261.23 20.3965 1261.47 20.8086 1261.87 20.9173L1262.06 20.1936L1262.26 19.4698ZM1264.81 21.7275C1265.21 21.8387 1265.62 21.6054 1265.73 21.2064C1265.84 20.8074 1265.61 20.3938 1265.21 20.2826L1265.01 21.005L1264.81 21.7275ZM1270.04 21.6572C1269.65 21.5418 1269.23 21.7707 1269.12 22.1685C1269 22.5663 1269.23 22.9824 1269.63 23.0978L1269.84 22.3775L1270.04 21.6572ZM1272.47 23.9312C1272.86 24.0491 1273.28 23.8228 1273.4 23.4258C1273.52 23.0287 1273.29 22.6112 1272.89 22.4933L1272.68 23.2122L1272.47 23.9312ZM1277.69 23.9472C1277.3 23.825 1276.88 24.0468 1276.75 24.4426C1276.63 24.8383 1276.85 25.2582 1277.25 25.3805L1277.47 24.6639L1277.69 23.9472ZM1280.17 26.292C1280.56 26.4169 1280.98 26.198 1281.11 25.803C1281.23 25.4081 1281.01 24.9867 1280.62 24.8618L1280.39 25.5769L1280.17 26.292ZM1285.4 26.4022C1285.01 26.273 1284.58 26.4872 1284.45 26.8807C1284.32 27.2743 1284.54 27.6981 1284.93 27.8273L1285.16 27.1148L1285.4 26.4022ZM1287.73 28.7572C1288.12 28.8891 1288.55 28.6777 1288.68 28.285C1288.81 27.8924 1288.6 27.4671 1288.21 27.3352L1287.97 28.0462L1287.73 28.7572ZM1292.98 28.9703C1292.59 28.8339 1292.17 29.0404 1292.03 29.4315C1291.89 29.8226 1292.1 30.2502 1292.49 30.3866L1292.74 29.6785L1292.98 28.9703ZM1295.36 31.3996C1295.75 31.5387 1296.18 31.3353 1296.32 30.9451C1296.46 30.555 1296.26 30.1259 1295.87 29.9868L1295.61 30.6932L1295.36 31.3996ZM1300.56 31.6912C1300.17 31.5474 1299.74 31.7458 1299.59 32.1343C1299.45 32.5228 1299.65 32.9542 1300.04 33.098L1300.3 32.3946L1300.56 31.6912ZM1302.77 34.1219C1303.16 34.2684 1303.59 34.0731 1303.74 33.6856C1303.89 33.2982 1303.69 32.8653 1303.3 32.7188L1303.04 33.4204L1302.77 34.1219ZM1308.09 34.5638C1307.71 34.4125 1307.27 34.6024 1307.12 34.988C1306.97 35.3736 1307.16 35.8088 1307.55 35.9601L1307.82 35.262L1308.09 34.5638ZM1310.35 37.0708C1310.73 37.225 1311.17 37.0383 1311.32 36.6539C1311.47 36.2695 1311.29 35.8328 1310.9 35.6786L1310.62 36.3747L1310.35 37.0708ZM1315.46 37.5381C1315.08 37.3792 1314.64 37.5603 1314.48 37.9428C1314.32 38.3253 1314.5 38.7643 1314.88 38.9232L1315.17 38.2307L1315.46 37.5381ZM1317.71 40.1115C1318.09 40.2735 1318.53 40.0958 1318.69 39.7146C1318.85 39.3334 1318.68 38.893 1318.3 38.731L1318 39.4212L1317.71 40.1115ZM1322.94 40.7434C1322.57 40.5763 1322.12 40.7482 1321.96 41.1272C1321.79 41.5062 1321.96 41.9489 1322.34 42.116L1322.64 41.4297L1322.94 40.7434ZM1325.03 43.3138C1325.41 43.4839 1325.85 43.3157 1326.02 42.938C1326.19 42.5603 1326.02 42.1163 1325.64 41.9462L1325.34 42.63L1325.03 43.3138ZM1330.25 44.0608C1329.88 43.8855 1329.43 44.0475 1329.26 44.4228C1329.08 44.798 1329.24 45.2444 1329.62 45.4198L1329.94 44.7403L1330.25 44.0608ZM1332.35 46.7117C1332.73 46.8903 1333.17 46.7321 1333.35 46.3583C1333.53 45.9846 1333.37 45.5369 1333 45.3583L1332.68 46.035L1332.35 46.7117ZM1337.41 47.503C1337.04 47.3191 1336.59 47.4709 1336.4 47.842C1336.22 48.2132 1336.37 48.6631 1336.74 48.847L1337.07 48.175L1337.41 47.503ZM1339.52 50.241C1339.89 50.4284 1340.34 50.2808 1340.53 49.9113C1340.72 49.5419 1340.57 49.0906 1340.2 48.9032L1339.86 49.5721L1339.52 50.241ZM1344.64 51.1973C1344.27 51.0043 1343.82 51.1449 1343.63 51.5114C1343.43 51.8779 1343.57 52.3314 1343.94 52.5245L1344.29 51.8609L1344.64 51.1973ZM1346.56 53.9228C1346.93 54.1193 1347.38 53.983 1347.58 53.6184C1347.78 53.2538 1347.64 52.7989 1347.28 52.6023L1346.92 53.2625L1346.56 53.9228ZM1351.74 55.0564C1351.38 54.8537 1350.92 54.9822 1350.72 55.3435C1350.52 55.7047 1350.64 56.1619 1351.01 56.3645L1351.37 55.7105L1351.74 55.0564ZM1353.51 57.7883C1353.87 57.9947 1354.33 57.8707 1354.54 57.5116C1354.74 57.1524 1354.62 56.694 1354.26 56.4877L1353.89 57.138L1353.51 57.7883ZM1358.71 59.0971C1358.35 58.884 1357.89 58.9993 1357.68 59.3545C1357.46 59.7097 1357.58 60.1704 1357.94 60.3834L1358.32 59.7403L1358.71 59.0971ZM1360.4 61.8808C1360.75 62.0978 1361.21 61.9878 1361.43 61.635C1361.65 61.2822 1361.54 60.8202 1361.19 60.6032L1360.79 61.242L1360.4 61.8808ZM1365.52 63.3337C1365.17 63.1091 1364.71 63.2093 1364.48 63.5573C1364.26 63.9054 1364.36 64.3696 1364.71 64.5941L1365.11 63.9639L1365.52 63.3337ZM1367.22 66.2393C1367.57 66.4686 1368.03 66.3749 1368.26 66.03C1368.49 65.6851 1368.4 65.2195 1368.05 64.9902L1367.64 65.6147L1367.22 66.2393ZM1372.19 67.8175C1371.85 67.5793 1371.38 67.6609 1371.14 67.9997C1370.91 68.3386 1370.99 68.8064 1371.33 69.0446L1371.76 68.431L1372.19 67.8175ZM1373.76 70.7844C1374.09 71.0288 1374.56 70.9558 1374.8 70.6214C1375.05 70.287 1374.97 69.8178 1374.64 69.5734L1374.2 70.1789L1373.76 70.7844ZM1378.72 72.6822C1378.4 72.4229 1377.92 72.4745 1377.66 72.7975C1377.41 73.1205 1377.46 73.5925 1377.78 73.8519L1378.25 73.267L1378.72 72.6822ZM3.40949 495.006C3.87183 495.596 3.87183 495.596 3.87183 495.596C3.87183 495.596 3.87184 495.596 3.87184 495.596C3.87185 495.596 3.87186 495.596 3.87189 495.596C3.87193 495.596 3.87199 495.596 3.87208 495.596C3.87226 495.596 3.87254 495.596 3.87291 495.596C3.87366 495.595 3.87479 495.594 3.87631 495.593C3.87935 495.591 3.88394 495.587 3.89006 495.582C3.90232 495.573 3.92075 495.558 3.94532 495.539C3.99447 495.501 4.06821 495.443 4.16634 495.367C4.3626 495.214 4.65643 494.985 5.04627 494.683L4.58664 494.09L4.12701 493.497C3.73625 493.8 3.4415 494.03 3.24434 494.183C3.14576 494.26 3.07157 494.318 3.02197 494.357C2.99717 494.376 2.97852 494.391 2.96604 494.401C2.9598 494.405 2.95511 494.409 2.95196 494.412C2.95038 494.413 2.94919 494.414 2.94839 494.414C2.94799 494.415 2.94769 494.415 2.94748 494.415C2.94737 494.415 2.9473 494.415 2.94724 494.415C2.94721 494.415 2.94719 494.415 2.94718 494.415C2.94717 494.415 2.94716 494.415 2.94716 494.415C2.94715 494.415 2.94715 494.415 3.40949 495.006ZM8.45937 491.104L8.91592 491.699C9.5862 491.185 10.3217 490.622 11.1216 490.011L10.6663 489.415L10.211 488.819C9.41028 489.43 8.67391 489.994 8.00282 490.509L8.45937 491.104ZM14.7721 486.289L15.2255 486.886C15.9499 486.336 16.7077 485.762 17.4985 485.164L17.0461 484.566L16.5936 483.968C15.8021 484.566 15.0437 485.141 14.3187 485.691L14.7721 486.289ZM21.2758 481.375L21.7267 481.975C22.4524 481.429 23.1992 480.868 23.9669 480.292L23.5168 479.692L23.0667 479.092C22.2985 479.668 21.5512 480.23 20.8249 480.776L21.2758 481.375ZM27.4663 476.736L27.915 477.337C28.7381 476.722 29.5812 476.093 30.4442 475.451L29.9962 474.849L29.5482 474.247C28.6848 474.891 27.8411 475.52 27.0175 476.135L27.4663 476.736ZM33.938 471.919L34.3848 472.522C35.1542 471.951 35.9373 471.371 36.7339 470.782L36.2878 470.179L35.8417 469.576C35.0446 470.165 34.2611 470.746 33.4912 471.317L33.938 471.919ZM40.3843 467.154L40.8293 467.757C41.6708 467.137 42.5256 466.508 43.3937 465.87L42.9494 465.265L42.5052 464.661C41.6366 465.3 40.7813 465.929 39.9394 466.55L40.3843 467.154ZM46.8047 462.436L47.2479 463.041C48.0314 462.467 48.8247 461.887 49.6276 461.3L49.185 460.694L48.7424 460.089C47.939 460.676 47.1453 461.257 46.3615 461.831L46.8047 462.436ZM53.2818 457.705L53.7234 458.311C54.5586 457.703 55.4035 457.088 56.2579 456.467L55.817 455.86L55.376 455.254C54.5212 455.875 53.6759 456.49 52.8403 457.099L53.2818 457.705ZM59.782 452.984L60.2219 453.591C61.0044 453.024 61.7943 452.453 62.5915 451.876L62.1521 451.269L61.7128 450.661C60.9151 451.237 60.1249 451.809 59.342 452.376L59.782 452.984ZM66.2006 448.347L66.639 448.955C67.4607 448.363 68.2896 447.767 69.1258 447.166L68.688 446.557L68.2502 445.948C67.4136 446.549 66.5842 447.146 65.7621 447.738L66.2006 448.347ZM72.8764 443.55L73.3133 444.16C74.0892 443.604 74.8709 443.044 75.6585 442.481L75.2222 441.871L74.7858 441.261C73.9979 441.824 73.2158 442.384 72.4396 442.941L72.8764 443.55ZM79.2089 439.024L79.6443 439.634C80.4511 439.059 81.2636 438.48 82.0818 437.898L81.647 437.287L81.2121 436.676C80.3935 437.258 79.5806 437.838 78.7735 438.413L79.2089 439.024ZM85.7864 434.346L86.2204 434.958C87.0575 434.364 87.9003 433.766 88.7488 433.166L88.3154 432.554L87.882 431.941C87.0332 432.542 86.19 433.14 85.3525 433.734L85.7864 434.346ZM92.3582 429.696L92.7907 430.308C93.5834 429.749 94.3808 429.186 95.1828 428.621L94.7509 428.008L94.3189 427.395C93.5165 427.96 92.7188 428.523 91.9257 429.083L92.3582 429.696ZM98.8003 425.159L99.2314 425.773C100.049 425.199 100.871 424.622 101.697 424.043L101.267 423.429L100.836 422.814C100.009 423.394 99.1869 423.971 98.3692 424.546L98.8003 425.159ZM105.438 420.508L105.868 421.123C106.71 420.535 107.556 419.944 108.406 419.35L107.977 418.735L107.548 418.12C106.697 418.714 105.851 419.305 105.008 419.893L105.438 420.508ZM112.005 415.929L112.433 416.545C113.234 415.988 114.039 415.428 114.847 414.867L114.419 414.251L113.992 413.635C113.183 414.197 112.378 414.756 111.577 415.313L112.005 415.929ZM118.494 411.426L118.921 412.043C119.742 411.474 120.567 410.904 121.395 410.331L120.969 409.714L120.542 409.097C119.713 409.67 118.888 410.241 118.067 410.809L118.494 411.426ZM125.143 406.833L125.569 407.451C126.41 406.871 127.254 406.29 128.102 405.707L127.677 405.089L127.252 404.471C126.404 405.054 125.559 405.636 124.718 406.216L125.143 406.833ZM131.781 402.27L132.205 402.889C133.01 402.337 133.817 401.784 134.628 401.229L134.204 400.61L133.78 399.991C132.969 400.547 132.162 401.1 131.357 401.652L131.781 402.27ZM138.284 397.821L138.707 398.441C139.528 397.88 140.352 397.318 141.179 396.754L140.757 396.135L140.335 395.515C139.507 396.079 138.683 396.641 137.861 397.202L138.284 397.821ZM144.921 393.302L145.342 393.922C146.18 393.353 147.021 392.782 147.865 392.21L147.444 391.589L147.023 390.968C146.179 391.541 145.338 392.112 144.499 392.681L144.921 393.302ZM151.681 388.72L152.101 389.341C152.906 388.797 153.714 388.251 154.525 387.704L154.105 387.082L153.686 386.461C152.875 387.008 152.066 387.554 151.261 388.099L151.681 388.72ZM158.181 384.335L158.6 384.957C159.42 384.405 160.242 383.852 161.067 383.298L160.649 382.675L160.23 382.053C159.405 382.607 158.583 383.161 157.763 383.712L158.181 384.335ZM164.796 379.893L165.214 380.516C166.047 379.957 166.884 379.398 167.723 378.836L167.306 378.213L166.889 377.59C166.05 378.151 165.213 378.711 164.379 379.27L164.796 379.893ZM171.524 375.397L171.94 376.021C172.787 375.455 173.638 374.889 174.491 374.321L174.075 373.697L173.66 373.073C172.806 373.64 171.956 374.207 171.108 374.773L171.524 375.397ZM178.199 370.956L178.614 371.581C179.432 371.038 180.251 370.495 181.074 369.95L180.659 369.325L180.245 368.7C179.423 369.244 178.603 369.788 177.785 370.331L178.199 370.956ZM184.79 366.592L185.203 367.218C186.033 366.67 186.865 366.121 187.699 365.571L187.286 364.945L186.873 364.319C186.039 364.869 185.206 365.418 184.376 365.967L184.79 366.592ZM191.477 362.185L191.889 362.812C192.731 362.259 193.575 361.704 194.421 361.149L194.01 360.522L193.598 359.895C192.752 360.45 191.907 361.005 191.065 361.559L191.477 362.185ZM198.26 357.736L198.671 358.364C199.515 357.811 200.362 357.258 201.21 356.704L200.8 356.076L200.39 355.448C199.541 356.002 198.694 356.556 197.85 357.109L198.26 357.736ZM204.915 353.392L205.324 354.02C206.15 353.482 206.978 352.944 207.809 352.404L207.4 351.775L206.991 351.146C206.161 351.686 205.332 352.225 204.506 352.763L204.915 353.392ZM211.567 349.07L211.975 349.699C212.812 349.157 213.651 348.613 214.491 348.07L214.084 347.44L213.676 346.81C212.835 347.354 211.996 347.898 211.159 348.44L211.567 349.07ZM218.303 344.714L218.71 345.344C219.557 344.797 220.406 344.25 221.257 343.702L220.851 343.072L220.445 342.441C219.593 342.989 218.744 343.537 217.897 344.083L218.303 344.714ZM225.122 340.325L225.527 340.957C226.369 340.416 227.213 339.874 228.059 339.332L227.654 338.701L227.25 338.07C226.403 338.612 225.559 339.153 224.717 339.694L225.122 340.325ZM231.803 336.046L232.207 336.678C233.039 336.146 233.873 335.614 234.709 335.081L234.306 334.448L233.903 333.816C233.066 334.349 232.232 334.882 231.399 335.414L231.803 336.046ZM238.501 331.777L238.903 332.41C239.745 331.874 240.588 331.339 241.433 330.802L241.031 330.169L240.629 329.536C239.784 330.073 238.94 330.608 238.098 331.144L238.501 331.777ZM245.271 327.482L245.672 328.116C246.523 327.577 247.375 327.038 248.229 326.499L247.828 325.865L247.428 325.231C246.574 325.77 245.721 326.31 244.87 326.848L245.271 327.482ZM252.113 323.163L252.513 323.797C253.366 323.26 254.221 322.722 255.077 322.184L254.678 321.549L254.279 320.914C253.422 321.452 252.567 321.991 251.713 322.528L252.113 323.163ZM258.854 318.928L259.252 319.564C260.09 319.039 260.929 318.514 261.769 317.988L261.371 317.352L260.974 316.716C260.133 317.242 259.293 317.768 258.456 318.293L258.854 318.928ZM265.587 314.719L265.984 315.356C266.83 314.829 267.677 314.301 268.525 313.773L268.129 313.136L267.732 312.499C266.884 313.028 266.036 313.556 265.19 314.083L265.587 314.719ZM272.384 310.491L272.78 311.129C273.633 310.599 274.488 310.069 275.344 309.539L274.949 308.901L274.555 308.264C273.698 308.794 272.843 309.324 271.989 309.854L272.384 310.491ZM279.244 306.246L279.638 306.884C280.499 306.353 281.362 305.82 282.226 305.288L281.833 304.65L281.439 304.011C280.575 304.544 279.712 305.076 278.85 305.608L279.244 306.246ZM286.065 302.046L286.458 302.685C287.3 302.168 288.143 301.65 288.987 301.133L288.595 300.493L288.203 299.854C287.359 300.372 286.515 300.889 285.673 301.406L286.065 302.046ZM292.829 297.902L293.221 298.541C294.069 298.023 294.92 297.504 295.771 296.984L295.38 296.344L294.99 295.704C294.138 296.223 293.288 296.743 292.438 297.262L292.829 297.902ZM299.65 293.744L300.039 294.385C300.895 293.865 301.752 293.344 302.611 292.823L302.222 292.182L301.832 291.541C300.974 292.062 300.116 292.583 299.26 293.103L299.65 293.744ZM306.525 289.575L306.913 290.217C307.776 289.695 308.64 289.173 309.505 288.65L309.118 288.008L308.73 287.366C307.864 287.889 307 288.411 306.137 288.933L306.525 289.575ZM313.438 285.405L313.824 286.047C314.67 285.539 315.517 285.029 316.365 284.52L315.979 283.877L315.593 283.234C314.745 283.744 313.897 284.253 313.051 284.762L313.438 285.405ZM320.231 281.328L320.616 281.972C321.468 281.462 322.321 280.952 323.175 280.442L322.791 279.798L322.406 279.154C321.551 279.664 320.698 280.175 319.845 280.685L320.231 281.328ZM327.073 277.244L327.457 277.888C328.315 277.377 329.174 276.866 330.035 276.355L329.652 275.71L329.269 275.065C328.408 275.577 327.548 276.088 326.69 276.599L327.073 277.244ZM333.965 273.152L334.347 273.797C335.211 273.285 336.077 272.773 336.943 272.261L336.562 271.616L336.18 270.97C335.313 271.482 334.447 271.994 333.583 272.506L333.965 273.152ZM340.905 269.053L341.286 269.699C342.156 269.187 343.027 268.674 343.9 268.161L343.52 267.515L343.14 266.868C342.267 267.381 341.395 267.894 340.524 268.407L340.905 269.053ZM347.793 265.007L348.172 265.655C349.028 265.154 349.884 264.652 350.742 264.151L350.363 263.504L349.985 262.856C349.127 263.358 348.27 263.859 347.414 264.36L347.793 265.007ZM354.66 260.997L355.037 261.645C355.898 261.143 356.76 260.642 357.623 260.14L357.246 259.492L356.869 258.843C356.006 259.345 355.143 259.847 354.282 260.349L354.66 260.997ZM361.57 256.983L361.946 257.632C362.812 257.13 363.679 256.628 364.547 256.126L364.172 255.477L363.797 254.827C362.928 255.329 362.06 255.832 361.194 256.334L361.57 256.983ZM368.523 252.966L368.897 253.616C369.769 253.114 370.641 252.612 371.515 252.11L371.141 251.46L370.767 250.809C369.893 251.312 369.02 251.814 368.148 252.316L368.523 252.966ZM375.518 248.948L375.891 249.599C376.75 249.107 377.61 248.615 378.472 248.123L378.099 247.472L377.727 246.82C376.866 247.313 376.005 247.805 375.145 248.298L375.518 248.948ZM382.412 245.012L382.783 245.663C383.647 245.171 384.512 244.68 385.377 244.188L385.007 243.536L384.636 242.883C383.77 243.376 382.905 243.868 382.041 244.36L382.412 245.012ZM389.344 241.076L389.713 241.729C390.582 241.237 391.451 240.745 392.322 240.253L391.953 239.6L391.584 238.947C390.713 239.439 389.843 239.931 388.974 240.423L389.344 241.076ZM396.314 237.142L396.682 237.795C397.555 237.304 398.429 236.812 399.305 236.321L398.937 235.667L398.57 235.013C397.695 235.504 396.82 235.996 395.946 236.488L396.314 237.142ZM403.322 233.209L403.688 233.864C404.566 233.373 405.445 232.882 406.325 232.391L405.959 231.736L405.594 231.081C404.713 231.572 403.834 232.063 402.955 232.555L403.322 233.209ZM410.331 229.3L410.695 229.956C411.563 229.473 412.431 228.991 413.3 228.509L412.936 227.853L412.572 227.198C411.703 227.68 410.834 228.162 409.966 228.645L410.331 229.3ZM417.288 225.443L417.651 226.1C418.523 225.618 419.395 225.136 420.269 224.655L419.906 223.998L419.544 223.341C418.671 223.823 417.798 224.305 416.926 224.787L417.288 225.443ZM424.281 221.591L424.642 222.248C425.517 221.767 426.394 221.286 427.272 220.805L426.911 220.148L426.551 219.49C425.673 219.971 424.796 220.452 423.919 220.934L424.281 221.591ZM431.306 217.744L431.666 218.402C432.546 217.922 433.426 217.442 434.308 216.962L433.949 216.303L433.591 215.645C432.709 216.125 431.827 216.605 430.947 217.086L431.306 217.744ZM438.365 213.904L438.723 214.563C439.607 214.084 440.492 213.604 441.377 213.125L441.02 212.465L440.663 211.806C439.777 212.285 438.892 212.765 438.007 213.244L438.365 213.904ZM445.404 210.099L445.76 210.759C446.635 210.287 447.511 209.816 448.388 209.344L448.033 208.684L447.677 208.023C446.8 208.495 445.924 208.966 445.048 209.438L445.404 210.099ZM452.423 206.329L452.777 206.99C453.656 206.519 454.536 206.049 455.417 205.579L455.063 204.917L454.71 204.255C453.829 204.726 452.949 205.196 452.069 205.667L452.423 206.329ZM459.473 202.567L459.825 203.229C460.708 202.76 461.591 202.291 462.475 201.822L462.124 201.159L461.772 200.496C460.888 200.966 460.004 201.435 459.12 201.905L459.473 202.567ZM466.551 198.815L466.902 199.478C467.788 199.01 468.675 198.542 469.563 198.074L469.213 197.411L468.864 196.747C467.976 197.215 467.088 197.683 466.201 198.152L466.551 198.815ZM473.659 195.073L474.008 195.737C474.897 195.271 475.787 194.805 476.677 194.339L476.329 193.674L475.982 193.01C475.091 193.476 474.2 193.942 473.311 194.409L473.659 195.073ZM480.74 191.371L481.087 192.036C481.97 191.576 482.853 191.116 483.738 190.657L483.392 189.991L483.046 189.326C482.161 189.786 481.277 190.246 480.394 190.706L480.74 191.371ZM487.819 187.695L488.164 188.361C489.05 187.903 489.937 187.445 490.825 186.987L490.481 186.32L490.137 185.654C489.249 186.112 488.361 186.57 487.475 187.029L487.819 187.695ZM494.925 184.032L495.267 184.699C496.157 184.242 497.047 183.785 497.938 183.329L497.596 182.662L497.254 181.994C496.363 182.451 495.472 182.908 494.582 183.365L494.925 184.032ZM502.056 180.382L502.396 181.05C503.289 180.595 504.182 180.14 505.076 179.685L504.736 179.016L504.396 178.348C503.502 178.803 502.608 179.258 501.715 179.714L502.056 180.382ZM509.212 176.745L509.55 177.415C510.444 176.962 511.337 176.51 512.232 176.059L511.894 175.389L511.556 174.72C510.661 175.172 509.767 175.624 508.873 176.076L509.212 176.745ZM516.343 173.148L516.68 173.818C517.571 173.371 518.462 172.923 519.354 172.477L519.018 171.806L518.682 171.136C517.789 171.583 516.898 172.03 516.007 172.478L516.343 173.148ZM523.482 169.574L523.817 170.245C524.71 169.8 525.604 169.355 526.499 168.91L526.165 168.238L525.831 167.567C524.936 168.012 524.041 168.457 523.147 168.903L523.482 169.574ZM530.643 166.016L530.976 166.689C531.872 166.245 532.769 165.802 533.666 165.359L533.334 164.686L533.002 164.014C532.104 164.457 531.207 164.9 530.31 165.344L530.643 166.016ZM537.826 162.475L538.157 163.148C539.056 162.707 539.955 162.266 540.855 161.825L540.525 161.152L540.196 160.478C539.295 160.919 538.395 161.36 537.496 161.802L537.826 162.475ZM545.031 158.951L545.359 159.625C546.259 159.187 547.158 158.75 548.058 158.313L547.731 157.638L547.403 156.963C546.502 157.401 545.602 157.839 544.703 158.277L545.031 158.951ZM552.219 155.464L552.545 156.139C553.444 155.705 554.342 155.271 555.242 154.838L554.916 154.162L554.591 153.487C553.691 153.92 552.792 154.354 551.893 154.788L552.219 155.464ZM559.417 151.999L559.741 152.676C560.642 152.244 561.543 151.813 562.445 151.382L562.122 150.705L561.798 150.029C560.896 150.46 559.994 150.891 559.093 151.323L559.417 151.999ZM566.635 148.555L566.957 149.232C567.86 148.803 568.763 148.374 569.667 147.946L569.346 147.268L569.025 146.59C568.121 147.019 567.216 147.448 566.313 147.877L566.635 148.555ZM573.871 145.13L574.191 145.809C575.096 145.382 576.002 144.956 576.908 144.53L576.59 143.851L576.271 143.172C575.364 143.598 574.458 144.025 573.552 144.452L573.871 145.13ZM581.126 141.726L581.443 142.406C582.349 141.983 583.256 141.56 584.162 141.138L583.846 140.458L583.529 139.778C582.622 140.2 581.715 140.623 580.808 141.047L581.126 141.726ZM588.374 138.355L588.689 139.036C589.595 138.616 590.502 138.197 591.408 137.779L591.094 137.098L590.78 136.417C589.873 136.836 588.965 137.255 588.059 137.675L588.374 138.355ZM595.633 135.009L595.946 135.691C596.854 135.274 597.762 134.858 598.671 134.442L598.359 133.76L598.047 133.078C597.138 133.494 596.229 133.911 595.32 134.328L595.633 135.009ZM602.908 131.686L603.218 132.369C604.129 131.955 605.039 131.542 605.95 131.129L605.64 130.446L605.331 129.763C604.419 130.176 603.508 130.589 602.598 131.003L602.908 131.686ZM610.199 128.387L610.507 129.07C611.419 128.66 612.331 128.249 613.244 127.84L612.937 127.156L612.63 126.471C611.717 126.881 610.804 127.292 609.891 127.703L610.199 128.387ZM617.505 125.111L617.811 125.796C618.724 125.389 619.637 124.982 620.551 124.576L620.247 123.891L619.942 123.205C619.027 123.612 618.113 124.019 617.2 124.426L617.505 125.111ZM624.815 121.866L625.118 122.552C626.032 122.148 626.947 121.745 627.861 121.342L627.559 120.656L627.257 119.97C626.342 120.372 625.427 120.776 624.512 121.18L624.815 121.866ZM632.136 118.647L632.437 119.335C633.352 118.934 634.268 118.534 635.185 118.135L634.885 117.447L634.586 116.76C633.669 117.159 632.752 117.56 631.836 117.96L632.136 118.647ZM639.471 115.455L639.769 116.144C640.686 115.746 641.604 115.35 642.521 114.954L642.224 114.265L641.927 113.577C641.009 113.973 640.091 114.37 639.173 114.767L639.471 115.455ZM646.818 112.29L647.113 112.98C648.032 112.586 648.951 112.193 649.871 111.8L649.576 111.111L649.282 110.421C648.362 110.814 647.442 111.207 646.523 111.601L646.818 112.29ZM654.177 109.153L654.47 109.844C655.391 109.453 656.311 109.064 657.232 108.675L656.941 107.984L656.649 107.293C655.727 107.682 654.806 108.072 653.885 108.463L654.177 109.153ZM661.551 106.044L661.841 106.735C662.763 106.349 663.685 105.963 664.608 105.577L664.319 104.885L664.03 104.193C663.106 104.579 662.183 104.965 661.261 105.352L661.551 106.044ZM668.935 102.963L669.223 103.656C670.146 103.273 671.07 102.891 671.994 102.509L671.708 101.816L671.421 101.123C670.497 101.505 669.572 101.887 668.648 102.271L668.935 102.963ZM676.331 99.9131L676.615 100.607C677.54 100.228 678.465 99.8492 679.39 99.4714L679.107 98.7771L678.823 98.0827C677.897 98.4608 676.972 98.8396 676.046 99.2192L676.331 99.9131ZM683.736 96.8934L684.018 97.5885C684.944 97.2131 685.87 96.8385 686.796 96.4647L686.516 95.7692L686.235 95.0737C685.308 95.4478 684.381 95.8227 683.454 96.1984L683.736 96.8934ZM691.151 93.9053L691.43 94.6015C692.357 94.2298 693.285 93.8589 694.214 93.4887L693.936 92.7921L693.658 92.0954C692.729 92.4659 691.8 92.8371 690.872 93.2091L691.151 93.9053ZM698.588 90.9438L698.864 91.6412C699.795 91.2729 700.725 90.9055 701.656 90.5388L701.381 89.841L701.106 89.1432C700.175 89.5102 699.243 89.8779 698.312 90.2464L698.588 90.9438ZM706.039 88.0135L706.312 88.712C707.243 88.348 708.175 87.9848 709.106 87.6223L708.834 86.9233L708.562 86.2244C707.63 86.5871 706.698 86.9506 705.766 87.3149L706.039 88.0135ZM713.496 85.117L713.766 85.8168C714.699 85.457 715.631 85.098 716.564 84.7399L716.295 84.0397L716.026 83.3396C715.093 83.698 714.159 84.0573 713.226 84.4173L713.496 85.117ZM720.961 82.2551L721.228 82.956C722.162 82.6006 723.095 82.246 724.028 81.8923L723.763 81.191L723.497 80.4896C722.563 80.8437 721.628 81.1985 720.694 81.5542L720.961 82.2551ZM728.433 79.4285L728.697 80.1306C729.632 79.7791 730.567 79.4285 731.503 79.0788L731.24 78.3762L730.978 77.6737C730.041 78.0238 729.105 78.3747 728.169 78.7264L728.433 79.4285ZM735.936 76.6284L736.196 77.3317C737.135 76.9837 738.074 76.6366 739.013 76.2903L738.754 75.5866L738.495 74.8829C737.555 75.2295 736.615 75.5769 735.675 75.9251L735.936 76.6284ZM743.453 73.862L743.71 74.5665C744.65 74.2232 745.589 73.8808 746.529 73.5393L746.273 72.8344L746.017 72.1295C745.076 72.4713 744.136 72.814 743.196 73.1576L743.453 73.862ZM750.975 71.1335L751.229 71.8391C752.169 71.5006 753.109 71.163 754.049 70.8263L753.797 70.1202L753.544 69.4141C752.603 69.7511 751.662 70.089 750.721 70.4278L750.975 71.1335ZM758.501 68.4436L758.751 69.1504C759.692 68.8168 760.633 68.484 761.573 68.1522L761.324 67.4449L761.074 66.7376C760.133 67.0697 759.191 67.4028 758.25 67.7367L758.501 68.4436ZM766.03 65.7929L766.278 66.501C767.221 66.1715 768.164 65.8429 769.107 65.5154L768.861 64.8069L768.615 64.0984C767.671 64.4263 766.727 64.7551 765.783 65.0849L766.03 65.7929ZM773.601 63.1693L773.845 63.8785C774.792 63.5528 775.74 63.228 776.687 62.9042L776.445 62.1944L776.202 61.4847C775.254 61.8089 774.305 62.1339 773.357 62.46L773.601 63.1693ZM781.185 60.5828L781.426 61.2932C782.374 60.9727 783.321 60.6531 784.269 60.3346L784.03 59.6237L783.791 58.9127C782.843 59.2316 781.894 59.5515 780.945 59.8723L781.185 60.5828ZM788.772 58.0384L789.009 58.7501C789.957 58.4349 790.905 58.1206 791.853 57.8074L791.617 57.0953L791.382 56.3831C790.433 56.6967 789.484 57.0112 788.535 57.3267L788.772 58.0384ZM796.36 55.5369L796.593 56.2498C797.541 55.9399 798.489 55.6311 799.437 55.3233L799.205 54.61L798.974 53.8966C798.025 54.2047 797.076 54.5138 796.127 54.824L796.36 55.5369ZM803.948 53.0789L804.177 53.7931C804.651 53.6408 805.126 53.4888 805.6 53.3371L805.371 52.6228L805.143 51.9084C804.668 52.0603 804.193 52.2124 803.719 52.3648L803.948 53.0789ZM805.371 52.6228L805.6 53.3371C806.088 53.1809 806.576 53.0251 807.064 52.8698L806.836 52.1552L806.608 51.4406C806.12 51.5961 805.632 51.7521 805.143 51.9084L805.371 52.6228ZM811.703 50.6144L811.928 51.3299C812.898 51.0246 813.868 50.721 814.836 50.4191L814.612 49.7031L814.389 48.9871C813.42 49.2894 812.449 49.5934 811.478 49.899L811.703 50.6144ZM819.443 48.206L819.664 48.9228C820.627 48.6262 821.589 48.3313 822.55 48.038L822.331 47.3207L822.112 46.6034C821.15 46.897 820.187 47.1923 819.222 47.4892L819.443 48.206ZM827.126 45.8667L827.342 46.5849C828.298 46.2969 829.253 46.0106 830.207 45.7258L829.992 45.0072L829.778 44.2886C828.823 44.5736 827.867 44.8603 826.91 45.1486L827.126 45.8667ZM834.751 43.596L834.963 44.3154C835.912 44.036 836.86 43.7582 837.806 43.4819L837.596 42.762L837.386 42.042C836.438 42.3186 835.49 42.5968 834.539 42.8765L834.751 43.596ZM842.322 41.3923L842.529 42.1131C843.515 41.8296 844.498 41.5478 845.481 41.2678L845.275 40.5465L845.069 39.8253C844.086 40.1057 843.101 40.3878 842.114 40.6716L842.322 41.3923ZM850.177 39.1597L850.38 39.8818C851.358 39.6074 852.334 39.3348 853.308 39.0638L853.107 38.3412L852.906 37.6186C851.931 37.8899 850.953 38.1629 849.975 38.4376L850.177 39.1597ZM857.97 36.9997L858.168 37.7231C859.138 37.4578 860.106 37.1941 861.073 36.9321L860.877 36.2082L860.681 35.4844C859.713 35.7466 858.743 36.0106 857.773 36.2763L857.97 36.9997ZM865.701 34.9115L865.894 35.6362C866.856 35.3798 867.816 35.125 868.775 34.8719L868.584 34.1468L868.393 33.4216C867.432 33.675 866.471 33.9301 865.508 34.1868L865.701 34.9115ZM873.369 32.8943L873.558 33.6203C874.512 33.3727 875.464 33.1267 876.415 32.8824L876.229 32.156L876.042 31.4296C875.09 31.6742 874.136 31.9205 873.181 32.1684L873.369 32.8943ZM881.121 30.9106L881.304 31.6378C882.294 31.388 883.283 31.14 884.27 30.8938L884.088 30.1661L883.906 29.4384C882.918 29.685 881.929 29.9333 880.937 30.1834L881.121 30.9106ZM889.012 28.9489L889.191 29.6774C890.172 29.437 891.152 29.1984 892.13 28.9616L891.954 28.2327L891.777 27.5037C890.798 27.7409 889.817 27.9798 888.834 28.2204L889.012 28.9489ZM896.836 27.0622L897.009 27.792C897.982 27.5609 898.953 27.3316 899.923 27.1041L899.752 26.3739L899.581 25.6437C898.609 25.8716 897.637 26.1012 896.662 26.3325L896.836 27.0622ZM904.591 25.2497L904.759 25.9806C905.724 25.7588 906.687 25.5387 907.648 25.3203L907.482 24.5889L907.316 23.8576C906.353 24.0763 905.389 24.2967 904.423 24.5188L904.591 25.2497ZM912.288 23.5084L912.451 24.2405C913.452 24.0179 914.451 23.7971 915.448 23.5781L915.287 22.8455L915.126 22.113C914.128 22.3322 913.127 22.5534 912.125 22.7764L912.288 23.5084ZM920.263 21.7652L920.42 22.4985C921.412 22.2857 922.402 22.0747 923.39 21.8655L923.235 21.1317L923.079 20.398C922.09 20.6075 921.098 20.8188 920.106 21.032L920.263 21.7652ZM928.164 20.1002L928.316 20.8346C929.298 20.6315 930.279 20.4301 931.258 20.2306L931.108 19.4957L930.958 18.7608C929.978 18.9606 928.996 19.1623 928.012 19.3657L928.164 20.1002ZM935.991 18.5122L936.138 19.2477C937.111 19.0542 938.082 18.8623 939.052 18.6723L938.908 17.9363L938.763 17.2003C937.792 17.3906 936.82 17.5827 935.845 17.7766L935.991 18.5122ZM943.745 17.0002L943.886 17.7368C944.875 17.5479 945.862 17.3608 946.847 17.1756L946.708 16.4385L946.57 15.7014C945.583 15.8869 944.595 16.0743 943.604 16.2635L943.745 17.0002ZM951.725 15.5083L951.86 16.2461C952.859 16.0634 953.856 15.8825 954.852 15.7036L954.719 14.9654L954.587 14.2272C953.59 14.4065 952.591 14.5876 951.59 14.7706L951.725 15.5083ZM959.685 14.0857L959.814 14.8245C960.804 14.6518 961.791 14.481 962.777 14.312L962.65 13.5728L962.523 12.8336C961.536 13.0028 960.547 13.1739 959.556 13.3469L959.685 14.0857ZM967.566 12.7428L967.689 13.4826C968.668 13.3198 969.645 13.1589 970.621 12.9997L970.5 12.2595L970.379 11.5193C969.402 11.6787 968.423 11.8399 967.443 12.003L967.566 12.7428ZM975.366 11.4784L975.483 12.2193C976.477 12.0623 977.469 11.9072 978.459 11.7541L978.344 11.0129L978.229 10.2717C977.238 10.4251 976.244 10.5804 975.249 10.7376L975.366 11.4784ZM983.388 10.2463L983.498 10.9881C984.503 10.8382 985.505 10.6902 986.505 10.5442L986.397 9.80209L986.289 9.05995C985.287 9.20621 984.283 9.3544 983.277 9.50456L983.388 10.2463ZM991.386 9.08755L991.49 9.83025C992.484 9.69067 993.475 9.55301 994.465 9.41726L994.363 8.67423L994.261 7.93119C993.27 8.06715 992.277 8.20503 991.281 8.34484L991.386 9.08755ZM999.297 8.0108L999.395 8.75437C1000.38 8.62495 1001.36 8.49742 1002.34 8.37177L1002.24 7.62788L1002.15 6.88399C1001.17 7.00985 1000.18 7.13759 999.199 7.26722L999.297 8.0108ZM1007.12 7.01454L1007.21 7.75894C1008.23 7.63378 1009.25 7.51066 1010.26 7.38956L1010.17 6.64485L1010.08 5.90015C1009.07 6.02145 1008.05 6.14478 1007.03 6.27015L1007.12 7.01454ZM1015.23 6.05567L1015.31 6.80087C1016.32 6.68648 1017.32 6.57409 1018.32 6.46368L1018.24 5.71819L1018.16 4.97271C1017.16 5.0833 1016.15 5.19588 1015.14 5.31046L1015.23 6.05567ZM1023.24 5.1822L1023.32 5.92815C1024.31 5.82433 1025.3 5.72247 1026.29 5.62255L1026.22 4.87635L1026.14 4.13014C1025.15 4.23022 1024.16 4.33225 1023.16 4.43626L1023.24 5.1822ZM1031.15 4.39254L1031.22 5.13917C1032.21 5.04572 1033.19 4.95419 1034.16 4.86457L1034.1 4.1177L1034.03 3.37082C1033.05 3.4606 1032.07 3.55229 1031.08 3.64591L1031.15 4.39254ZM1039.11 3.6736L1039.17 4.42086C1040.19 4.33372 1041.2 4.24864 1042.22 4.16563L1042.15 3.41814L1042.09 2.67064C1041.08 2.75381 1040.06 2.83903 1039.04 2.92633L1039.11 3.6736ZM1047.2 3.01977L1047.26 3.76762C1048.26 3.69142 1049.26 3.61725 1050.26 3.54509L1050.21 2.79703L1050.16 2.04898C1049.16 2.12127 1048.15 2.19558 1047.14 2.27192L1047.2 3.01977ZM1055.19 2.45263L1055.24 3.201C1056.23 3.13551 1057.22 3.07201 1058.21 3.01048L1058.16 2.26193L1058.12 1.51338C1057.13 1.57503 1056.14 1.63865 1055.14 1.70426L1055.19 2.45263ZM1063.08 1.97033L1063.12 2.71915C1064.13 2.66233 1065.14 2.60759 1066.15 2.5549L1066.11 1.80593L1066.07 1.05695C1065.06 1.10974 1064.05 1.16459 1063.04 1.22152L1063.08 1.97033ZM1071.2 1.55567L1071.23 2.30488C1072.24 2.25838 1073.25 2.21396 1074.26 2.17162L1074.23 1.42228L1074.2 0.672941C1073.19 0.715369 1072.18 0.759871 1071.16 0.806464L1071.2 1.55567ZM1079.25 1.22752L1079.27 1.97704C1080.27 1.94154 1081.27 1.90808 1082.26 1.87664L1082.24 1.12701L1082.21 0.37739C1081.22 0.408894 1080.22 0.442421 1079.22 0.477991L1079.25 1.22752ZM1087.19 0.9864L1087.2 1.73616C1088.19 1.7114 1089.17 1.68862 1090.15 1.66781L1090.13 0.917983L1090.12 0.168153C1089.14 0.189002 1088.15 0.211824 1087.17 0.236637L1087.19 0.9864ZM1095.23 0.827022L1095.24 1.57694C1096.25 1.56224 1097.27 1.54966 1098.28 1.5392L1098.27 0.789243L1098.27 0.0392832C1097.25 0.0497655 1096.23 0.0623639 1095.22 0.0771L1095.23 0.827022ZM1103.31 0.7544L1103.32 1.5044C1104.32 1.50091 1105.32 1.49951 1106.32 1.50015L1106.32 0.750153L1106.32 0.000153005C1105.32 -0.000495136 1104.32 0.000914633 1103.31 0.00440407L1103.31 0.7544ZM1111.28 0.77042L1111.27 1.5204C1112.26 1.52783 1113.24 1.53728 1114.23 1.54872L1114.23 0.798775L1114.24 0.0488262C1113.26 0.0373577 1112.27 0.027889 1111.29 0.0204418L1111.28 0.77042ZM1119.28 0.875545L1119.26 1.62541C1120.28 1.64458 1121.3 1.66591 1122.32 1.68938L1122.33 0.939581L1122.35 0.189782C1121.33 0.166265 1120.31 0.144888 1119.29 0.125677L1119.28 0.875545ZM1127.38 1.07474L1127.36 1.8244C1128.36 1.85491 1129.36 1.88752 1130.36 1.9222L1130.38 1.17265L1130.41 0.423105C1129.41 0.388351 1128.41 0.355671 1127.4 0.325089L1127.38 1.07474ZM1135.35 1.36337L1135.32 2.11271C1136.3 2.15421 1137.29 2.19773 1138.27 2.24326L1138.3 1.49407L1138.33 0.744879C1137.35 0.699249 1136.37 0.655625 1135.38 0.614032L1135.35 1.36337ZM1143.34 1.74703L1143.3 2.49594C1144.31 2.55098 1145.33 2.60818 1146.34 2.66752L1146.39 1.91881L1146.43 1.1701C1145.42 1.11062 1144.4 1.05329 1143.38 0.998123L1143.34 1.74703ZM1151.42 2.23353L1151.37 2.98188C1152.37 3.04826 1153.37 3.11672 1154.36 3.18724L1154.42 2.43912L1154.47 1.691C1153.47 1.62032 1152.47 1.5517 1151.47 1.48517L1151.42 2.23353ZM1159.36 2.80914L1159.3 3.55683C1160.28 3.63412 1161.26 3.71342 1162.24 3.79469L1162.3 3.04729L1162.36 2.29988C1161.38 2.21841 1160.4 2.13893 1159.42 2.06145L1159.36 2.80914ZM1167.37 3.49038L1167.3 4.23726C1168.31 4.32999 1169.32 4.42485 1170.33 4.52182L1170.4 3.77528L1170.47 3.02875C1169.46 2.93154 1168.45 2.83645 1167.43 2.7435L1167.37 3.49038ZM1175.4 4.27809L1175.32 5.02402C1176.32 5.1279 1177.31 5.23382 1178.29 5.34175L1178.37 4.59621L1178.46 3.85067C1177.47 3.74247 1176.48 3.63629 1175.48 3.53216L1175.4 4.27809ZM1183.27 5.15315L1183.19 5.89801C1184.19 6.01573 1185.18 6.13553 1186.17 6.25735L1186.27 5.51294L1186.36 4.76854C1185.36 4.64641 1184.36 4.52632 1183.36 4.4083L1183.27 5.15315ZM1191.32 6.15607L1191.22 6.89966C1192.23 7.0316 1193.23 7.16561 1194.22 7.30164L1194.32 6.55855L1194.42 5.81547C1193.43 5.6791 1192.43 5.54475 1191.42 5.41247L1191.32 6.15607ZM1199.27 7.25628L1199.16 7.99846C1200.14 8.14112 1201.11 8.28574 1202.09 8.43228L1202.2 7.69066L1202.31 6.94904C1201.34 6.80212 1200.36 6.65712 1199.37 6.51409L1199.27 7.25628ZM1207.13 8.45669L1207.02 9.1973C1208.03 9.35882 1209.03 9.52241 1210.03 9.688L1210.16 8.94804L1210.28 8.20808C1209.27 8.04204 1208.27 7.87803 1207.25 7.71608L1207.13 8.45669ZM1215.13 9.79372L1215.01 10.5326C1215.99 10.7047 1216.97 10.8788 1217.95 11.0548L1218.08 10.3167L1218.22 9.5786C1217.24 9.40213 1216.25 9.22754 1215.26 9.0549L1215.13 9.79372ZM1222.94 11.2135L1222.8 11.9504C1223.78 12.1375 1224.77 12.3266 1225.74 12.5175L1225.89 11.7814L1226.03 11.0453C1225.05 10.8539 1224.07 10.6643 1223.08 10.4766L1222.94 11.2135ZM1230.89 12.7822L1230.74 13.5169C1231.73 13.72 1232.71 13.9249 1233.69 14.1316L1233.85 13.3978L1234 12.664C1233.02 12.4566 1232.03 12.2511 1231.04 12.0475L1230.89 12.7822ZM1238.71 14.448L1238.55 15.1803C1239.51 15.393 1240.46 15.6074 1241.42 15.8235L1241.58 15.0921L1241.75 14.3607C1240.79 14.144 1239.83 13.929 1238.87 13.7157L1238.71 14.448ZM1246.53 16.2413L1246.36 16.971C1247.35 17.2063 1248.33 17.4433 1249.31 17.6819L1249.49 16.9533L1249.67 16.2246C1248.69 15.9852 1247.7 15.7475 1246.7 15.5116L1246.53 16.2413ZM1254.34 18.1625L1254.16 18.8893C1255.12 19.1335 1256.07 19.3793 1257.02 19.6266L1257.21 18.9009L1257.4 18.1752C1256.45 17.9271 1255.49 17.6806 1254.53 17.4356L1254.34 18.1625ZM1262.06 20.1936L1261.87 20.9173C1262.85 21.1858 1263.83 21.4559 1264.81 21.7275L1265.01 21.005L1265.21 20.2826C1264.23 20.0101 1263.25 19.7392 1262.26 19.4698L1262.06 20.1936ZM1269.84 22.3775L1269.63 23.0978C1270.58 23.3743 1271.53 23.6521 1272.47 23.9312L1272.68 23.2122L1272.89 22.4933C1271.95 22.2133 1271 21.9345 1270.04 21.6572L1269.84 22.3775ZM1277.47 24.6639L1277.25 25.3805C1278.23 25.683 1279.2 25.9869 1280.17 26.292L1280.39 25.5769L1280.62 24.8618C1279.65 24.5557 1278.68 24.2508 1277.69 23.9472L1277.47 24.6639ZM1285.16 27.1148L1284.93 27.8273C1285.87 28.1363 1286.8 28.4462 1287.73 28.7572L1287.97 28.0462L1288.21 27.3352C1287.28 27.0232 1286.34 26.7122 1285.4 26.4022L1285.16 27.1148ZM1292.74 29.6785L1292.49 30.3866C1293.46 30.7234 1294.41 31.0611 1295.36 31.3996L1295.61 30.6932L1295.87 29.9868C1294.91 29.6471 1293.95 29.3082 1292.98 28.9703L1292.74 29.6785ZM1300.3 32.3946L1300.04 33.098C1300.96 33.4387 1301.87 33.7801 1302.77 34.1219L1303.04 33.4204L1303.3 32.7188C1302.4 32.3758 1301.48 32.0332 1300.56 31.6912L1300.3 32.3946ZM1307.82 35.262L1307.55 35.9601C1308.49 36.3301 1309.42 36.7004 1310.35 37.0708L1310.62 36.3747L1310.9 35.6786C1309.98 35.3068 1309.04 34.9351 1308.09 34.5638L1307.82 35.262ZM1315.17 38.2307L1314.88 38.9232C1315.84 39.3195 1316.78 39.7157 1317.71 40.1115L1318 39.4212L1318.3 38.731C1317.36 38.3336 1316.41 37.9359 1315.46 37.5381L1315.17 38.2307ZM1322.64 41.4297L1322.34 42.116C1323.25 42.516 1324.14 42.9153 1325.03 43.3138L1325.34 42.63L1325.64 41.9462C1324.76 41.546 1323.86 41.145 1322.94 40.7434L1322.64 41.4297ZM1329.94 44.7403L1329.62 45.4198C1330.54 45.8519 1331.45 46.2826 1332.35 46.7117L1332.68 46.035L1333 45.3583C1332.1 44.9274 1331.18 44.4948 1330.25 44.0608L1329.94 44.7403ZM1337.07 48.175L1336.74 48.847C1337.68 49.3144 1338.61 49.7791 1339.52 50.241L1339.86 49.5721L1340.2 48.9032C1339.29 48.4392 1338.35 47.9724 1337.41 47.503L1337.07 48.175ZM1344.29 51.8609L1343.94 52.5245C1344.83 52.9945 1345.71 53.4607 1346.56 53.9228L1346.92 53.2625L1347.28 52.6023C1346.41 52.138 1345.54 51.6695 1344.64 51.1973L1344.29 51.8609ZM1351.37 55.7105L1351.01 56.3645C1351.86 56.845 1352.7 57.3197 1353.51 57.7883L1353.89 57.138L1354.26 56.4877C1353.44 56.0165 1352.6 55.5393 1351.74 55.0564L1351.37 55.7105ZM1358.32 59.7403L1357.94 60.3834C1358.78 60.8921 1359.6 61.3914 1360.4 61.8808L1360.79 61.242L1361.19 60.6032C1360.39 60.1109 1359.56 59.6086 1358.71 59.0971L1358.32 59.7403ZM1365.11 63.9639L1364.71 64.5941C1365.59 65.1613 1366.42 65.7102 1367.22 66.2393L1367.64 65.6147L1368.05 64.9902C1367.25 64.4573 1366.41 63.9046 1365.52 63.3337L1365.11 63.9639ZM1371.76 68.431L1371.33 69.0446C1372.22 69.67 1373.03 70.2513 1373.76 70.7844L1374.2 70.1789L1374.64 69.5734C1373.9 69.0348 1373.09 68.4482 1372.19 67.8175L1371.76 68.431ZM1378.25 73.267L1377.78 73.8519C1378.12 74.1283 1378.38 74.3397 1378.55 74.4812C1378.64 74.552 1378.7 74.6053 1378.74 74.6406C1378.76 74.6582 1378.78 74.6714 1378.79 74.6799C1378.79 74.6842 1378.8 74.6873 1378.8 74.6893C1378.8 74.6902 1378.8 74.6909 1378.8 74.6913C1378.8 74.6915 1378.8 74.6917 1378.8 74.6917C1378.8 74.6917 1378.8 74.6918 1378.8 74.6918C1378.8 74.6917 1378.8 74.6917 1378.8 74.6917C1378.8 74.6917 1378.8 74.6917 1378.8 74.6917C1378.8 74.6917 1378.8 74.6917 1379.29 74.124C1379.78 73.5564 1379.78 73.5564 1379.78 73.5563C1379.78 73.5563 1379.78 73.5563 1379.78 73.5563C1379.78 73.5563 1379.78 73.5562 1379.78 73.5562C1379.78 73.5561 1379.78 73.556 1379.78 73.5559C1379.78 73.5556 1379.78 73.5553 1379.78 73.555C1379.78 73.5542 1379.78 73.5531 1379.78 73.5518C1379.77 73.5491 1379.77 73.5453 1379.76 73.5403C1379.75 73.5304 1379.73 73.5158 1379.71 73.4967C1379.67 73.4586 1379.6 73.4024 1379.51 73.3288C1379.33 73.1815 1379.07 72.9644 1378.72 72.6822L1378.25 73.267Z" fill="var(--stroke-0, #FF500A)" style="fill:#FF500A;fill:color(display-p3 1.0000 0.3120 0.0400);fill-opacity:1;"/>
</svg>
