<svg preserveAspectRatio="none" width="100%" height="100%" overflow="visible" viewBox="0 0 191.644 191.644" fill="none" xmlns="http://www.w3.org/2000/svg">
<g id="Group 1739332526">
<g id="Vector">
<path d="M45.8218 133.834C45.8218 129.637 45.8218 127.538 46.5897 125.914C47.3811 124.241 48.7283 122.894 50.4018 122.102C52.0256 121.334 54.1241 121.334 58.3212 121.334L133.318 121.334C137.515 121.334 139.613 121.334 141.237 122.102C142.91 122.894 144.258 124.241 145.049 125.914C145.817 127.538 145.817 129.637 145.817 133.834C145.817 138.031 145.817 140.129 145.049 141.753C144.258 143.427 142.91 144.774 141.237 145.565C139.613 146.333 137.515 146.333 133.318 146.333L58.3212 146.333C54.1241 146.333 52.0256 146.333 50.4018 145.565C48.7283 144.774 47.3811 143.427 46.5897 141.753C45.8218 140.129 45.8218 138.031 45.8218 133.834Z" stroke="#FF500A" stroke-opacity="0.3" stroke-dasharray="8 8"/>
<path d="M45.8246 108.834C45.8246 104.637 45.8246 102.538 46.5924 100.914C47.3838 99.2407 48.7311 97.8934 50.4047 97.102C52.0284 96.3342 54.1269 96.3342 58.3237 96.3342C62.5206 96.3342 64.619 96.3342 66.2428 97.102C67.9164 97.8934 69.2637 99.2407 70.0551 100.914C70.8229 102.538 70.8229 104.637 70.8229 108.834C70.8229 113.031 70.8229 115.129 70.0551 116.753C69.2637 118.426 67.9164 119.774 66.2428 120.565C64.619 121.333 62.5206 121.333 58.3237 121.333C54.1269 121.333 52.0284 121.333 50.4047 120.565C48.7311 119.774 47.3838 118.426 46.5924 116.753C45.8246 115.129 45.8246 113.031 45.8246 108.834Z" stroke="#FF500A" stroke-opacity="0.3" stroke-dasharray="8 8"/>
<path d="M45.8259 52.5877C45.8259 49.1362 48.624 46.3381 52.0755 46.3381C55.527 46.3381 58.3251 49.1362 58.3251 52.5877L58.3251 65.0873C58.3251 68.5389 55.527 71.3369 52.0755 71.3369C48.624 71.3369 45.8259 68.5389 45.8259 65.0874L45.8259 52.5877Z" stroke="#FF500A" stroke-opacity="0.3" stroke-dasharray="8 8"/>
<path d="M58.3287 52.5891C58.3287 49.1375 61.1268 46.3395 64.5783 46.3395C68.0299 46.3395 70.8279 49.1375 70.8279 52.5891L70.8279 65.0887C70.8279 68.5403 68.0299 71.3383 64.5783 71.3383C61.1268 71.3383 58.3287 68.5403 58.3287 65.0887V52.5891Z" stroke="#FF500A" stroke-opacity="0.3" stroke-dasharray="8 8"/>
<path d="M70.8219 52.5863C70.8219 49.1348 73.6199 46.3367 77.0715 46.3367C80.523 46.3367 83.321 49.1348 83.321 52.5863L83.321 65.086C83.321 68.5375 80.523 71.3355 77.0715 71.3355C73.6199 71.3355 70.8219 68.5375 70.8219 65.086L70.8219 52.5863Z" stroke="#FF500A" stroke-opacity="0.3" stroke-dasharray="8 8"/>
<path d="M83.3233 52.5863C83.3233 49.1348 86.1213 46.3367 89.5729 46.3367C93.0244 46.3367 95.8224 49.1348 95.8224 52.5863L95.8224 65.086C95.8224 68.5375 93.0244 71.3355 89.5729 71.3355C86.1213 71.3355 83.3233 68.5375 83.3233 65.086L83.3233 52.5863Z" stroke="#FF500A" stroke-opacity="0.3" stroke-dasharray="8 8"/>
<path d="M95.8247 52.5863C95.8247 49.1348 98.6228 46.3367 102.074 46.3367C105.526 46.3367 108.324 49.1348 108.324 52.5863L108.324 65.086C108.324 68.5375 105.526 71.3355 102.074 71.3355C98.6228 71.3355 95.8247 68.5375 95.8247 65.086L95.8247 52.5863Z" stroke="#FF500A" stroke-opacity="0.3" stroke-dasharray="8 8"/>
<path d="M108.322 52.5877C108.322 49.1362 111.12 46.3381 114.572 46.3381C118.023 46.3381 120.821 49.1362 120.821 52.5877L120.821 65.0874C120.821 68.5389 118.023 71.3369 114.572 71.3369C111.12 71.3369 108.322 68.5389 108.322 65.0874L108.322 52.5877Z" stroke="#FF500A" stroke-opacity="0.3" stroke-dasharray="8 8"/>
<path d="M120.828 52.5863C120.828 49.1348 123.626 46.3367 127.077 46.3367C130.529 46.3367 133.327 49.1348 133.327 52.5863L133.327 65.086C133.327 68.5375 130.529 71.3356 127.077 71.3356C123.626 71.3356 120.828 68.5375 120.828 65.086L120.828 52.5863Z" stroke="#FF500A" stroke-opacity="0.3" stroke-dasharray="8 8"/>
<path d="M133.325 52.5877C133.325 49.1362 136.123 46.3381 139.574 46.3381C143.026 46.3381 145.824 49.1362 145.824 52.5877V65.0874C145.824 68.5389 143.026 71.3369 139.574 71.3369C136.123 71.3369 133.325 68.5389 133.325 65.0874L133.325 52.5877Z" stroke="#FF500A" stroke-opacity="0.3" stroke-dasharray="8 8"/>
<path d="M45.8232 74.4603C45.8232 72.7345 47.2222 71.3355 48.948 71.3355C50.6738 71.3355 52.0729 72.7345 52.0729 74.4603L52.0729 93.2094C52.0729 94.9352 50.6738 96.3343 48.948 96.3343C47.2222 96.3343 45.8232 94.9352 45.8232 93.2094L45.8232 74.4603Z" stroke="#FF500A" stroke-opacity="0.3" stroke-dasharray="8 8"/>
<path d="M70.8219 74.4617C70.8219 72.7359 72.2209 71.3368 73.9467 71.3368C75.6725 71.3368 77.0716 72.7359 77.0716 74.4617L77.0716 93.2108C77.0716 94.9366 75.6725 96.3356 73.9467 96.3356C72.2209 96.3356 70.8219 94.9366 70.8219 93.2108L70.8219 74.4617Z" stroke="#FF500A" stroke-opacity="0.3" stroke-dasharray="8 8"/>
<path d="M95.8206 74.4603C95.8206 72.7345 97.2196 71.3355 98.9454 71.3355C100.671 71.3355 102.07 72.7345 102.07 74.4603L102.07 93.2094C102.07 94.9352 100.671 96.3343 98.9454 96.3343C97.2196 96.3343 95.8206 94.9352 95.8206 93.2094L95.8206 74.4603Z" stroke="#FF500A" stroke-opacity="0.3" stroke-dasharray="8 8"/>
<path d="M95.8206 99.4604C95.8206 97.7346 97.2196 96.3355 98.9454 96.3355C100.671 96.3355 102.07 97.7346 102.07 99.4604L102.07 118.21C102.07 119.935 100.671 121.334 98.9454 121.334C97.2196 121.334 95.8206 119.935 95.8206 118.21V99.4604Z" stroke="#FF500A" stroke-opacity="0.3" stroke-dasharray="8 8"/>
<path d="M120.822 74.4589C120.822 72.7331 122.221 71.3341 123.947 71.3341C125.673 71.3341 127.072 72.7331 127.072 74.4589L127.072 93.208C127.072 94.9338 125.673 96.3329 123.947 96.3329C122.221 96.3329 120.822 94.9338 120.822 93.208V74.4589Z" stroke="#FF500A" stroke-opacity="0.3" stroke-dasharray="8 8"/>
<path d="M52.0739 74.4713C52.0739 72.7455 53.4729 71.3465 55.1987 71.3465C56.9245 71.3465 58.3236 72.7455 58.3236 74.4713L58.3236 93.2205C58.3236 94.9463 56.9245 96.3453 55.1987 96.3453C53.4729 96.3453 52.0739 94.9463 52.0739 93.2205L52.0739 74.4713Z" stroke="#FF500A" stroke-opacity="0.3" stroke-dasharray="8 8"/>
<path d="M77.0698 74.4617C77.0698 72.7359 78.4689 71.3368 80.1947 71.3368C81.9205 71.3368 83.3195 72.7359 83.3195 74.4617L83.3195 93.2108C83.3195 94.9366 81.9205 96.3356 80.1947 96.3356C78.4689 96.3356 77.0698 94.9366 77.0698 93.2108L77.0698 74.4617Z" stroke="#FF500A" stroke-opacity="0.3" stroke-dasharray="8 8"/>
<path d="M102.069 74.4658C102.069 72.74 103.468 71.341 105.193 71.341C106.919 71.341 108.318 72.74 108.318 74.4658L108.318 93.2149C108.318 94.9407 106.919 96.3398 105.193 96.3398C103.468 96.3398 102.069 94.9407 102.069 93.2149V74.4658Z" stroke="#FF500A" stroke-opacity="0.3" stroke-dasharray="8 8"/>
<path d="M102.07 99.4618C102.07 97.736 103.469 96.3369 105.195 96.3369C106.921 96.3369 108.32 97.736 108.32 99.4618L108.32 118.211C108.32 119.937 106.921 121.336 105.195 121.336C103.469 121.336 102.07 119.937 102.07 118.211V99.4618Z" stroke="#FF500A" stroke-opacity="0.3" stroke-dasharray="8 8"/>
<path d="M70.8219 99.4562C70.8219 97.7304 72.2209 96.3314 73.9467 96.3314C75.6725 96.3314 77.0716 97.7304 77.0716 99.4562V118.205C77.0716 119.931 75.6725 121.33 73.9467 121.33C72.2209 121.33 70.8219 119.931 70.8219 118.205L70.8219 99.4562Z" stroke="#FF500A" stroke-opacity="0.3" stroke-dasharray="8 8"/>
<path d="M77.0754 99.459C77.0754 97.7332 78.4744 96.3342 80.2002 96.3342C81.926 96.3342 83.325 97.7332 83.325 99.459L83.325 118.208C83.325 119.934 81.926 121.333 80.2002 121.333C78.4744 121.333 77.0754 119.934 77.0754 118.208L77.0754 99.459Z" stroke="#FF500A" stroke-opacity="0.3" stroke-dasharray="8 8"/>
<path d="M127.081 74.4672C127.081 72.7414 128.48 71.3424 130.206 71.3424C131.932 71.3424 133.331 72.7414 133.331 74.4672L133.331 93.2163C133.331 94.9421 131.932 96.3412 130.206 96.3412C128.48 96.3412 127.081 94.9421 127.081 93.2163V74.4672Z" stroke="#FF500A" stroke-opacity="0.3" stroke-dasharray="8 8"/>
<path d="M58.3205 74.4617C58.3205 72.7359 59.7195 71.3368 61.4453 71.3368C63.1711 71.3368 64.5701 72.7359 64.5701 74.4617L64.5701 93.2108C64.5701 94.9366 63.1711 96.3356 61.4453 96.3356C59.7195 96.3356 58.3205 94.9366 58.3205 93.2108L58.3205 74.4617Z" stroke="#FF500A" stroke-opacity="0.3" stroke-dasharray="8 8"/>
<path d="M83.3233 74.4589C83.3233 72.7331 84.7223 71.3341 86.4481 71.3341C88.174 71.3341 89.573 72.7331 89.573 74.4589L89.573 93.208C89.573 94.9338 88.174 96.3329 86.4482 96.3329C84.7223 96.3329 83.3233 94.9338 83.3233 93.208L83.3233 74.4589Z" stroke="#FF500A" stroke-opacity="0.3" stroke-dasharray="8 8"/>
<path d="M108.321 74.4589C108.321 72.7331 109.72 71.3341 111.445 71.3341C113.171 71.3341 114.57 72.7331 114.57 74.4589L114.57 93.208C114.57 94.9338 113.171 96.3329 111.445 96.3329C109.72 96.3329 108.321 94.9338 108.321 93.208L108.321 74.4589Z" stroke="#FF500A" stroke-opacity="0.3" stroke-dasharray="8 8"/>
<path d="M133.319 74.4603C133.319 72.7345 134.718 71.3355 136.444 71.3355C138.17 71.3355 139.569 72.7345 139.569 74.4603L139.569 93.2094C139.569 94.9352 138.17 96.3343 136.444 96.3343C134.718 96.3343 133.319 94.9352 133.319 93.2094V74.4603Z" stroke="#FF500A" stroke-opacity="0.3" stroke-dasharray="8 8"/>
<path d="M133.321 99.459C133.321 97.7332 134.72 96.3342 136.446 96.3342C138.171 96.3342 139.57 97.7332 139.57 99.459L139.57 118.208C139.57 119.934 138.171 121.333 136.446 121.333C134.72 121.333 133.321 119.934 133.321 118.208V99.459Z" stroke="#FF500A" stroke-opacity="0.3" stroke-dasharray="8 8"/>
<path d="M64.5725 74.4603C64.5725 72.7345 65.9716 71.3355 67.6974 71.3355C69.4232 71.3355 70.8222 72.7345 70.8222 74.4603L70.8222 93.2094C70.8222 94.9352 69.4232 96.3343 67.6974 96.3343C65.9716 96.3343 64.5725 94.9352 64.5725 93.2094L64.5725 74.4603Z" stroke="#FF500A" stroke-opacity="0.3" stroke-dasharray="8 8"/>
<path d="M89.5726 74.4603C89.5726 72.7345 90.9717 71.3355 92.6975 71.3355C94.4233 71.3355 95.8223 72.7345 95.8223 74.4603L95.8223 93.2094C95.8223 94.9352 94.4233 96.3343 92.6975 96.3343C90.9717 96.3343 89.5726 94.9352 89.5726 93.2094L89.5726 74.4603Z" stroke="#FF500A" stroke-opacity="0.3" stroke-dasharray="8 8"/>
<path d="M139.58 74.4644C139.58 72.7386 140.979 71.3396 142.705 71.3396C144.43 71.3396 145.829 72.7386 145.829 74.4644L145.829 93.2136C145.829 94.9394 144.43 96.3384 142.705 96.3384C140.979 96.3384 139.58 94.9394 139.58 93.2136V74.4644Z" stroke="#FF500A" stroke-opacity="0.3" stroke-dasharray="8 8"/>
<path d="M114.578 74.4658C114.578 72.74 115.977 71.341 117.703 71.341C119.429 71.341 120.828 72.74 120.828 74.4658L120.828 93.2149C120.828 94.9407 119.429 96.3398 117.703 96.3398C115.977 96.3398 114.578 94.9407 114.578 93.2149V74.4658Z" stroke="#FF500A" stroke-opacity="0.3" stroke-dasharray="8 8"/>
<path d="M139.573 99.4659C139.573 97.7401 140.972 96.3411 142.698 96.3411C144.423 96.3411 145.823 97.7401 145.823 99.4659L145.822 118.215C145.822 119.941 144.423 121.34 142.698 121.34C140.972 121.34 139.573 119.941 139.573 118.215V99.4659Z" stroke="#FF500A" stroke-opacity="0.3" stroke-dasharray="8 8"/>
<path d="M114.573 124.466C114.573 122.74 115.972 121.341 117.698 121.341C119.423 121.341 120.822 122.74 120.822 124.466L120.822 143.215C120.822 144.941 119.423 146.34 117.698 146.34C115.972 146.34 114.573 144.941 114.573 143.215L114.573 124.466Z" stroke="#FF500A" stroke-opacity="0.3" stroke-dasharray="8 8"/>
<path d="M70.8246 124.459C70.8246 122.733 72.2237 121.334 73.9495 121.334C75.6753 121.334 77.0743 122.733 77.0743 124.459L77.0743 143.208C77.0743 144.934 75.6753 146.333 73.9495 146.333C72.2237 146.333 70.8246 144.934 70.8246 143.208L70.8246 124.459Z" stroke="#FF500A" stroke-opacity="0.3" stroke-dasharray="8 8"/>
<path d="M70.8219 108.831C70.8219 104.634 70.8219 102.535 71.5897 100.912C72.3811 99.2379 73.7284 97.8906 75.402 97.0992C77.0258 96.3314 79.1242 96.3314 83.3211 96.3314C87.5179 96.3314 89.6164 96.3314 91.2401 97.0992C92.9137 97.8906 94.2611 99.2379 95.0524 100.912C95.8203 102.535 95.8203 104.634 95.8203 108.831C95.8203 113.028 95.8203 115.126 95.0524 116.75C94.2611 118.424 92.9137 119.771 91.2401 120.562C89.6164 121.33 87.5179 121.33 83.3211 121.33C79.1242 121.33 77.0258 121.33 75.402 120.562C73.7284 119.771 72.3811 118.424 71.5897 116.75C70.8219 115.126 70.8219 113.028 70.8219 108.831Z" stroke="#FF500A" stroke-opacity="0.3" stroke-dasharray="8 8"/>
<path d="M95.8206 108.835C95.8206 104.638 95.8206 102.539 96.5884 100.916C97.3798 99.2421 98.7271 97.8947 100.401 97.1034C102.024 96.3355 104.123 96.3355 108.32 96.3355C112.517 96.3355 114.615 96.3355 116.239 97.1034C117.912 97.8948 119.26 99.2421 120.051 100.916C120.819 102.539 120.819 104.638 120.819 108.835C120.819 113.032 120.819 115.13 120.051 116.754C119.26 118.428 117.912 119.775 116.239 120.567C114.615 121.334 112.517 121.334 108.32 121.334C104.123 121.334 102.024 121.334 100.401 120.567C98.7271 119.775 97.3798 118.428 96.5884 116.754C95.8206 115.13 95.8206 113.032 95.8206 108.835Z" stroke="#FF500A" stroke-opacity="0.3" stroke-dasharray="8 8"/>
<path d="M120.815 108.835C120.815 104.638 120.815 102.539 121.583 100.916C122.374 99.2421 123.722 97.8947 125.395 97.1034C127.019 96.3355 129.117 96.3355 133.314 96.3355C137.511 96.3355 139.61 96.3355 141.233 97.1034C142.907 97.8948 144.254 99.2421 145.046 100.916C145.814 102.539 145.814 104.638 145.814 108.835C145.814 113.032 145.814 115.13 145.046 116.754C144.254 118.428 142.907 119.775 141.233 120.567C139.61 121.334 137.511 121.334 133.314 121.334C129.117 121.334 127.019 121.334 125.395 120.567C123.722 119.775 122.374 118.428 121.583 116.754C120.815 115.13 120.815 113.032 120.815 108.835Z" stroke="#FF500A" stroke-opacity="0.3" stroke-dasharray="8 8"/>
<path d="M120.812 133.838C120.812 129.641 120.812 127.542 121.58 125.919C122.372 124.245 123.719 122.898 125.393 122.106C127.016 121.338 129.115 121.338 133.312 121.338C137.508 121.338 139.607 121.338 141.231 122.106C142.904 122.898 144.252 124.245 145.043 125.919C145.811 127.542 145.811 129.641 145.811 133.838C145.811 138.035 145.811 140.133 145.043 141.757C144.252 143.431 142.904 144.778 141.231 145.569C139.607 146.337 137.508 146.337 133.312 146.337C129.115 146.337 127.016 146.337 125.393 145.569C123.719 144.778 122.372 143.431 121.58 141.757C120.812 140.133 120.812 138.035 120.812 133.838Z" stroke="#FF500A" stroke-opacity="0.3" stroke-dasharray="8 8"/>
</g>
</g>
</svg>
