<svg preserveAspectRatio="none" width="100%" height="100%" overflow="visible" style="display: block;" viewBox="0 0 1176.1 693.501" fill="none" xmlns="http://www.w3.org/2000/svg">
<path id="Vector 3588" d="M0.648056 693.501L6.73739 692.853L6.08934 686.763L0 687.411L0.648056 693.501ZM692.258 73.2171L692.612 73.8786L692.258 73.2171ZM1175.01 106.813L1176.1 100.787L1170.08 99.6968L1168.99 105.723L1175.01 106.813ZM4.82698 689.526C5.08848 689.205 5.04006 688.732 4.71883 688.471C4.3976 688.209 3.9252 688.258 3.6637 688.579L4.24534 689.052L4.82698 689.526ZM6.89688 684.629C6.63385 684.949 6.68001 685.421 6.99999 685.684C7.31996 685.947 7.79259 685.901 8.05562 685.581L7.47625 685.105L6.89688 684.629ZM9.75315 683.52C10.0167 683.2 9.97141 682.728 9.6519 682.464C9.33238 682.2 8.85968 682.246 8.59608 682.565L9.17462 683.043L9.75315 683.52ZM11.9897 678.464C11.7252 678.783 11.7692 679.256 12.0879 679.52C12.4066 679.785 12.8795 679.741 13.144 679.422L12.5669 678.943L11.9897 678.464ZM14.898 677.312C15.1629 676.993 15.1196 676.521 14.8012 676.256C14.4828 675.991 14.0099 676.034 13.745 676.352L14.3215 676.832L14.898 677.312ZM16.9953 672.456C16.7296 672.773 16.7719 673.246 17.0896 673.512C17.4074 673.778 17.8804 673.736 18.1461 673.418L17.5707 672.937L16.9953 672.456ZM20.1862 670.981C20.4523 670.663 20.4107 670.19 20.0933 669.924C19.7758 669.658 19.3028 669.7 19.0367 670.017L19.6115 670.499L20.1862 670.981ZM22.091 666.38C21.8243 666.697 21.8651 667.171 22.182 667.437C22.4989 667.704 22.9721 667.663 23.2388 667.346L22.6649 666.863L22.091 666.38ZM25.1892 665.031C25.4563 664.714 25.4161 664.241 25.0995 663.974C24.7828 663.707 24.3097 663.747 24.0426 664.064L24.6159 664.547L25.1892 665.031ZM27.4566 660.024C27.189 660.34 27.2283 660.813 27.5444 661.081C27.8605 661.348 28.3338 661.309 28.6014 660.993L28.029 660.508L27.4566 660.024ZM30.4248 658.841C30.6928 658.525 30.6539 658.052 30.3381 657.784C30.0222 657.516 29.5489 657.555 29.281 657.871L29.8529 658.356L30.4248 658.841ZM32.4561 654.134C32.1877 654.45 32.2257 654.923 32.5412 655.192C32.8566 655.46 33.3299 655.422 33.5984 655.107L33.0273 654.62L32.4561 654.134ZM35.5826 652.778C35.8514 652.463 35.8138 651.989 35.4986 651.72C35.1835 651.452 34.7101 651.489 34.4413 651.804L35.0119 652.291L35.5826 652.778ZM37.8502 647.814C37.5809 648.129 37.6177 648.602 37.9324 648.872C38.2471 649.141 38.7206 649.104 38.9899 648.789L38.42 648.302L37.8502 647.814ZM40.843 646.626C41.1126 646.312 41.0762 645.838 40.7617 645.568C40.4473 645.299 39.9738 645.335 39.7042 645.65L40.2736 646.138L40.843 646.626ZM42.8915 641.938C42.6214 642.252 42.6571 642.725 42.9711 642.995C43.2852 643.265 43.7587 643.23 44.0288 642.916L43.4601 642.427L42.8915 641.938ZM45.9982 640.627C46.2686 640.314 46.2333 639.84 45.9195 639.57C45.6057 639.299 45.1321 639.335 44.8618 639.648L45.43 640.138L45.9982 640.627ZM48.2412 635.732C47.9703 636.045 48.0049 636.519 48.3183 636.79C48.6317 637.061 49.1053 637.026 49.3761 636.713L48.8086 636.222L48.2412 635.732ZM51.387 634.388C51.6581 634.075 51.6241 633.601 51.3109 633.33C50.9977 633.059 50.5241 633.093 50.253 633.406L50.82 633.897L51.387 634.388ZM53.416 629.757C53.1445 630.07 53.1779 630.544 53.4907 630.815C53.8035 631.087 54.2772 631.054 54.5487 630.741L53.9824 630.249L53.416 629.757ZM56.4899 628.507C56.7617 628.194 56.7287 627.72 56.4161 627.449C56.1036 627.177 55.6298 627.21 55.358 627.522L55.924 628.015L56.4899 628.507ZM58.6676 623.722C58.3953 624.034 58.4277 624.508 58.7399 624.78C59.052 625.053 59.5258 625.02 59.7981 624.708L59.2328 624.215L58.6676 623.722ZM61.8264 622.384C62.0989 622.072 62.0669 621.599 61.755 621.326C61.4431 621.054 60.9693 621.086 60.6967 621.398L61.2615 621.891L61.8264 622.384ZM64.0696 617.542C63.7966 617.854 63.8279 618.328 64.1394 618.601C64.451 618.874 64.9248 618.842 65.1978 618.531L64.6337 618.037L64.0696 617.542ZM67.1093 616.351C67.3825 616.04 67.3516 615.566 67.0402 615.292C66.7289 615.019 66.255 615.05 65.9818 615.362L66.5455 615.856L67.1093 616.351ZM69.2267 611.669C68.9531 611.98 68.9834 612.454 69.2943 612.727C69.6053 613.001 70.0792 612.971 70.3528 612.66L69.7898 612.164L69.2267 611.669ZM72.3334 610.41C72.6073 610.1 72.5774 609.626 72.2666 609.352C71.9559 609.078 71.482 609.108 71.2081 609.419L71.7708 609.915L72.3334 610.41ZM74.5673 605.612C74.293 605.923 74.3222 606.397 74.6326 606.671C74.943 606.945 75.417 606.916 75.6913 606.606L75.1293 606.109L74.5673 605.612ZM77.7399 604.289C78.0144 603.979 77.9856 603.505 77.6754 603.231C77.3653 602.956 76.8913 602.985 76.6167 603.295L77.1783 603.792L77.7399 604.289ZM79.9547 599.529C79.6797 599.839 79.708 600.313 80.0178 600.588C80.3276 600.863 80.8016 600.835 81.0766 600.525L80.5156 600.027L79.9547 599.529ZM83.0177 598.34C83.2929 598.03 83.265 597.556 82.9554 597.281C82.6458 597.006 82.1718 597.034 81.8966 597.343L82.4571 597.841L83.0177 598.34ZM85.1796 593.655C84.904 593.964 84.9312 594.438 85.2404 594.714C85.5497 594.989 86.0238 594.962 86.2994 594.653L85.7395 594.154L85.1796 593.655ZM88.2961 592.414C88.5719 592.105 88.545 591.631 88.236 591.355C87.927 591.079 87.4529 591.106 87.1771 591.415L87.7366 591.915L88.2961 592.414ZM90.5521 587.639C90.2759 587.948 90.3021 588.422 90.6108 588.699C90.9194 588.975 91.3936 588.948 91.6698 588.64L91.111 588.14L90.5521 587.639ZM93.7214 586.35C93.9978 586.041 93.972 585.567 93.6635 585.29C93.3551 585.014 92.8809 585.04 92.6044 585.348L93.1629 585.849L93.7214 586.35ZM95.9991 581.567C95.7222 581.875 95.7474 582.349 96.0555 582.626C96.3636 582.903 96.8378 582.877 97.1147 582.569L96.5569 582.068L95.9991 581.567ZM99.0706 580.395C99.3477 580.087 99.3228 579.613 99.015 579.336C98.7071 579.058 98.2329 579.083 97.9558 579.391L98.5132 579.893L99.0706 580.395ZM101.255 575.73C100.978 576.038 101.002 576.512 101.31 576.79C101.617 577.067 102.091 577.043 102.369 576.735L101.812 576.233L101.255 575.73ZM104.371 574.519C104.649 574.211 104.625 573.737 104.317 573.459C104.01 573.182 103.536 573.206 103.258 573.513L103.814 574.016L104.371 574.519ZM106.634 569.783C106.355 570.09 106.379 570.564 106.686 570.842C106.993 571.121 107.467 571.097 107.745 570.79L107.189 570.287L106.634 569.783ZM109.792 568.533C110.071 568.226 110.048 567.752 109.741 567.474C109.434 567.195 108.96 567.218 108.682 567.525L109.237 568.029L109.792 568.533ZM112.132 563.728C111.853 564.035 111.876 564.509 112.182 564.788C112.488 565.066 112.963 565.044 113.241 564.738L112.687 564.233L112.132 563.728ZM115.262 562.519C115.541 562.213 115.519 561.738 115.213 561.459C114.907 561.18 114.432 561.202 114.153 561.509L114.708 562.014L115.262 562.519ZM117.46 557.885C117.18 558.191 117.202 558.666 117.507 558.945C117.813 559.224 118.288 559.203 118.567 558.897L118.013 558.391L117.46 557.885ZM120.569 556.707C120.849 556.402 120.828 555.927 120.522 555.648C120.217 555.368 119.742 555.389 119.463 555.695L120.016 556.201L120.569 556.707ZM122.833 552.016C122.553 552.321 122.573 552.796 122.879 553.076C123.184 553.356 123.658 553.335 123.938 553.03L123.386 552.523L122.833 552.016ZM125.979 550.808C126.259 550.503 126.239 550.028 125.934 549.748C125.629 549.468 125.154 549.488 124.874 549.793L125.426 550.3L125.979 550.808ZM128.308 546.061C128.027 546.365 128.046 546.84 128.351 547.12C128.656 547.401 129.13 547.382 129.411 547.077L128.859 546.569L128.308 546.061ZM131.489 544.823C131.77 544.518 131.751 544.044 131.446 543.763C131.142 543.482 130.667 543.501 130.386 543.806L130.938 544.314L131.489 544.823ZM133.802 540.108C133.521 540.412 133.539 540.887 133.843 541.168C134.148 541.449 134.622 541.431 134.903 541.127L134.353 540.617L133.802 540.108ZM136.905 538.965C137.186 538.661 137.168 538.186 136.864 537.905C136.56 537.623 136.086 537.641 135.804 537.945L136.354 538.455L136.905 538.965ZM139.168 534.318C138.886 534.622 138.904 535.096 139.207 535.378C139.511 535.66 139.985 535.642 140.267 535.339L139.718 534.829L139.168 534.318ZM142.301 533.15C142.583 532.847 142.566 532.373 142.263 532.091C141.96 531.808 141.485 531.826 141.203 532.129L141.752 532.64L142.301 533.15ZM144.621 528.458C144.339 528.761 144.355 529.236 144.658 529.518C144.961 529.801 145.436 529.784 145.718 529.481L145.17 528.97L144.621 528.458ZM147.784 527.267C148.067 526.965 148.051 526.49 147.748 526.207C147.445 525.925 146.971 525.941 146.688 526.244L147.236 526.755L147.784 527.267ZM150.159 522.531C149.876 522.834 149.892 523.308 150.194 523.591C150.497 523.875 150.971 523.859 151.254 523.557L150.707 523.044L150.159 522.531ZM153.352 521.318C153.636 521.016 153.62 520.541 153.318 520.258C153.016 519.974 152.541 519.989 152.258 520.292L152.805 520.805L153.352 521.318ZM155.651 516.678C155.367 516.98 155.382 517.455 155.684 517.739C155.985 518.022 156.46 518.008 156.744 517.706L156.197 517.192L155.651 516.678ZM158.773 515.549C159.057 515.248 159.042 514.773 158.741 514.489C158.439 514.205 157.965 514.219 157.681 514.521L158.227 515.035L158.773 515.549ZM161.087 510.908C160.803 511.209 160.817 511.684 161.118 511.968C161.419 512.252 161.894 512.239 162.178 511.938L161.633 511.423L161.087 510.908ZM164.235 509.76C164.52 509.459 164.506 508.984 164.205 508.7C163.904 508.415 163.43 508.429 163.145 508.73L163.69 509.245L164.235 509.76ZM166.598 505.082C166.313 505.383 166.326 505.858 166.626 506.142C166.927 506.427 167.402 506.415 167.687 506.114L167.142 505.598L166.598 505.082ZM169.771 503.917C170.057 503.616 170.044 503.141 169.744 502.856C169.444 502.571 168.969 502.583 168.684 502.884L169.228 503.4L169.771 503.917ZM172.182 499.204C171.897 499.504 171.908 499.978 172.208 500.264C172.508 500.55 172.983 500.538 173.269 500.238L172.725 499.721L172.182 499.204ZM175.38 498.021C175.666 497.721 175.655 497.246 175.355 496.961C175.055 496.675 174.581 496.686 174.295 496.986L174.838 497.503L175.38 498.021ZM177.712 493.406C177.426 493.705 177.437 494.18 177.736 494.466C178.036 494.752 178.511 494.742 178.797 494.442L178.255 493.924L177.712 493.406ZM180.848 492.298C181.135 491.999 181.124 491.524 180.825 491.237C180.526 490.951 180.051 490.961 179.765 491.261L180.306 491.779L180.848 492.298ZM183.205 487.671C182.918 487.97 182.928 488.445 183.227 488.732C183.526 489.019 184 489.009 184.287 488.71L183.746 488.191L183.205 487.671ZM186.363 486.549C186.65 486.251 186.64 485.776 186.342 485.489C186.043 485.202 185.568 485.211 185.281 485.51L185.822 486.03L186.363 486.549ZM188.762 481.894C188.475 482.192 188.483 482.667 188.781 482.954C189.08 483.242 189.555 483.233 189.842 482.935L189.302 482.414L188.762 481.894ZM191.941 480.759C192.229 480.461 192.221 479.986 191.923 479.698C191.625 479.41 191.15 479.419 190.862 479.717L191.402 480.238L191.941 480.759ZM194.382 476.075C194.094 476.373 194.102 476.848 194.4 477.136C194.697 477.424 195.172 477.416 195.46 477.118L194.921 476.597L194.382 476.075ZM197.583 474.927C197.872 474.63 197.864 474.155 197.567 473.866C197.269 473.578 196.795 473.585 196.506 473.883L197.045 474.405L197.583 474.927ZM199.98 470.305C199.691 470.602 199.698 471.077 199.995 471.366C200.292 471.654 200.766 471.648 201.055 471.351L200.517 470.828L199.98 470.305ZM203.126 469.222C203.415 468.926 203.408 468.451 203.111 468.162C202.815 467.873 202.34 467.879 202.051 468.176L202.588 468.699L203.126 469.222ZM205.521 464.617C205.231 464.913 205.237 465.388 205.534 465.678C205.83 465.967 206.305 465.961 206.594 465.665L206.057 465.141L205.521 464.617ZM208.686 463.524C208.975 463.228 208.97 462.753 208.674 462.463C208.378 462.174 207.903 462.179 207.613 462.475L208.15 463L208.686 463.524ZM211.118 458.895C210.828 459.191 210.833 459.666 211.129 459.956C211.425 460.246 211.899 460.241 212.189 459.945L211.654 459.42L211.118 458.895ZM214.302 457.792C214.592 457.497 214.588 457.022 214.292 456.732C213.997 456.442 213.522 456.446 213.232 456.741L213.767 457.267L214.302 457.792ZM216.771 453.142C216.481 453.437 216.484 453.912 216.78 454.203C217.075 454.493 217.55 454.49 217.84 454.194L217.306 453.668L216.771 453.142ZM219.973 452.03C220.264 451.735 220.261 451.26 219.966 450.969C219.671 450.678 219.196 450.682 218.905 450.977L219.439 451.503L219.973 452.03ZM222.451 447.386C222.16 447.681 222.163 448.156 222.457 448.447C222.752 448.738 223.227 448.736 223.518 448.441L222.985 447.914L222.451 447.386ZM225.606 446.331C225.898 446.037 225.896 445.562 225.601 445.271C225.307 444.979 224.832 444.982 224.541 445.276L225.073 445.804L225.606 446.331ZM228.038 441.75C227.746 442.044 227.748 442.519 228.042 442.811C228.336 443.103 228.811 443.101 229.102 442.807L228.57 442.279L228.038 441.75ZM231.21 440.688C231.502 440.394 231.501 439.919 231.207 439.627C230.913 439.335 230.438 439.336 230.146 439.63L230.678 440.159L231.21 440.688ZM233.675 436.088C233.382 436.381 233.383 436.856 233.676 437.149C233.969 437.441 234.444 437.441 234.737 437.148L234.206 436.618L233.675 436.088ZM236.862 435.019C237.155 434.726 237.155 434.251 236.862 433.959C236.569 433.666 236.094 433.666 235.801 433.959L236.332 434.489L236.862 435.019ZM239.361 430.403C239.067 430.695 239.067 431.17 239.359 431.463C239.652 431.757 240.127 431.757 240.42 431.465L239.89 430.934L239.361 430.403ZM242.564 429.328C242.857 429.035 242.858 428.56 242.566 428.267C242.273 427.973 241.799 427.972 241.505 428.265L242.034 428.796L242.564 429.328ZM245.094 424.695C244.8 424.987 244.799 425.462 245.091 425.755C245.383 426.049 245.858 426.051 246.151 425.759L245.623 425.227L245.094 424.695ZM248.293 423.634C248.587 423.342 248.589 422.867 248.298 422.573C248.006 422.279 247.531 422.277 247.237 422.569L247.765 423.101L248.293 423.634ZM250.763 419.078C250.468 419.369 250.465 419.844 250.757 420.138C251.048 420.433 251.523 420.436 251.817 420.144L251.29 419.611L250.763 419.078ZM253.94 418.047C254.235 417.756 254.238 417.281 253.947 416.987C253.656 416.692 253.181 416.689 252.886 416.98L253.413 417.514L253.94 418.047ZM256.439 413.478C256.144 413.768 256.14 414.243 256.431 414.538C256.722 414.833 257.196 414.837 257.492 414.547L256.966 414.012L256.439 413.478ZM259.631 412.443C259.926 412.153 259.93 411.678 259.64 411.382C259.35 411.087 258.875 411.083 258.58 411.373L259.105 411.908L259.631 412.443ZM262.16 407.86C261.864 408.15 261.859 408.625 262.149 408.921C262.439 409.217 262.914 409.222 263.21 408.932L262.685 408.396L262.16 407.86ZM265.365 406.822C265.661 406.533 265.666 406.058 265.377 405.762C265.087 405.466 264.612 405.46 264.316 405.75L264.84 406.286L265.365 406.822ZM267.923 402.228C267.627 402.517 267.621 402.992 267.91 403.288C268.199 403.585 268.674 403.591 268.97 403.302L268.447 402.765L267.923 402.228ZM271.141 401.186C271.438 400.897 271.445 400.423 271.156 400.126C270.867 399.829 270.392 399.823 270.095 400.111L270.618 400.649L271.141 401.186ZM273.698 396.61C273.401 396.898 273.394 397.373 273.682 397.67C273.971 397.968 274.445 397.975 274.743 397.686L274.22 397.148L273.698 396.61ZM276.882 395.612C277.18 395.324 277.187 394.849 276.899 394.551C276.611 394.254 276.136 394.246 275.839 394.534L276.36 395.073L276.882 395.612ZM279.418 391.072C279.12 391.359 279.112 391.834 279.4 392.132C279.688 392.43 280.163 392.438 280.46 392.151L279.939 391.611L279.418 391.072ZM282.615 390.072C282.913 389.784 282.922 389.31 282.634 389.011C282.347 388.713 281.872 388.704 281.574 388.992L282.094 389.532L282.615 390.072ZM285.178 385.522C284.879 385.809 284.87 386.284 285.157 386.583C285.444 386.881 285.918 386.891 286.217 386.604L285.697 386.063L285.178 385.522ZM288.386 384.521C288.685 384.234 288.694 383.76 288.408 383.461C288.121 383.162 287.646 383.152 287.347 383.439L287.866 383.98L288.386 384.521ZM290.975 379.963C290.676 380.25 290.665 380.724 290.952 381.024C291.238 381.323 291.713 381.334 292.012 381.047L291.493 380.505L290.975 379.963ZM294.195 378.961C294.494 378.675 294.505 378.201 294.219 377.901C293.933 377.601 293.458 377.59 293.159 377.876L293.677 378.419L294.195 378.961ZM296.81 374.396C296.51 374.681 296.498 375.156 296.784 375.456C297.069 375.756 297.544 375.768 297.844 375.482L297.327 374.939L296.81 374.396ZM300.04 373.394C300.341 373.109 300.353 372.634 300.068 372.334C299.782 372.033 299.308 372.021 299.007 372.306L299.524 372.85L300.04 373.394ZM302.617 368.883C302.316 369.168 302.303 369.642 302.588 369.943C302.873 370.244 303.347 370.257 303.648 369.972L303.132 369.427L302.617 368.883ZM305.819 367.917C306.12 367.633 306.134 367.158 305.849 366.857C305.565 366.556 305.09 366.543 304.789 366.827L305.304 367.372L305.819 367.917ZM308.42 363.4C308.119 363.684 308.104 364.159 308.389 364.461C308.673 364.762 309.147 364.776 309.449 364.492L308.934 363.946L308.42 363.4ZM311.633 362.436C311.934 362.152 311.949 361.677 311.665 361.376C311.381 361.074 310.907 361.059 310.605 361.343L311.119 361.89L311.633 362.436ZM314.257 357.914C313.955 358.197 313.94 358.672 314.223 358.974C314.507 359.276 314.981 359.291 315.283 359.008L314.77 358.461L314.257 357.914ZM317.48 356.95C317.783 356.667 317.798 356.193 317.515 355.89C317.232 355.588 316.758 355.572 316.455 355.855L316.968 356.403L317.48 356.95ZM320.129 352.424C319.826 352.706 319.809 353.181 320.092 353.484C320.374 353.786 320.849 353.803 321.152 353.521L320.64 352.972L320.129 352.424ZM323.361 351.462C323.664 351.18 323.681 350.705 323.399 350.402C323.116 350.099 322.642 350.082 322.339 350.364L322.85 350.913L323.361 351.462ZM326.032 346.932C325.729 347.213 325.711 347.688 325.993 347.992C326.274 348.295 326.749 348.313 327.053 348.031L326.542 347.481L326.032 346.932ZM329.249 345.996C329.553 345.714 329.571 345.24 329.29 344.936C329.008 344.632 328.534 344.614 328.23 344.895L328.739 345.445L329.249 345.996ZM331.892 341.51C331.587 341.791 331.568 342.265 331.849 342.57C332.13 342.874 332.605 342.893 332.909 342.612L332.4 342.061L331.892 341.51ZM335.111 340.582C335.416 340.301 335.435 339.827 335.155 339.522C334.874 339.217 334.399 339.198 334.095 339.479L334.603 340.03L335.111 340.582ZM337.776 336.094C337.471 336.374 337.451 336.848 337.731 337.153C338.011 337.459 338.485 337.479 338.79 337.199L338.283 336.646L337.776 336.094ZM341.004 335.169C341.309 334.889 341.33 334.415 341.05 334.109C340.77 333.804 340.296 333.783 339.99 334.063L340.497 334.616L341.004 335.169ZM343.69 330.679C343.384 330.959 343.363 331.433 343.642 331.739C343.921 332.045 344.396 332.066 344.702 331.787L344.196 331.233L343.69 330.679ZM346.926 329.758C347.232 329.479 347.254 329.005 346.975 328.699C346.696 328.393 346.222 328.371 345.916 328.65L346.421 329.204L346.926 329.758ZM349.634 325.268C349.327 325.546 349.304 326.021 349.583 326.327C349.861 326.634 350.336 326.657 350.642 326.378L350.138 325.823L349.634 325.268ZM352.878 324.351C353.185 324.073 353.208 323.599 352.93 323.292C352.652 322.985 352.177 322.961 351.87 323.239L352.374 323.795L352.878 324.351ZM355.596 319.869C355.289 320.147 355.265 320.621 355.542 320.929C355.82 321.236 356.294 321.26 356.602 320.983L356.099 320.426L355.596 319.869ZM358.824 318.978C359.132 318.701 359.157 318.227 358.879 317.919C358.602 317.611 358.128 317.587 357.82 317.864L358.322 318.421L358.824 318.978ZM361.535 314.523C361.226 314.8 361.201 315.274 361.478 315.582C361.754 315.89 362.229 315.916 362.537 315.639L362.036 315.081L361.535 314.523ZM364.77 313.637C365.078 313.36 365.104 312.886 364.828 312.578C364.551 312.269 364.077 312.243 363.769 312.52L364.269 313.078L364.77 313.637ZM367.5 309.183C367.191 309.459 367.164 309.933 367.44 310.242C367.716 310.551 368.19 310.578 368.499 310.302L367.999 309.742L367.5 309.183ZM370.742 308.302C371.051 308.027 371.078 307.552 370.803 307.243C370.527 306.934 370.053 306.906 369.744 307.182L370.243 307.742L370.742 308.302ZM373.492 303.85C373.182 304.125 373.154 304.599 373.429 304.909C373.704 305.218 374.178 305.247 374.487 304.972L373.99 304.411L373.492 303.85ZM376.74 302.975C377.05 302.701 377.079 302.227 376.804 301.916C376.529 301.606 376.055 301.578 375.745 301.852L376.243 302.414L376.74 302.975ZM379.509 298.525C379.199 298.799 379.169 299.273 379.443 299.584C379.717 299.895 380.191 299.924 380.502 299.65L380.005 299.088L379.509 298.525ZM382.764 297.657C383.074 297.383 383.105 296.91 382.831 296.599C382.557 296.288 382.083 296.258 381.772 296.531L382.268 297.094L382.764 297.657ZM385.537 293.224C385.226 293.497 385.195 293.971 385.468 294.282C385.741 294.593 386.215 294.625 386.526 294.351L386.032 293.788L385.537 293.224ZM388.781 292.376C389.093 292.103 389.125 291.63 388.852 291.318C388.579 291.006 388.105 290.974 387.794 291.247L388.288 291.812L388.781 292.376ZM391.562 287.957C391.25 288.229 391.217 288.703 391.489 289.015C391.761 289.327 392.235 289.36 392.547 289.088L392.055 288.522L391.562 287.957ZM394.811 287.116C395.124 286.845 395.157 286.371 394.885 286.058C394.614 285.746 394.14 285.713 393.827 285.985L394.319 286.551L394.811 287.116ZM397.61 282.702C397.297 282.973 397.263 283.446 397.534 283.759C397.805 284.073 398.279 284.107 398.592 283.835L398.101 283.268L397.61 282.702ZM400.865 281.869C401.178 281.598 401.213 281.125 400.942 280.811C400.671 280.498 400.198 280.463 399.884 280.734L400.375 281.302L400.865 281.869ZM403.681 277.459C403.367 277.729 403.332 278.203 403.602 278.517C403.872 278.831 404.346 278.866 404.66 278.596L404.171 278.028L403.681 277.459ZM406.941 276.635C407.255 276.365 407.291 275.891 407.022 275.577C406.752 275.263 406.278 275.227 405.964 275.497L406.453 276.066L406.941 276.635ZM409.775 272.231C409.46 272.5 409.423 272.973 409.693 273.288C409.962 273.603 410.435 273.64 410.75 273.371L410.263 272.801L409.775 272.231ZM413.04 271.415C413.355 271.146 413.392 270.673 413.123 270.358C412.855 270.043 412.381 270.005 412.066 270.274L412.553 270.845L413.04 271.415ZM415.879 267.027C415.564 267.295 415.525 267.769 415.793 268.084C416.062 268.4 416.535 268.439 416.851 268.17L416.365 267.599L415.879 267.027ZM419.139 266.228C419.455 265.96 419.494 265.487 419.227 265.171C418.959 264.855 418.485 264.816 418.17 265.084L418.654 265.656L419.139 266.228ZM421.993 261.85C421.677 262.117 421.637 262.59 421.904 262.906C422.171 263.223 422.644 263.263 422.961 262.996L422.477 262.423L421.993 261.85ZM425.257 261.06C425.574 260.793 425.615 260.32 425.348 260.003C425.081 259.686 424.608 259.645 424.291 259.912L424.774 260.486L425.257 261.06ZM428.127 256.689C427.81 256.955 427.768 257.428 428.034 257.746C428.301 258.063 428.774 258.105 429.091 257.838L428.609 257.264L428.127 256.689ZM431.395 255.909C431.713 255.643 431.755 255.17 431.489 254.853C431.224 254.535 430.751 254.493 430.433 254.759L430.914 255.334L431.395 255.909ZM434.282 251.547C433.963 251.812 433.92 252.285 434.185 252.603C434.45 252.921 434.923 252.965 435.241 252.7L434.761 252.123L434.282 251.547ZM437.553 250.777C437.871 250.513 437.915 250.04 437.651 249.721C437.386 249.403 436.913 249.359 436.594 249.623L437.074 250.2L437.553 250.777ZM440.455 246.424C440.136 246.688 440.091 247.161 440.355 247.48C440.619 247.799 441.092 247.844 441.411 247.58L440.933 247.002L440.455 246.424ZM443.729 245.666C444.049 245.402 444.094 244.929 443.831 244.61C443.567 244.29 443.094 244.245 442.775 244.508L443.252 245.087L443.729 245.666ZM446.645 241.324C446.325 241.587 446.278 242.059 446.541 242.379C446.804 242.699 447.277 242.746 447.597 242.483L447.121 241.903L446.645 241.324ZM449.921 240.577C450.241 240.315 450.288 239.842 450.026 239.522C449.764 239.202 449.291 239.154 448.971 239.417L449.446 239.997L449.921 240.577ZM452.852 236.246C452.531 236.508 452.483 236.98 452.744 237.301C453.006 237.622 453.479 237.67 453.8 237.409L453.326 236.827L452.852 236.246ZM456.13 235.511C456.452 235.25 456.5 234.778 456.239 234.456C455.978 234.135 455.505 234.086 455.184 234.347L455.657 234.929L456.13 235.511ZM459.076 231.191C458.754 231.451 458.704 231.924 458.965 232.246C459.226 232.568 459.698 232.617 460.02 232.357L459.548 231.774L459.076 231.191ZM462.357 230.469C462.679 230.208 462.73 229.736 462.469 229.414C462.209 229.092 461.737 229.041 461.415 229.301L461.886 229.885L462.357 230.469ZM465.318 226.16C464.995 226.419 464.943 226.891 465.202 227.214C465.462 227.537 465.934 227.588 466.257 227.329L465.787 226.744L465.318 226.16ZM468.6 225.45C468.923 225.191 468.975 224.719 468.717 224.396C468.458 224.072 467.986 224.02 467.662 224.279L468.131 224.865L468.6 225.45ZM471.575 221.153C471.251 221.411 471.198 221.883 471.456 222.207C471.714 222.531 472.186 222.584 472.51 222.326L472.043 221.74L471.575 221.153ZM474.861 220.455C475.186 220.197 475.24 219.725 474.982 219.401C474.724 219.077 474.252 219.023 473.928 219.281L474.395 219.868L474.861 220.455ZM477.861 216.163C477.536 216.42 477.481 216.892 477.738 217.217C477.995 217.541 478.466 217.597 478.791 217.34L478.326 216.751L477.861 216.163ZM481.152 215.476C481.477 215.219 481.533 214.748 481.277 214.422C481.02 214.097 480.549 214.041 480.223 214.298L480.688 214.887L481.152 215.476ZM484.166 211.197C483.84 211.453 483.783 211.924 484.038 212.25C484.294 212.576 484.765 212.633 485.091 212.378L484.628 211.787L484.166 211.197ZM487.458 210.524C487.784 210.269 487.842 209.797 487.586 209.471C487.331 209.145 486.86 209.087 486.534 209.342L486.996 209.933L487.458 210.524ZM490.485 206.26C490.158 206.514 490.099 206.986 490.353 207.312C490.608 207.639 491.079 207.698 491.406 207.444L490.945 206.852L490.485 206.26ZM493.778 205.601C494.105 205.347 494.164 204.876 493.91 204.549C493.657 204.222 493.185 204.162 492.858 204.416L493.318 205.009L493.778 205.601ZM496.818 201.352C496.49 201.605 496.43 202.076 496.683 202.404C496.936 202.732 497.407 202.793 497.735 202.54L497.276 201.946L496.818 201.352ZM500.111 200.708C500.439 200.456 500.501 199.985 500.248 199.657C499.996 199.328 499.525 199.267 499.197 199.52L499.654 200.114L500.111 200.708ZM503.165 196.475C502.836 196.727 502.773 197.197 503.025 197.526C503.277 197.855 503.747 197.918 504.076 197.666L503.621 197.071L503.165 196.475ZM506.468 195.839C506.797 195.588 506.861 195.117 506.61 194.788C506.358 194.458 505.888 194.395 505.558 194.646L506.013 195.243L506.468 195.839ZM509.557 191.605C509.227 191.855 509.162 192.326 509.413 192.656C509.663 192.986 510.134 193.05 510.464 192.8L510.01 192.202L509.557 191.605ZM512.863 190.982C513.194 190.733 513.259 190.262 513.009 189.932C512.759 189.601 512.289 189.536 511.959 189.786L512.411 190.384L512.863 190.982ZM515.965 186.765C515.634 187.014 515.567 187.484 515.816 187.816C516.065 188.147 516.535 188.213 516.866 187.964L516.415 187.365L515.965 186.765ZM519.27 186.16C519.602 185.911 519.669 185.441 519.421 185.11C519.172 184.778 518.702 184.711 518.371 184.959L518.82 185.559L519.27 186.16ZM522.384 181.96C522.052 182.208 521.984 182.678 522.231 183.01C522.478 183.342 522.948 183.411 523.281 183.163L522.832 182.562L522.384 181.96ZM525.689 181.372C526.021 181.125 526.091 180.655 525.844 180.322C525.597 179.99 525.127 179.92 524.795 180.167L525.242 180.77L525.689 181.372ZM528.815 177.191C528.482 177.437 528.411 177.906 528.657 178.24C528.903 178.573 529.373 178.643 529.706 178.397L529.26 177.794L528.815 177.191ZM532.118 176.62C532.452 176.374 532.523 175.905 532.278 175.571C532.032 175.237 531.563 175.166 531.229 175.411L531.674 176.016L532.118 176.62ZM535.261 172.454C534.926 172.699 534.854 173.168 535.098 173.503C535.343 173.837 535.812 173.91 536.146 173.665L535.704 173.06L535.261 172.454ZM538.583 171.886C538.918 171.642 538.992 171.173 538.748 170.839C538.504 170.504 538.035 170.43 537.7 170.674L538.141 171.28L538.583 171.886ZM541.768 167.719C541.432 167.962 541.357 168.431 541.6 168.766C541.843 169.102 542.312 169.177 542.648 168.934L542.208 168.326L541.768 167.719ZM545.088 167.17C545.424 166.927 545.5 166.458 545.257 166.123C545.015 165.787 544.546 165.711 544.21 165.953L544.649 166.561L545.088 167.17ZM548.284 163.023C547.948 163.264 547.871 163.733 548.112 164.069C548.353 164.406 548.822 164.483 549.158 164.242L548.721 163.632L548.284 163.023ZM551.602 162.493C551.939 162.252 552.017 161.784 551.777 161.447C551.536 161.11 551.067 161.032 550.73 161.272L551.166 161.883L551.602 162.493ZM554.81 158.368C554.472 158.607 554.393 159.076 554.632 159.413C554.872 159.751 555.34 159.831 555.678 159.591L555.244 158.979L554.81 158.368ZM558.125 157.857C558.463 157.618 558.544 157.15 558.304 156.812C558.065 156.474 557.597 156.394 557.259 156.633L557.692 157.245L558.125 157.857ZM561.344 153.754C561.005 153.992 560.923 154.46 561.161 154.799C561.399 155.138 561.867 155.22 562.206 154.982L561.775 154.368L561.344 153.754ZM564.656 153.264C564.995 153.027 565.078 152.559 564.84 152.22C564.603 151.88 564.135 151.798 563.796 152.035L564.226 152.65L564.656 153.264ZM567.907 149.169C567.567 149.405 567.483 149.872 567.719 150.212C567.956 150.553 568.423 150.637 568.763 150.4L568.335 149.784L567.907 149.169ZM571.244 148.68C571.585 148.444 571.67 147.977 571.434 147.636C571.199 147.296 570.731 147.211 570.391 147.446L570.818 148.063L571.244 148.68ZM574.532 144.59C574.191 144.825 574.104 145.292 574.339 145.633C574.573 145.975 575.04 146.061 575.382 145.827L574.957 145.208L574.532 144.59ZM577.865 144.123C578.207 143.889 578.294 143.423 578.06 143.081C577.827 142.739 577.36 142.651 577.018 142.885L577.442 143.504L577.865 144.123ZM581.163 140.059C580.821 140.291 580.732 140.758 580.964 141.1C581.197 141.443 581.664 141.532 582.006 141.299L581.585 140.679L581.163 140.059ZM584.492 139.614C584.835 139.382 584.925 138.915 584.693 138.572C584.461 138.229 583.994 138.139 583.651 138.371L584.072 138.993L584.492 139.614ZM587.8 135.574C587.456 135.805 587.365 136.271 587.596 136.615C587.827 136.959 588.293 137.051 588.637 136.82L588.219 136.197L587.8 135.574ZM591.124 135.152C591.469 134.922 591.561 134.456 591.331 134.112C591.101 133.768 590.635 133.675 590.291 133.905L590.708 134.529L591.124 135.152ZM594.443 131.139C594.098 131.368 594.004 131.834 594.233 132.179C594.462 132.524 594.927 132.618 595.272 132.389L594.858 131.764L594.443 131.139ZM597.762 130.74C598.107 130.512 598.202 130.047 597.974 129.701C597.746 129.355 597.281 129.26 596.935 129.489L597.348 130.114L597.762 130.74ZM601.144 126.718C600.798 126.946 600.701 127.411 600.928 127.757C601.155 128.103 601.62 128.2 601.966 127.973L601.555 127.346L601.144 126.718ZM604.494 126.32C604.841 126.094 604.938 125.629 604.712 125.282C604.486 124.935 604.021 124.837 603.674 125.064L604.084 125.692L604.494 126.32ZM607.892 122.322C607.544 122.547 607.445 123.012 607.67 123.359C607.895 123.707 608.359 123.807 608.707 123.581L608.299 122.952L607.892 122.322ZM611.236 121.949C611.584 121.724 611.684 121.26 611.46 120.912C611.236 120.564 610.772 120.463 610.423 120.688L610.83 121.318L611.236 121.949ZM614.643 117.98C614.294 118.203 614.192 118.667 614.415 119.016C614.638 119.365 615.102 119.467 615.451 119.244L615.047 118.612L614.643 117.98ZM617.981 117.632C618.33 117.41 618.434 116.946 618.211 116.596C617.989 116.247 617.526 116.144 617.176 116.366L617.578 116.999L617.981 117.632ZM621.398 113.693C621.047 113.914 620.942 114.377 621.163 114.728C621.384 115.078 621.847 115.183 622.198 114.962L621.798 114.328L621.398 113.693ZM624.728 113.371C625.079 113.151 625.185 112.688 624.965 112.337C624.745 111.986 624.282 111.88 623.931 112.1L624.33 112.735L624.728 113.371ZM628.154 109.463C627.802 109.682 627.695 110.144 627.913 110.496C628.132 110.847 628.594 110.955 628.946 110.737L628.55 110.1L628.154 109.463ZM631.509 109.147C631.861 108.93 631.97 108.467 631.752 108.115C631.534 107.763 631.072 107.654 630.72 107.872L631.114 108.51L631.509 109.147ZM635.017 105.226C634.664 105.442 634.553 105.904 634.77 106.257C634.986 106.61 635.448 106.721 635.801 106.505L635.409 105.865L635.017 105.226ZM638.377 104.93C638.73 104.715 638.842 104.253 638.627 103.9C638.411 103.546 637.95 103.434 637.596 103.65L637.986 104.29L638.377 104.93ZM641.894 101.042C641.539 101.256 641.425 101.717 641.64 102.072C641.854 102.426 642.315 102.54 642.669 102.326L642.282 101.684L641.894 101.042ZM645.245 100.775C645.6 100.562 645.715 100.101 645.502 99.7459C645.289 99.3908 644.828 99.2758 644.473 99.489L644.859 100.132L645.245 100.775ZM648.771 96.9206C648.415 97.1324 648.298 97.5926 648.509 97.9486C648.721 98.3046 649.181 98.4216 649.537 98.2099L649.154 97.5652L648.771 96.9206ZM652.113 96.6827C652.469 96.4719 652.587 96.0119 652.377 95.6554C652.166 95.2988 651.706 95.1807 651.349 95.3915L651.731 96.0371L652.113 96.6827ZM655.647 92.8631C655.289 93.0723 655.169 93.5318 655.378 93.8892C655.588 94.2467 656.047 94.3668 656.405 94.1576L656.026 93.5103L655.647 92.8631ZM658.979 92.6547C659.338 92.4463 659.459 91.9872 659.251 91.6292C659.042 91.2712 658.583 91.1499 658.225 91.3582L658.602 92.0064L658.979 92.6547ZM662.564 88.846C662.205 89.0527 662.082 89.5113 662.289 89.8702C662.496 90.2292 662.954 90.3526 663.313 90.1458L662.939 89.4959L662.564 88.846ZM665.939 88.6381C666.299 88.4323 666.423 87.9741 666.218 87.6146C666.012 87.2551 665.554 87.1305 665.194 87.3362L665.567 87.9871L665.939 88.6381ZM669.576 84.8416C669.216 85.0457 669.089 85.5034 669.293 85.8638C669.497 86.2243 669.955 86.351 670.316 86.147L669.946 85.4943L669.576 84.8416ZM672.941 84.6655C673.302 84.4624 673.43 84.0051 673.227 83.6441C673.024 83.2831 672.566 83.155 672.205 83.3581L672.573 84.0118L672.941 84.6655ZM676.586 80.9078C676.224 81.1092 676.094 81.5658 676.295 81.9278C676.496 82.2898 676.953 82.42 677.315 82.2187L676.95 81.5632L676.586 80.9078ZM679.939 80.764C680.301 80.5637 680.433 80.1074 680.233 79.7448C680.032 79.3823 679.576 79.2508 679.213 79.4511L679.576 80.1075L679.939 80.764ZM683.592 77.0459C683.228 77.2445 683.094 77.7002 683.293 78.0637C683.491 78.4272 683.947 78.5609 684.311 78.3624L683.951 77.7042L683.592 77.0459ZM686.933 76.9351C687.297 76.7376 687.432 76.2824 687.234 75.9183C687.037 75.5542 686.582 75.4191 686.218 75.6166L686.575 76.2758L686.933 76.9351ZM690.593 73.2575C690.228 73.4531 690.091 73.9077 690.286 74.2728C690.482 74.6379 690.937 74.7752 691.302 74.5795L690.947 73.9185L690.593 73.2575ZM693.981 73.1491C694.347 72.9546 694.485 72.5005 694.291 72.1347C694.096 71.769 693.642 71.6302 693.277 71.8246L693.629 72.4868L693.981 73.1491ZM697.833 69.4196C697.466 69.6118 697.325 70.0651 697.517 70.432C697.709 70.7989 698.162 70.9405 698.529 70.7482L698.181 70.0839L697.833 69.4196ZM701.247 69.3307C701.615 69.1398 701.758 68.687 701.567 68.3194C701.376 67.9518 700.923 67.8085 700.556 67.9994L700.901 68.665L701.247 69.3307ZM705.075 65.6705C704.706 65.8591 704.56 66.311 704.749 66.6797C704.937 67.0485 705.389 67.1946 705.758 67.0059L705.416 66.3382L705.075 65.6705ZM708.453 65.6338C708.822 65.4465 708.97 64.9952 708.783 64.6257C708.596 64.2562 708.144 64.1085 707.775 64.2958L708.114 64.9648L708.453 65.6338ZM712.256 62.0421C711.886 62.227 711.735 62.6774 711.92 63.0481C712.105 63.4187 712.555 63.5692 712.926 63.3843L712.591 62.7132L712.256 62.0421ZM715.599 62.057C715.97 61.8734 716.122 61.4236 715.939 61.0523C715.755 60.681 715.305 60.5287 714.934 60.7123L715.266 61.3846L715.599 62.057ZM719.378 58.533C719.005 58.7142 718.85 59.1631 719.032 59.5355C719.213 59.908 719.662 60.0631 720.034 59.8819L719.706 59.2074L719.378 58.533ZM722.684 58.5989C723.057 58.4192 723.214 57.9709 723.034 57.5977C722.855 57.2246 722.406 57.0678 722.033 57.2476L722.359 57.9233L722.684 58.5989ZM726.654 55.0402C726.28 55.2175 726.12 55.6647 726.297 56.0391C726.475 56.4134 726.922 56.5732 727.296 56.3959L726.975 55.7181L726.654 55.0402ZM730.078 55.0854C730.453 54.9097 730.615 54.4631 730.439 54.088C730.263 53.713 729.817 53.5514 729.442 53.7271L729.76 54.4063L730.078 55.0854ZM734.067 51.5792C733.691 51.7524 733.526 52.1978 733.699 52.5741C733.872 52.9503 734.318 53.115 734.694 52.9418L734.38 52.2605L734.067 51.5792ZM737.451 51.6799C737.828 51.5082 737.994 51.0635 737.823 50.6865C737.651 50.3095 737.206 50.143 736.829 50.3147L737.14 50.9973L737.451 51.6799ZM741.413 48.2472C741.035 48.4162 740.865 48.8598 741.034 49.238C741.203 49.6161 741.647 49.7857 742.025 49.6167L741.719 48.932L741.413 48.2472ZM744.756 48.4027C745.135 48.2353 745.307 47.7924 745.139 47.4135C744.972 47.0347 744.529 46.8633 744.15 47.0307L744.453 47.7167L744.756 48.4027ZM748.692 45.0427C748.312 45.2075 748.137 45.6491 748.302 46.0291C748.467 46.4092 748.908 46.5837 749.288 46.4189L748.99 45.7308L748.692 45.0427ZM751.995 45.2523C752.376 45.0891 752.552 44.6482 752.389 44.2675C752.226 43.8868 751.785 43.7104 751.404 43.8735L751.7 44.5629L751.995 45.2523ZM756.098 41.8827C755.716 42.043 755.536 42.4826 755.696 42.8645C755.857 43.2464 756.296 43.4261 756.678 43.2658L756.388 42.5742L756.098 41.8827ZM759.517 42.0818C759.899 41.9232 760.081 41.4844 759.922 41.1018C759.764 40.7191 759.325 40.5375 758.942 40.6961L759.229 41.3889L759.517 42.0818ZM763.66 38.7617C763.276 38.9174 763.091 39.3547 763.247 39.7386C763.403 40.1224 763.84 40.3074 764.224 40.1517L763.942 39.4567L763.66 38.7617ZM767.034 39.0194C767.419 38.8655 767.606 38.4289 767.452 38.0444C767.298 37.6598 766.861 37.4729 766.477 37.6268L766.755 38.3231L767.034 39.0194ZM771.148 35.7779C770.762 35.9289 770.572 36.3639 770.723 36.7497C770.874 37.1354 771.309 37.3257 771.695 37.1748L771.421 36.4763L771.148 35.7779ZM774.477 36.0934C774.863 35.9442 775.056 35.51 774.906 35.1236C774.757 34.7372 774.323 34.5448 773.937 34.694L774.207 35.3937L774.477 36.0934ZM778.562 32.9294C778.174 33.0756 777.978 33.5083 778.124 33.8958C778.271 34.2834 778.703 34.4791 779.091 34.333L778.826 33.6312L778.562 32.9294ZM781.846 33.3014C782.234 33.1571 782.432 32.7254 782.288 32.3371C782.143 31.9489 781.712 31.7511 781.323 31.8954L781.585 32.5984L781.846 33.3014ZM786.168 30.1176C785.778 30.2587 785.577 30.6888 785.718 31.0782C785.859 31.4677 786.289 31.669 786.679 31.528L786.423 30.8228L786.168 30.1176ZM789.563 30.4914C789.953 30.3523 790.156 29.9233 790.017 29.5331C789.878 29.143 789.449 28.9395 789.059 29.0786L789.311 29.785L789.563 30.4914ZM793.851 27.3924C793.46 27.5283 793.253 27.9556 793.389 28.3469C793.525 28.7382 793.952 28.9453 794.343 28.8095L794.097 28.101L793.851 27.3924ZM797.196 27.8275C797.588 27.6937 797.797 27.2674 797.664 26.8754C797.53 26.4834 797.104 26.2741 796.712 26.4079L796.954 27.1177L797.196 27.8275ZM801.452 24.812C801.059 24.9425 800.846 25.367 800.977 25.7601C801.107 26.1532 801.532 26.3662 801.925 26.2357L801.689 25.5239L801.452 24.812ZM804.747 25.3073C805.14 25.1789 805.356 24.7555 805.227 24.3617C805.099 23.968 804.675 23.7528 804.282 23.8813L804.514 24.5943L804.747 25.3073ZM808.974 22.3733C808.579 22.4983 808.36 22.9198 808.485 23.3147C808.61 23.7096 809.032 23.9283 809.427 23.8033L809.2 23.0883L808.974 22.3733ZM812.377 22.878C812.773 22.7551 812.994 22.3349 812.871 21.9393C812.748 21.5437 812.328 21.3226 811.933 21.4455L812.155 22.1617L812.377 22.878ZM816.835 19.9478C816.438 20.067 816.213 20.4852 816.332 20.8819C816.452 21.2786 816.87 21.5035 817.267 21.3843L817.051 20.6661L816.835 19.9478ZM820.183 20.517C820.58 20.4 820.807 19.9831 820.69 19.5857C820.573 19.1884 820.157 18.9611 819.759 19.0781L819.971 19.7975L820.183 20.517ZM824.604 17.6763C824.206 17.7896 823.975 18.2044 824.088 18.6028C824.201 19.0012 824.616 19.2324 825.014 19.1192L824.809 18.3978L824.604 17.6763ZM827.896 18.3088C828.295 18.1978 828.529 17.7844 828.418 17.3853C828.307 16.9862 827.893 16.7527 827.494 16.8637L827.695 17.5863L827.896 18.3088ZM832.282 15.5563C831.882 15.6635 831.644 16.0747 831.751 16.4748C831.859 16.8749 832.27 17.1124 832.67 17.0051L832.476 16.2807L832.282 15.5563ZM835.517 16.2508C835.918 16.1458 836.158 15.7359 836.053 15.3352C835.948 14.9345 835.538 14.6947 835.137 14.7997L835.327 15.5252L835.517 16.2508ZM840.116 13.5224C839.714 13.6233 839.471 14.0308 839.571 14.4325C839.672 14.8342 840.08 15.0781 840.482 14.9772L840.299 14.2498L840.116 13.5224ZM843.452 14.2407C843.854 14.1423 844.101 13.7363 844.002 13.334C843.904 12.9316 843.498 12.6853 843.095 12.7837L843.274 13.5122L843.452 14.2407ZM848.029 11.603C847.625 11.6974 847.375 12.1008 847.469 12.5042C847.563 12.9075 847.967 13.158 848.37 13.0636L848.199 12.3333L848.029 11.603ZM851.302 12.3872C851.706 12.2954 851.959 11.8935 851.867 11.4896C851.775 11.0857 851.373 10.8327 850.97 10.9246L851.136 11.6559L851.302 12.3872ZM855.839 9.84326C855.435 9.93095 855.177 10.3302 855.265 10.735C855.353 11.1399 855.752 11.3969 856.157 11.3093L855.998 10.5763L855.839 9.84326ZM859.051 10.6918C859.456 10.6066 859.716 10.2089 859.63 9.80356C859.545 9.3982 859.148 9.13865 858.742 9.22383L858.896 9.9578L859.051 10.6918ZM863.694 8.21096C863.288 8.29179 863.024 8.68665 863.105 9.0929C863.185 9.49915 863.58 9.76296 863.986 9.68213L863.84 8.94655L863.694 8.21096ZM866.999 9.09311C867.406 9.01497 867.672 8.62187 867.594 8.2151C867.516 7.80832 867.123 7.5419 866.716 7.62004L866.858 8.35657L866.999 9.09311ZM871.718 6.6879C871.31 6.76152 871.04 7.15164 871.113 7.55926C871.187 7.96688 871.577 8.23764 871.985 8.16402L871.851 7.42596L871.718 6.6879ZM874.955 7.63781C875.363 7.56692 875.636 7.17862 875.565 6.77052C875.494 6.36241 875.106 6.08905 874.698 6.15994L874.826 6.89888L874.955 7.63781ZM879.63 5.33158C879.221 5.3979 878.943 5.78312 879.01 6.19199C879.076 6.60086 879.461 6.87855 879.87 6.81223L879.75 6.0719L879.63 5.33158ZM882.798 6.34741C883.207 6.28385 883.488 5.90052 883.424 5.49121C883.36 5.0819 882.977 4.80162 882.568 4.86518L882.683 5.6063L882.798 6.34741ZM887.543 4.12192C887.133 4.18075 886.848 4.56082 886.907 4.97083C886.966 5.38085 887.346 5.66554 887.756 5.60672L887.65 4.86432L887.543 4.12192ZM890.797 5.18156C891.207 5.12567 891.495 4.74765 891.439 4.33723C891.383 3.9268 891.005 3.63939 890.594 3.69527L890.696 4.43842L890.797 5.18156ZM895.641 3.03881C895.23 3.08977 894.938 3.46431 894.989 3.87538C895.04 4.28645 895.415 4.57838 895.826 4.52742L895.734 3.78312L895.641 3.03881ZM898.82 4.16723C899.231 4.11925 899.526 3.74682 899.478 3.3354C899.43 2.92397 899.057 2.62934 898.646 2.67733L898.733 3.42228L898.82 4.16723ZM903.615 2.1281C903.203 2.1711 902.904 2.53994 902.947 2.95191C902.99 3.36389 903.359 3.663 903.771 3.61999L903.693 2.87404L903.615 2.1281ZM906.719 3.32311C907.131 3.2831 907.433 2.91645 907.393 2.50417C907.353 2.0919 906.986 1.79011 906.574 1.83012L906.646 2.57661L906.719 3.32311ZM911.613 1.37294C911.2 1.40778 910.894 1.77061 910.929 2.18336C910.963 2.59611 911.326 2.90246 911.739 2.86763L911.676 2.12029L911.613 1.37294ZM914.791 2.62186C915.204 2.59021 915.513 2.22975 915.482 1.81675C915.45 1.40375 915.09 1.0946 914.677 1.12625L914.734 1.87406L914.791 2.62186ZM919.741 0.770948C919.327 0.797267 919.013 1.15371 919.04 1.56709C919.066 1.98046 919.422 2.29424 919.836 2.26792L919.788 1.51943L919.741 0.770948ZM922.837 2.0885C923.251 2.06539 923.567 1.7114 923.544 1.29783C923.521 0.884259 923.167 0.56773 922.753 0.590841L922.795 1.33967L922.837 2.0885ZM927.732 0.344918C927.318 0.362663 926.997 0.712527 927.015 1.12636C927.033 1.54019 927.382 1.86129 927.796 1.84354L927.764 1.09423L927.732 0.344918ZM930.746 1.72855C931.16 1.71403 931.484 1.36669 931.47 0.952727C931.455 0.538768 931.108 0.214955 930.694 0.229472L930.72 0.979011L930.746 1.72855ZM935.823 0.084603C935.409 0.0934625 935.08 0.436354 935.089 0.850473C935.098 1.26459 935.441 1.59312 935.855 1.58426L935.839 0.834431L935.823 0.084603ZM938.9 1.53164C939.314 1.52619 939.646 1.18602 939.64 0.77184C939.635 0.357662 939.295 0.0263212 938.88 0.0317693L938.89 0.781704L938.9 1.53164ZM943.93 1.19209e-07C943.516 -0.000249088 943.18 0.335335 943.179 0.749549C943.179 1.16376 943.515 1.49975 943.929 1.5L943.929 0.75L943.93 1.19209e-07ZM946.918 1.51414C947.332 1.51781 947.671 1.18502 947.675 0.770818C947.678 0.356621 947.346 0.0178699 946.931 0.0141965L946.925 0.764167L946.918 1.51414ZM951.887 0.0922738C951.473 0.0828858 951.13 0.410975 951.121 0.825083C951.111 1.23919 951.439 1.5825 951.853 1.59189L951.87 0.842081L951.887 0.0922738ZM954.915 1.67454C955.329 1.68751 955.676 1.36241 955.689 0.948398C955.702 0.534388 955.376 0.188251 954.962 0.175279L954.939 0.924912L954.915 1.67454ZM960.064 0.37211C959.65 0.35313 959.299 0.673179 959.281 1.08696C959.262 1.50074 959.582 1.85155 959.995 1.87053L960.03 1.12132L960.064 0.37211ZM963.013 2.02209C963.426 2.04468 963.78 1.7277 963.802 1.3141C963.825 0.900506 963.508 0.54691 963.094 0.524326L963.054 1.27321L963.013 2.02209ZM968.094 0.833709C967.681 0.805116 967.323 1.11692 967.294 1.53015C967.265 1.94337 967.577 2.30154 967.99 2.33013L968.042 1.58192L968.094 0.833709ZM970.947 2.54762C971.36 2.57982 971.72 2.27114 971.753 1.85818C971.785 1.44522 971.476 1.08435 971.063 1.05216L971.005 1.79989L970.947 2.54762ZM976.13 1.48546C975.718 1.44706 975.352 1.75027 975.314 2.1627C975.275 2.57513 975.579 2.9406 975.991 2.979L976.061 2.23223L976.13 1.48546ZM979.024 3.27541C979.436 3.31758 979.805 3.01773 979.847 2.60566C979.889 2.1936 979.589 1.82538 979.177 1.78321L979.101 2.52931L979.024 3.27541ZM984.2 2.3358C983.788 2.28736 983.416 2.58158 983.367 2.99295C983.319 3.40432 983.613 3.77707 984.024 3.82551L984.112 3.08065L984.2 2.3358ZM986.991 4.18852C987.402 4.24071 987.777 3.9499 987.829 3.53899C987.882 3.12808 987.591 2.75266 987.18 2.70047L987.085 3.4445L986.991 4.18852ZM992.112 3.36506C991.702 3.30662 991.322 3.59166 991.264 4.00173C991.205 4.4118 991.49 4.79161 991.9 4.85006L992.006 4.10756L992.112 3.36506ZM994.937 5.29763C995.346 5.35998 995.729 5.07857 995.791 4.66908C995.854 4.25958 995.572 3.87708 995.163 3.81472L995.05 4.55618L994.937 5.29763ZM1000.19 4.62042C999.778 4.55159 999.391 4.8269 999.322 5.23535C999.254 5.64381 999.529 6.03073 999.937 6.09956L1000.06 5.35999L1000.19 4.62042ZM1002.9 6.61352C1003.31 6.68623 1003.7 6.4146 1003.77 6.00681C1003.84 5.59903 1003.57 5.20952 1003.16 5.13681L1003.03 5.87516L1002.9 6.61352ZM1008.07 6.05085C1007.66 5.97172 1007.27 6.23718 1007.19 6.64376C1007.11 7.05035 1007.37 7.4441 1007.78 7.52323L1007.92 6.78704L1008.07 6.05085ZM1010.72 8.11085C1011.13 8.19388 1011.53 7.93222 1011.61 7.52641C1011.69 7.12061 1011.43 6.72432 1011.03 6.64129L1010.87 7.37607L1010.72 8.11085ZM1016.03 7.70759C1015.62 7.61791 1015.22 7.87303 1015.13 8.27742C1015.04 8.68181 1015.3 9.08233 1015.7 9.17201L1015.87 8.4398L1016.03 7.70759ZM1018.65 9.84082C1019.05 9.93446 1019.46 9.68327 1019.55 9.27978C1019.64 8.87629 1019.39 8.47329 1018.99 8.37965L1018.82 9.11023L1018.65 9.84082ZM1023.86 9.55178C1023.46 9.45158 1023.05 9.69618 1022.95 10.0981C1022.85 10.5 1023.1 10.907 1023.5 11.0072L1023.68 10.2795L1023.86 9.55178ZM1026.37 11.7372C1026.77 11.8413 1027.18 11.6007 1027.28 11.1998C1027.38 10.7989 1027.14 10.3895 1026.74 10.2854L1026.55 11.0113L1026.37 11.7372ZM1031.69 11.6136C1031.29 11.5028 1030.88 11.7365 1030.76 12.1356C1030.65 12.5347 1030.89 12.9481 1031.29 13.0589L1031.49 12.3363L1031.69 11.6136ZM1034.2 13.8848C1034.6 13.9996 1035.02 13.7701 1035.13 13.3721C1035.25 12.9741 1035.02 12.5584 1034.62 12.4436L1034.41 13.1642L1034.2 13.8848ZM1039.43 13.8764C1039.04 13.7549 1038.62 13.9775 1038.5 14.3735C1038.37 14.7695 1038.6 15.189 1038.99 15.3105L1039.21 14.5934L1039.43 13.8764ZM1041.82 16.1944C1042.22 16.3198 1042.64 16.1015 1042.77 15.7067C1042.89 15.3119 1042.67 14.8902 1042.28 14.7648L1042.05 15.4796L1041.82 16.1944ZM1047.12 16.3497C1046.73 16.2175 1046.31 16.4287 1046.17 16.8212C1046.04 17.2138 1046.25 17.6392 1046.65 17.7713L1046.88 17.0605L1047.12 16.3497ZM1049.52 18.7544C1049.91 18.8906 1050.34 18.6838 1050.47 18.2926C1050.61 17.9014 1050.4 17.4739 1050.01 17.3378L1049.76 18.0461L1049.52 18.7544ZM1054.74 19.0304C1054.35 18.8876 1053.92 19.087 1053.78 19.4758C1053.64 19.8646 1053.84 20.2956 1054.23 20.4384L1054.48 19.7344L1054.74 19.0304ZM1057 21.475C1057.39 21.6218 1057.82 21.4267 1057.97 21.0394C1058.12 20.652 1057.92 20.219 1057.54 20.0723L1057.27 20.7737L1057 21.475ZM1062.29 21.9205C1061.9 21.767 1061.47 21.9545 1061.31 22.3393C1061.16 22.724 1061.35 23.1603 1061.73 23.3138L1062.01 22.6171L1062.29 21.9205ZM1064.54 24.452C1064.93 24.6095 1065.37 24.4266 1065.52 24.0434C1065.68 23.6603 1065.5 23.2221 1065.11 23.0646L1064.83 23.7583L1064.54 24.452ZM1069.74 25.0122C1069.36 24.8481 1068.92 25.0235 1068.75 25.4038C1068.59 25.7842 1068.77 26.2255 1069.15 26.3895L1069.44 25.7008L1069.74 25.0122ZM1071.86 27.5749C1072.23 27.7428 1072.68 27.572 1072.85 27.1933C1073.01 26.8147 1072.84 26.3716 1072.46 26.2037L1072.16 26.8893L1071.86 27.5749ZM1077.13 28.3234C1076.76 28.1488 1076.31 28.3118 1076.14 28.6874C1075.96 29.063 1076.12 29.509 1076.5 29.6836L1076.82 29.0035L1077.13 28.3234ZM1079.23 30.9724C1079.61 31.1509 1080.06 30.9927 1080.23 30.6189C1080.41 30.2452 1080.25 29.7974 1079.88 29.6189L1079.56 30.2956L1079.23 30.9724ZM1084.37 31.8115C1084 31.6264 1083.55 31.7769 1083.36 32.1475C1083.18 32.5181 1083.33 32.9685 1083.7 33.1535L1084.03 32.4825L1084.37 31.8115ZM1086.38 34.5121C1086.75 34.701 1087.21 34.5553 1087.39 34.1867C1087.58 33.8181 1087.44 33.3661 1087.07 33.1772L1086.73 33.8447L1086.38 34.5121ZM1091.59 35.5471C1091.23 35.3517 1090.77 35.4893 1090.58 35.8545C1090.38 36.2197 1090.52 36.6742 1090.89 36.8696L1091.24 36.2084L1091.59 35.5471ZM1093.53 38.3005C1093.89 38.4999 1094.34 38.3671 1094.54 38.004C1094.74 37.6409 1094.61 37.1849 1094.25 36.9856L1093.89 37.6431L1093.53 38.3005ZM1098.6 39.4227C1098.24 39.2171 1097.78 39.3419 1097.57 39.7014C1097.37 40.061 1097.49 40.5192 1097.85 40.7248L1098.22 40.0738L1098.6 39.4227ZM1100.51 42.2643C1100.87 42.4738 1101.33 42.3541 1101.54 41.9968C1101.75 41.6395 1101.63 41.1799 1101.27 40.9704L1100.89 41.6173L1100.51 42.2643ZM1105.61 43.5688C1105.26 43.3529 1104.79 43.4644 1104.58 43.8179C1104.36 44.1714 1104.47 44.633 1104.83 44.8489L1105.22 44.2089L1105.61 43.5688ZM1107.35 46.4088C1107.7 46.6284 1108.17 46.5218 1108.39 46.1706C1108.6 45.8194 1108.5 45.3567 1108.15 45.137L1107.75 45.7729L1107.35 46.4088ZM1112.44 47.875C1112.09 47.6491 1111.63 47.7474 1111.4 48.0945C1111.17 48.4417 1111.27 48.9063 1111.62 49.1322L1112.03 48.5036L1112.44 47.875ZM1114.15 50.7993C1114.5 51.029 1114.96 50.9358 1115.19 50.5911C1115.42 50.2464 1115.33 49.7807 1114.98 49.551L1114.57 50.1751L1114.15 50.7993ZM1119.1 52.3475C1118.76 52.1117 1118.29 52.1965 1118.06 52.5371C1117.82 52.8776 1117.9 53.3448 1118.25 53.5807L1118.67 52.9641L1119.1 52.3475ZM1120.75 55.3324C1121.08 55.572 1121.55 55.4922 1121.79 55.1543C1122.03 54.8164 1121.95 54.3483 1121.61 54.1087L1121.18 54.7206L1120.75 55.3324ZM1125.73 57.0856C1125.4 56.8399 1124.93 56.9109 1124.68 57.2444C1124.44 57.5778 1124.51 58.0474 1124.84 58.2931L1125.29 57.6893L1125.73 57.0856ZM1127.21 60.0619C1127.54 60.3112 1128.02 60.2452 1128.26 59.9144C1128.51 59.5837 1128.45 59.1134 1128.12 58.8641L1127.67 59.463L1127.21 60.0619ZM1132.16 61.9748C1131.84 61.7193 1131.37 61.7765 1131.11 62.1026C1130.86 62.4286 1130.91 62.9 1131.24 63.1555L1131.7 62.5652L1132.16 61.9748ZM1133.6 65.0296C1133.93 65.2887 1134.4 65.2368 1134.66 64.9137C1134.92 64.5905 1134.87 64.1185 1134.54 63.8594L1134.07 64.4445L1133.6 65.0296ZM1138.41 67.0178C1138.09 66.7527 1137.62 66.7958 1137.35 67.1141C1137.09 67.4324 1137.13 67.9053 1137.45 68.1704L1137.93 67.5941L1138.41 67.0178ZM1139.8 70.1552C1140.12 70.424 1140.59 70.3864 1140.86 70.0713C1141.13 69.7561 1141.09 69.2827 1140.77 69.0139L1140.29 69.5846L1139.8 70.1552ZM1144.53 72.2803C1144.22 72.0056 1143.75 72.0341 1143.47 72.3441C1143.2 72.654 1143.23 73.1281 1143.54 73.4028L1144.03 72.8416L1144.53 72.2803ZM1145.82 75.4484C1146.12 75.7269 1146.6 75.704 1146.88 75.3974C1147.15 75.0907 1147.13 74.6164 1146.82 74.3379L1146.32 74.8932L1145.82 75.4484ZM1150.52 77.7635C1150.22 77.4789 1149.75 77.4923 1149.46 77.7933C1149.18 78.0943 1149.19 78.569 1149.49 78.8536L1150.01 78.3085L1150.52 77.7635ZM1151.66 80.9284C1151.96 81.2166 1152.43 81.2091 1152.72 80.9116C1153.01 80.6141 1153 80.1393 1152.7 79.851L1152.18 80.3897L1151.66 80.9284ZM1156.31 83.4194C1156.02 83.1249 1155.54 83.1223 1155.25 83.4137C1154.96 83.705 1154.95 84.1798 1155.24 84.4743L1155.78 83.9468L1156.31 83.4194ZM1157.34 86.6234C1157.63 86.9216 1158.11 86.9304 1158.4 86.643C1158.7 86.3556 1158.71 85.8808 1158.42 85.5825L1157.88 86.103L1157.34 86.6234ZM1161.87 89.2382C1161.59 88.9335 1161.11 88.9138 1160.81 89.1943C1160.5 89.4748 1160.48 89.9493 1160.76 90.254L1161.31 89.7461L1161.87 89.2382ZM1162.84 92.5491C1163.12 92.8581 1163.59 92.885 1163.9 92.6091C1164.21 92.3333 1164.24 91.8592 1163.96 91.5502L1163.4 92.0496L1162.84 92.5491ZM1167.28 95.3616C1167.01 95.0452 1166.53 95.0055 1166.22 95.2729C1165.9 95.5403 1165.86 96.0135 1166.13 96.3299L1166.7 95.8457L1167.28 95.3616ZM1167.98 98.5643C1168.25 98.8854 1168.72 98.9337 1169.04 98.672C1169.36 98.4104 1169.41 97.938 1169.15 97.6169L1168.57 98.0906L1167.98 98.5643ZM1172.35 101.713C1172.1 101.381 1171.64 101.312 1171.3 101.559C1170.97 101.806 1170.9 102.276 1171.15 102.609L1171.75 102.161L1172.35 101.713ZM3.3687 690.132C3.95217 690.603 3.95217 690.603 3.95217 690.603C3.95217 690.603 3.95217 690.603 3.95218 690.603C3.95218 690.603 3.9522 690.603 3.95221 690.603C3.95224 690.603 3.95229 690.603 3.95236 690.603C3.95249 690.603 3.9527 690.603 3.95298 690.602C3.95354 690.602 3.95438 690.601 3.95552 690.599C3.95778 690.596 3.9612 690.592 3.96577 690.586C3.9749 690.575 3.98863 690.558 4.00693 690.536C4.04354 690.49 4.09846 690.422 4.17155 690.332C4.31772 690.152 4.53657 689.883 4.82698 689.526L4.24534 689.052L3.6637 688.579C3.37267 688.936 3.1532 689.207 3.00641 689.388C2.93302 689.478 2.87779 689.546 2.84088 689.592C2.82243 689.615 2.80855 689.632 2.79927 689.643C2.79462 689.649 2.79113 689.653 2.78879 689.656C2.78762 689.658 2.78674 689.659 2.78614 689.66C2.78584 689.66 2.78562 689.66 2.78547 689.661C2.78539 689.661 2.78533 689.661 2.78529 689.661C2.78527 689.661 2.78525 689.661 2.78524 689.661C2.78524 689.661 2.78523 689.661 2.78523 689.661C2.78522 689.661 2.78522 689.661 3.3687 690.132ZM7.47625 685.105L8.05562 685.581C8.57375 684.951 9.13981 684.263 9.75315 683.52L9.17462 683.043L8.59608 682.565C7.98218 683.309 7.41557 683.998 6.89688 684.629L7.47625 685.105ZM12.5669 678.943L13.144 679.422C13.7041 678.747 14.2888 678.044 14.898 677.312L14.3215 676.832L13.745 676.352C13.1354 677.085 12.5502 677.789 11.9897 678.464L12.5669 678.943ZM17.5707 672.937L18.1461 673.418C18.8044 672.63 19.4845 671.818 20.1862 670.981L19.6115 670.499L19.0367 670.017C18.3345 670.855 17.654 671.668 16.9953 672.456L17.5707 672.937ZM22.6649 666.863L23.2388 667.346C23.8741 666.591 24.5243 665.819 25.1892 665.031L24.6159 664.547L24.0426 664.064C23.3773 664.853 22.7267 665.625 22.091 666.38L22.6649 666.863ZM28.029 660.508L28.6014 660.993C29.1991 660.287 29.8069 659.57 30.4248 658.841L29.8529 658.356L29.281 657.871C28.6627 658.6 28.0546 659.317 27.4566 660.024L28.029 660.508ZM33.0273 654.62L33.5984 655.107C34.2498 654.341 34.9112 653.565 35.5826 652.778L35.0119 652.291L34.4413 651.804C33.7696 652.592 33.1079 653.369 32.4561 654.134L33.0273 654.62ZM38.42 648.302L38.9899 648.789C39.6002 648.076 40.218 647.355 40.843 646.626L40.2736 646.138L39.7042 645.65C39.0789 646.379 38.4609 647.101 37.8502 647.814L38.42 648.302ZM43.4601 642.427L44.0288 642.916C44.6781 642.161 45.3345 641.398 45.9982 640.627L45.43 640.138L44.8618 639.648C44.1978 640.419 43.541 641.182 42.8915 641.938L43.4601 642.427ZM48.8086 636.222L49.3761 636.713C50.0398 635.945 50.7101 635.17 51.387 634.388L50.82 633.897L50.253 633.406C49.5758 634.188 48.9052 634.963 48.2412 635.732L48.8086 636.222ZM53.9824 630.249L54.5487 630.741C55.1903 630.002 55.8374 629.257 56.4899 628.507L55.924 628.015L55.358 627.522C54.7052 628.273 54.0579 629.018 53.416 629.757L53.9824 630.249ZM59.2328 624.215L59.7981 624.708C60.4688 623.939 61.1449 623.164 61.8264 622.384L61.2615 621.891L60.6967 621.398C60.015 622.178 59.3386 622.953 58.6676 623.722L59.2328 624.215ZM64.6337 618.037L65.1978 618.531C65.8306 617.809 66.4678 617.082 67.1093 616.351L66.5455 615.856L65.9818 615.362C65.3401 616.093 64.7026 616.82 64.0696 617.542L64.6337 618.037ZM69.7898 612.164L70.3528 612.66C71.0087 611.914 71.669 611.164 72.3334 610.41L71.7708 609.915L71.2081 609.419C70.5433 610.173 69.8829 610.923 69.2267 611.669L69.7898 612.164ZM75.1293 606.109L75.6913 606.606C76.3699 605.838 77.0528 605.066 77.7399 604.289L77.1783 603.792L76.6167 603.295C75.9294 604.072 75.2462 604.844 74.5673 605.612L75.1293 606.109ZM80.5156 600.027L81.0766 600.525C81.7201 599.8 82.3671 599.072 83.0177 598.34L82.4571 597.841L81.8966 597.343C81.2458 598.075 80.5985 598.804 79.9547 599.529L80.5156 600.027ZM85.7395 594.154L86.2994 594.653C86.9615 593.91 87.6271 593.164 88.2961 592.414L87.7366 591.915L87.1771 591.415C86.5078 592.165 85.8419 592.912 85.1796 593.655L85.7395 594.154ZM91.111 588.14L91.6698 588.64C92.3503 587.88 93.0341 587.116 93.7214 586.35L93.1629 585.849L92.6044 585.348C91.9169 586.115 91.2328 586.879 90.5521 587.639L91.111 588.14ZM96.5569 582.068L97.1147 582.569C97.7637 581.847 98.4157 581.122 99.0706 580.395L98.5132 579.893L97.9558 579.391C97.3006 580.119 96.6484 580.844 95.9991 581.567L96.5569 582.068ZM101.812 576.233L102.369 576.735C103.033 575.999 103.701 575.26 104.371 574.519L103.814 574.016L103.258 573.513C102.588 574.255 101.92 574.994 101.255 575.73L101.812 576.233ZM107.189 570.287L107.745 570.79C108.425 570.04 109.107 569.288 109.792 568.533L109.237 568.029L108.682 567.525C107.996 568.28 107.313 569.033 106.634 569.783L107.189 570.287ZM112.687 564.233L113.241 564.738C113.912 564 114.586 563.261 115.262 562.519L114.708 562.014L114.153 561.509C113.477 562.251 112.803 562.991 112.132 563.728L112.687 564.233ZM118.013 558.391L118.567 558.897C119.232 558.169 119.899 557.439 120.569 556.707L120.016 556.201L119.463 555.695C118.793 556.427 118.125 557.157 117.46 557.885L118.013 558.391ZM123.386 552.523L123.938 553.03C124.616 552.291 125.296 551.55 125.979 550.808L125.426 550.3L124.874 549.793C124.191 550.536 123.511 551.277 122.833 552.016L123.386 552.523ZM128.859 546.569L129.411 547.077C130.101 546.328 130.794 545.576 131.489 544.823L130.938 544.314L130.386 543.806C129.691 544.559 128.998 545.311 128.308 546.061L128.859 546.569ZM134.353 540.617L134.903 541.127C135.568 540.408 136.235 539.687 136.905 538.965L136.354 538.455L135.804 537.945C135.135 538.668 134.467 539.389 133.802 540.108L134.353 540.617ZM139.718 534.829L140.267 535.339C140.943 534.611 141.621 533.882 142.301 533.15L141.752 532.64L141.203 532.129C140.523 532.86 139.844 533.59 139.168 534.318L139.718 534.829ZM145.17 528.97L145.718 529.481C146.405 528.745 147.094 528.007 147.784 527.267L147.236 526.755L146.688 526.244C145.997 526.983 145.308 527.722 144.621 528.458L145.17 528.97ZM150.707 523.044L151.254 523.557C151.952 522.812 152.651 522.065 153.352 521.318L152.805 520.805L152.258 520.292C151.557 521.04 150.857 521.786 150.159 522.531L150.707 523.044ZM156.197 517.192L156.744 517.706C157.418 516.988 158.095 516.27 158.773 515.549L158.227 515.035L157.681 514.521C157.002 515.242 156.326 515.961 155.651 516.678L156.197 517.192ZM161.633 511.423L162.178 511.938C162.862 511.213 163.548 510.487 164.235 509.76L163.69 509.245L163.145 508.73C162.457 509.457 161.772 510.183 161.087 510.908L161.633 511.423ZM167.142 505.598L167.687 506.114C168.38 505.383 169.075 504.65 169.771 503.917L169.228 503.4L168.684 502.884C167.987 503.618 167.292 504.351 166.598 505.082L167.142 505.598ZM172.725 499.721L173.269 500.238C173.971 499.5 174.675 498.761 175.38 498.021L174.838 497.503L174.295 496.986C173.589 497.726 172.885 498.466 172.182 499.204L172.725 499.721ZM178.255 493.924L178.797 494.442C179.479 493.729 180.163 493.014 180.848 492.298L180.306 491.779L179.765 491.261C179.079 491.977 178.395 492.692 177.712 493.406L178.255 493.924ZM183.746 488.191L184.287 488.71C184.978 487.991 185.669 487.271 186.363 486.549L185.822 486.03L185.281 485.51C184.588 486.231 183.896 486.952 183.205 487.671L183.746 488.191ZM189.302 482.414L189.842 482.935C190.54 482.21 191.24 481.485 191.941 480.759L191.402 480.238L190.862 479.717C190.161 480.443 189.461 481.169 188.762 481.894L189.302 482.414ZM194.921 476.597L195.46 477.118C196.166 476.389 196.874 475.658 197.583 474.927L197.045 474.405L196.506 473.883C195.797 474.615 195.089 475.345 194.382 476.075L194.921 476.597ZM200.517 470.828L201.055 471.351C201.744 470.642 202.434 469.933 203.126 469.222L202.588 468.699L202.051 468.176C201.359 468.887 200.669 469.596 199.98 470.305L200.517 470.828ZM206.057 465.141L206.594 465.665C207.29 464.952 207.987 464.238 208.686 463.524L208.15 463L207.613 462.475C206.914 463.19 206.217 463.904 205.521 464.617L206.057 465.141ZM211.654 459.42L212.189 459.945C212.892 459.229 213.596 458.511 214.302 457.792L213.767 457.267L213.232 456.741C212.526 457.46 211.821 458.178 211.118 458.895L211.654 459.42ZM217.306 453.668L217.84 454.194C218.55 453.474 219.261 452.752 219.973 452.03L219.439 451.503L218.905 450.977C218.193 451.699 217.481 452.421 216.771 453.142L217.306 453.668ZM222.985 447.914L223.518 448.441C224.213 447.739 224.909 447.035 225.606 446.331L225.073 445.804L224.541 445.276C223.843 445.98 223.147 446.683 222.451 447.386L222.985 447.914ZM228.57 442.279L229.102 442.807C229.804 442.101 230.506 441.395 231.21 440.688L230.678 440.159L230.146 439.63C229.442 440.337 228.74 441.044 228.038 441.75L228.57 442.279ZM234.206 436.618L234.737 437.148C235.444 436.439 236.153 435.729 236.862 435.019L236.332 434.489L235.801 433.959C235.091 434.669 234.383 435.379 233.675 436.088L234.206 436.618ZM239.89 430.934L240.42 431.465C241.133 430.753 241.848 430.04 242.564 429.328L242.034 428.796L241.505 428.265C240.789 428.978 240.074 429.691 239.361 430.403L239.89 430.934ZM245.623 425.227L246.151 425.759C246.864 425.051 247.578 424.343 248.293 423.634L247.765 423.101L247.237 422.569C246.522 423.278 245.807 423.987 245.094 424.695L245.623 425.227ZM251.29 419.611L251.817 420.144C252.524 419.446 253.231 418.747 253.94 418.047L253.413 417.514L252.886 416.98C252.177 417.68 251.469 418.379 250.763 419.078L251.29 419.611ZM256.966 414.012L257.492 414.547C258.204 413.846 258.917 413.145 259.631 412.443L259.105 411.908L258.58 411.373C257.865 412.075 257.152 412.776 256.439 413.478L256.966 414.012ZM262.685 408.396L263.21 408.932C263.927 408.229 264.645 407.526 265.365 406.822L264.84 406.286L264.316 405.75C263.596 406.454 262.878 407.157 262.16 407.86L262.685 408.396ZM268.447 402.765L268.97 403.302C269.693 402.597 270.417 401.892 271.141 401.186L270.618 400.649L270.095 400.111C269.37 400.817 268.646 401.523 267.923 402.228L268.447 402.765ZM274.22 397.148L274.743 397.686C275.455 396.995 276.168 396.304 276.882 395.612L276.36 395.073L275.839 394.534C275.124 395.227 274.411 395.918 273.698 396.61L274.22 397.148ZM279.939 391.611L280.46 392.151C281.178 391.458 281.896 390.765 282.615 390.072L282.094 389.532L281.574 388.992C280.854 389.685 280.136 390.379 279.418 391.072L279.939 391.611ZM285.697 386.063L286.217 386.604C286.939 385.91 287.662 385.216 288.386 384.521L287.866 383.98L287.347 383.439C286.623 384.134 285.9 384.828 285.178 385.522L285.697 386.063ZM291.493 380.505L292.012 381.047C292.739 380.352 293.466 379.657 294.195 378.961L293.677 378.419L293.159 377.876C292.43 378.572 291.702 379.268 290.975 379.963L291.493 380.505ZM297.327 374.939L297.844 375.482C298.575 374.786 299.307 374.09 300.04 373.394L299.524 372.85L299.007 372.306C298.274 373.003 297.542 373.7 296.81 374.396L297.327 374.939ZM303.132 369.427L303.648 369.972C304.371 369.287 305.095 368.602 305.819 367.917L305.304 367.372L304.789 366.827C304.064 367.513 303.34 368.198 302.617 368.883L303.132 369.427ZM308.934 363.946L309.449 364.492C310.176 363.807 310.904 363.121 311.633 362.436L311.119 361.89L310.605 361.343C309.876 362.029 309.148 362.715 308.42 363.4L308.934 363.946ZM314.77 358.461L315.283 359.008C316.015 358.322 316.747 357.636 317.48 356.95L316.968 356.403L316.455 355.855C315.722 356.541 314.989 357.228 314.257 357.914L314.77 358.461ZM320.64 352.972L321.152 353.521C321.887 352.834 322.624 352.148 323.361 351.462L322.85 350.913L322.339 350.364C321.601 351.051 320.864 351.737 320.129 352.424L320.64 352.972ZM326.542 347.481L327.053 348.031C327.784 347.353 328.516 346.674 329.249 345.996L328.739 345.445L328.23 344.895C327.497 345.574 326.764 346.253 326.032 346.932L326.542 347.481ZM332.4 342.061L332.909 342.612C333.642 341.935 334.376 341.259 335.111 340.582L334.603 340.03L334.095 339.479C333.36 340.156 332.625 340.833 331.892 341.51L332.4 342.061ZM338.283 336.646L338.79 337.199C339.527 336.522 340.265 335.846 341.004 335.169L340.497 334.616L339.99 334.063C339.252 334.74 338.513 335.417 337.776 336.094L338.283 336.646ZM344.196 331.233L344.702 331.787C345.442 331.111 346.184 330.435 346.926 329.758L346.421 329.204L345.916 328.65C345.173 329.326 344.431 330.003 343.69 330.679L344.196 331.233ZM350.138 325.823L350.642 326.378C351.387 325.702 352.132 325.027 352.878 324.351L352.374 323.795L351.87 323.239C351.124 323.915 350.379 324.592 349.634 325.268L350.138 325.823ZM356.099 320.426L356.602 320.983C357.342 320.314 358.083 319.646 358.824 318.978L358.322 318.421L357.82 317.864C357.078 318.532 356.337 319.201 355.596 319.869L356.099 320.426ZM362.036 315.081L362.537 315.639C363.28 314.972 364.025 314.304 364.77 313.637L364.269 313.078L363.769 312.52C363.023 313.187 362.279 313.855 361.535 314.523L362.036 315.081ZM367.999 309.742L368.499 310.302C369.246 309.635 369.993 308.968 370.742 308.302L370.243 307.742L369.744 307.182C368.995 307.849 368.247 308.516 367.5 309.183L367.999 309.742ZM373.99 304.411L374.487 304.972C375.238 304.306 375.988 303.64 376.74 302.975L376.243 302.414L375.745 301.852C374.994 302.518 374.242 303.184 373.492 303.85L373.99 304.411ZM380.005 299.088L380.502 299.65C381.255 298.986 382.009 298.321 382.764 297.657L382.268 297.094L381.772 296.531C381.017 297.196 380.263 297.86 379.509 298.525L380.005 299.088ZM386.032 293.788L386.526 294.351C387.277 293.693 388.029 293.034 388.781 292.376L388.288 291.812L387.794 291.247C387.041 291.906 386.289 292.565 385.537 293.224L386.032 293.788ZM392.055 288.522L392.547 289.088C393.302 288.43 394.056 287.773 394.811 287.116L394.319 286.551L393.827 285.985C393.072 286.642 392.316 287.299 391.562 287.957L392.055 288.522ZM398.101 283.268L398.592 283.835C399.349 283.18 400.107 282.524 400.865 281.869L400.375 281.302L399.884 280.734C399.126 281.39 398.368 282.045 397.61 282.702L398.101 283.268ZM404.171 278.028L404.66 278.596C405.42 277.942 406.18 277.288 406.941 276.635L406.453 276.066L405.964 275.497C405.203 276.151 404.442 276.805 403.681 277.459L404.171 278.028ZM410.263 272.801L410.75 273.371C411.513 272.719 412.276 272.067 413.04 271.415L412.553 270.845L412.066 270.274C411.302 270.926 410.538 271.578 409.775 272.231L410.263 272.801ZM416.365 267.599L416.851 268.17C417.613 267.522 418.376 266.875 419.139 266.228L418.654 265.656L418.17 265.084C417.406 265.731 416.642 266.379 415.879 267.027L416.365 267.599ZM422.477 262.423L422.961 262.996C423.726 262.35 424.491 261.705 425.257 261.06L424.774 260.486L424.291 259.912C423.525 260.558 422.759 261.203 421.993 261.85L422.477 262.423ZM428.609 257.264L429.091 257.838C429.859 257.195 430.627 256.552 431.395 255.909L430.914 255.334L430.433 254.759C429.664 255.402 428.895 256.045 428.127 256.689L428.609 257.264ZM434.761 252.123L435.241 252.7C436.011 252.058 436.782 251.418 437.553 250.777L437.074 250.2L436.594 249.623C435.823 250.264 435.052 250.905 434.282 251.547L434.761 252.123ZM440.933 247.002L441.411 247.58C442.183 246.941 442.956 246.303 443.729 245.666L443.252 245.087L442.775 244.508C442.001 245.146 441.228 245.785 440.455 246.424L440.933 247.002ZM447.121 241.903L447.597 242.483C448.371 241.847 449.146 241.212 449.921 240.577L449.446 239.997L448.971 239.417C448.195 240.052 447.42 240.688 446.645 241.324L447.121 241.903ZM453.326 236.827L453.8 237.409C454.576 236.776 455.353 236.143 456.13 235.511L455.657 234.929L455.184 234.347C454.406 234.98 453.629 235.613 452.852 236.246L453.326 236.827ZM459.548 231.774L460.02 232.357C460.798 231.727 461.577 231.097 462.357 230.469L461.886 229.885L461.415 229.301C460.635 229.93 459.855 230.56 459.076 231.191L459.548 231.774ZM465.787 226.744L466.257 227.329C467.037 226.702 467.818 226.076 468.6 225.45L468.131 224.865L467.662 224.279C466.88 224.905 466.099 225.532 465.318 226.16L465.787 226.744ZM472.043 221.74L472.51 222.326C473.294 221.702 474.077 221.078 474.861 220.455L474.395 219.868L473.928 219.281C473.144 219.904 472.359 220.528 471.575 221.153L472.043 221.74ZM478.326 216.751L478.791 217.34C479.578 216.718 480.365 216.096 481.152 215.476L480.688 214.887L480.223 214.298C479.435 214.919 478.648 215.541 477.861 216.163L478.326 216.751ZM484.628 211.787L485.091 212.378C485.88 211.759 486.669 211.141 487.458 210.524L486.996 209.933L486.534 209.342C485.744 209.96 484.955 210.578 484.166 211.197L484.628 211.787ZM490.945 206.852L491.406 207.444C492.196 206.829 492.987 206.215 493.778 205.601L493.318 205.009L492.858 204.416C492.067 205.03 491.276 205.645 490.485 206.26L490.945 206.852ZM497.276 201.946L497.735 202.54C498.526 201.928 499.319 201.318 500.111 200.708L499.654 200.114L499.197 199.52C498.403 200.13 497.611 200.741 496.818 201.352L497.276 201.946ZM503.621 197.071L504.076 197.666C504.873 197.056 505.671 196.447 506.468 195.839L506.013 195.243L505.558 194.646C504.76 195.255 503.962 195.865 503.165 196.475L503.621 197.071ZM510.01 192.202L510.464 192.8C511.263 192.193 512.063 191.587 512.863 190.982L512.411 190.384L511.959 189.786C511.158 190.391 510.357 190.998 509.557 191.605L510.01 192.202ZM516.415 187.365L516.866 187.964C517.667 187.362 518.469 186.76 519.27 186.16L518.82 185.559L518.371 184.959C517.568 185.56 516.766 186.163 515.965 186.765L516.415 187.365ZM522.832 182.562L523.281 183.163C524.083 182.565 524.886 181.968 525.689 181.372L525.242 180.77L524.795 180.167C523.991 180.764 523.187 181.362 522.384 181.96L522.832 182.562ZM529.26 177.794L529.706 178.397C530.51 177.804 531.314 177.211 532.118 176.62L531.674 176.016L531.229 175.411C530.424 176.004 529.62 176.597 528.815 177.191L529.26 177.794ZM535.704 173.06L536.146 173.665C536.958 173.071 537.771 172.478 538.583 171.886L538.141 171.28L537.7 170.674C536.887 171.267 536.074 171.86 535.261 172.454L535.704 173.06ZM542.208 168.326L542.648 168.934C543.461 168.345 544.274 167.757 545.088 167.17L544.649 166.561L544.21 165.953C543.396 166.541 542.582 167.129 541.768 167.719L542.208 168.326ZM548.721 163.632L549.158 164.242C549.973 163.658 550.788 163.075 551.602 162.493L551.166 161.883L550.73 161.272C549.915 161.855 549.1 162.438 548.284 163.023L548.721 163.632ZM555.244 158.979L555.678 159.591C556.494 159.012 557.309 158.434 558.125 157.857L557.692 157.245L557.259 156.633C556.443 157.21 555.626 157.788 554.81 158.368L555.244 158.979ZM561.775 154.368L562.206 154.982C563.022 154.408 563.839 153.836 564.656 153.264L564.226 152.65L563.796 152.035C562.978 152.607 562.161 153.18 561.344 153.754L561.775 154.368ZM568.335 149.784L568.763 150.4C569.59 149.826 570.417 149.252 571.244 148.68L570.818 148.063L570.391 147.446C569.563 148.019 568.735 148.593 567.907 149.169L568.335 149.784ZM574.957 145.208L575.382 145.827C576.209 145.258 577.037 144.69 577.865 144.123L577.442 143.504L577.018 142.885C576.189 143.453 575.36 144.021 574.532 144.59L574.957 145.208ZM581.585 140.679L582.006 141.299C582.835 140.736 583.663 140.174 584.492 139.614L584.072 138.993L583.651 138.371C582.822 138.933 581.992 139.495 581.163 140.059L581.585 140.679ZM588.219 136.197L588.637 136.82C589.466 136.263 590.295 135.707 591.124 135.152L590.708 134.529L590.291 133.905C589.46 134.461 588.63 135.017 587.8 135.574L588.219 136.197ZM594.858 131.764L595.272 132.389C596.102 131.838 596.932 131.289 597.762 130.74L597.348 130.114L596.935 129.489C596.104 130.038 595.273 130.588 594.443 131.139L594.858 131.764ZM601.555 127.346L601.966 127.973C602.809 127.421 603.651 126.87 604.494 126.32L604.084 125.692L603.674 125.064C602.831 125.614 601.987 126.166 601.144 126.718L601.555 127.346ZM608.299 122.952L608.707 123.581C609.55 123.036 610.393 122.492 611.236 121.949L610.83 121.318L610.423 120.688C609.58 121.231 608.736 121.776 607.892 122.322L608.299 122.952ZM615.047 118.612L615.451 119.244C616.294 118.705 617.137 118.168 617.981 117.632L617.578 116.999L617.176 116.366C616.332 116.903 615.488 117.441 614.643 117.98L615.047 118.612ZM621.798 114.328L622.198 114.962C623.041 114.43 623.885 113.9 624.728 113.371L624.33 112.735L623.931 112.1C623.087 112.63 622.242 113.161 621.398 113.693L621.798 114.328ZM628.55 110.1L628.946 110.737C629.8 110.206 630.655 109.676 631.509 109.147L631.114 108.51L630.72 107.872C629.865 108.401 629.009 108.931 628.154 109.463L628.55 110.1ZM635.409 105.865L635.801 106.505C636.66 105.978 637.518 105.454 638.377 104.93L637.986 104.29L637.596 103.65C636.736 104.174 635.877 104.699 635.017 105.226L635.409 105.865ZM642.282 101.684L642.669 102.326C643.528 101.808 644.386 101.291 645.245 100.775L644.859 100.132L644.473 99.489C643.613 100.005 642.754 100.523 641.894 101.042L642.282 101.684ZM649.154 97.5652L649.537 98.2099C650.396 97.6993 651.254 97.1902 652.113 96.6827L651.731 96.0371L651.349 95.3915C650.49 95.8997 649.63 96.4094 648.771 96.9206L649.154 97.5652ZM656.026 93.5103L656.405 94.1576C657.263 93.6551 658.121 93.1541 658.979 92.6547L658.602 92.0064L658.225 91.3582C657.366 91.8583 656.506 92.3599 655.647 92.8631L656.026 93.5103ZM662.939 89.4959L663.313 90.1458C664.189 89.6416 665.064 89.139 665.939 88.6381L665.567 87.9871L665.194 87.3362C664.318 87.8378 663.441 88.3411 662.564 88.846L662.939 89.4959ZM669.946 85.4943L670.316 86.147C671.191 85.6515 672.066 85.1576 672.941 84.6655L672.573 84.0118L672.205 83.3581C671.329 83.8509 670.453 84.3455 669.576 84.8416L669.946 85.4943ZM676.95 81.5632L677.315 82.2187C678.19 81.7321 679.064 81.2472 679.939 80.764L679.576 80.1075L679.213 79.4511C678.338 79.935 677.462 80.4205 676.586 80.9078L676.95 81.5632ZM683.951 77.7042L684.311 78.3624C685.185 77.8849 686.059 77.4091 686.933 76.9351L686.575 76.2758L686.218 75.6166C685.342 76.0913 684.467 76.5678 683.592 77.0459L683.951 77.7042ZM690.947 73.9185L691.302 74.5795C691.738 74.3455 692.175 74.1118 692.612 73.8786L692.258 73.2171L691.905 72.5555C691.468 72.7891 691.03 73.023 690.593 73.2575L690.947 73.9185ZM692.258 73.2171L692.612 73.8786C693.068 73.6347 693.525 73.3915 693.981 73.1491L693.629 72.4868L693.277 71.8246C692.82 72.0675 692.363 72.3112 691.905 72.5555L692.258 73.2171ZM698.181 70.0839L698.529 70.7482C699.437 70.2729 700.343 69.8003 701.247 69.3307L700.901 68.665L700.556 67.9994C699.65 68.47 698.742 68.9433 697.833 69.4196L698.181 70.0839ZM705.416 66.3382L705.758 67.0059C706.658 66.5457 707.556 66.0883 708.453 65.6338L708.114 64.9648L707.775 64.2958C706.876 64.7512 705.976 65.2094 705.075 65.6705L705.416 66.3382ZM712.591 62.7132L712.926 63.3843C713.818 62.9391 714.709 62.4966 715.599 62.057L715.266 61.3846L714.934 60.7123C714.043 61.1528 713.15 61.596 712.256 62.0421L712.591 62.7132ZM719.706 59.2074L720.034 59.8819C720.919 59.4515 721.802 59.0238 722.684 58.5989L722.359 57.9233L722.033 57.2476C721.149 57.6733 720.264 58.1018 719.378 58.533L719.706 59.2074ZM726.975 55.7181L727.296 56.3959C728.225 55.956 729.152 55.5192 730.078 55.0854L729.76 54.4063L729.442 53.7271C728.514 54.1618 727.585 54.5995 726.654 55.0402L726.975 55.7181ZM734.38 52.2605L734.694 52.9418C735.615 52.5181 736.533 52.0975 737.451 51.6799L737.14 50.9973L736.829 50.3147C735.91 50.7332 734.989 51.1547 734.067 51.5792L734.38 52.2605ZM741.719 48.932L742.025 49.6167C742.937 49.209 743.847 48.8044 744.756 48.4027L744.453 47.7167L744.15 47.0307C743.239 47.4332 742.327 47.8387 741.413 48.2472L741.719 48.932ZM748.99 45.7308L749.288 46.4189C750.192 46.0271 751.094 45.6382 751.995 45.2523L751.7 44.5629L751.404 43.8735C750.502 44.2603 749.597 44.65 748.692 45.0427L748.99 45.7308ZM756.388 42.5742L756.678 43.2658C757.626 42.8678 758.572 42.4732 759.517 42.0818L759.229 41.3889L758.942 40.6961C757.996 41.0884 757.048 41.4839 756.098 41.8827L756.388 42.5742ZM763.942 39.4567L764.224 40.1517C765.162 39.7711 766.099 39.3936 767.034 39.0194L766.755 38.3231L766.477 37.6268C765.54 38.0019 764.601 38.3802 763.66 38.7617L763.942 39.4567ZM771.421 36.4763L771.695 37.1748C772.624 36.8111 773.551 36.4507 774.477 36.0934L774.207 35.3937L773.937 34.694C773.009 35.0521 772.079 35.4134 771.148 35.7779L771.421 36.4763ZM778.826 33.6312L779.091 34.333C780.011 33.986 780.929 33.6422 781.846 33.3014L781.585 32.5984L781.323 31.8954C780.405 32.237 779.484 32.5817 778.562 32.9294L778.826 33.6312ZM786.423 30.8228L786.679 31.528C787.642 31.179 788.603 30.8335 789.563 30.4914L789.311 29.785L789.059 29.0786C788.097 29.4215 787.133 29.7678 786.168 30.1176L786.423 30.8228ZM794.097 28.101L794.343 28.8095C795.296 28.4788 796.247 28.1515 797.196 27.8275L796.954 27.1177L796.712 26.4079C795.76 26.7327 794.807 27.0609 793.851 27.3924L794.097 28.101ZM801.689 25.5239L801.925 26.2357C802.867 25.9229 803.808 25.6135 804.747 25.3073L804.514 24.5943L804.282 23.8813C803.34 24.1882 802.397 24.4985 801.452 24.812L801.689 25.5239ZM809.2 23.0883L809.427 23.8033C810.412 23.4912 811.396 23.1828 812.377 22.878L812.155 22.1617L811.933 21.4455C810.948 21.7511 809.962 22.0603 808.974 22.3733L809.2 23.0883ZM817.051 20.6661L817.267 21.3843C818.241 21.0916 819.213 20.8025 820.183 20.517L819.971 19.7975L819.759 19.0781C818.787 19.3644 817.812 19.6543 816.835 19.9478L817.051 20.6661ZM824.809 18.3978L825.014 19.1192C825.977 18.8455 826.938 18.5754 827.896 18.3088L827.695 17.5863L827.494 16.8637C826.533 17.1311 825.57 17.4019 824.604 17.6763L824.809 18.3978ZM832.476 16.2807L832.67 17.0051C833.621 16.7502 834.57 16.4987 835.517 16.2508L835.327 15.5252L835.137 14.7997C834.188 15.0484 833.236 15.3006 832.282 15.5563L832.476 16.2807ZM840.299 14.2498L840.482 14.9772C841.474 14.7279 842.464 14.4824 843.452 14.2407L843.274 13.5122L843.095 12.7837C842.105 13.0261 841.112 13.2724 840.116 13.5224L840.299 14.2498ZM848.199 12.3333L848.37 13.0636C849.35 12.8344 850.327 12.609 851.302 12.3872L851.136 11.6559L850.97 10.9246C849.992 11.147 849.011 11.3732 848.029 11.603L848.199 12.3333ZM855.998 10.5763L856.157 11.3093C857.124 11.0998 858.088 10.894 859.051 10.6918L858.896 9.9578L858.742 9.22383C857.777 9.42666 856.809 9.63312 855.839 9.84326L855.998 10.5763ZM863.84 8.94655L863.986 9.68213C864.993 9.48181 865.997 9.28548 866.999 9.09311L866.858 8.35657L866.716 7.62004C865.711 7.81304 864.704 8.01 863.694 8.21096L863.84 8.94655ZM871.851 7.42596L871.985 8.16402C872.977 7.98473 873.967 7.80934 874.955 7.63781L874.826 6.89888L874.698 6.15994C873.707 6.33204 872.714 6.50802 871.718 6.6879L871.851 7.42596ZM879.75 6.0719L879.87 6.81223C880.849 6.65349 881.825 6.49856 882.798 6.34741L882.683 5.6063L882.568 4.86518C881.591 5.01685 880.612 5.1723 879.63 5.33158L879.75 6.0719ZM887.65 4.86432L887.756 5.60672C888.773 5.46088 889.786 5.31917 890.797 5.18156L890.696 4.43842L890.594 3.69527C889.58 3.83337 888.563 3.97557 887.543 4.12192L887.65 4.86432ZM895.734 3.78312L895.826 4.52742C896.827 4.40334 897.825 4.28329 898.82 4.16723L898.733 3.42228L898.646 2.67733C897.647 2.79381 896.646 2.91429 895.641 3.03881L895.734 3.78312ZM903.693 2.87404L903.771 3.61999C904.757 3.51712 905.739 3.41817 906.719 3.32311L906.646 2.57661L906.574 1.83012C905.591 1.92553 904.604 2.02485 903.615 2.1281L903.693 2.87404ZM911.676 2.12029L911.739 2.86763C912.76 2.78149 913.777 2.69959 914.791 2.62186L914.734 1.87406L914.677 1.12625C913.659 1.20427 912.637 1.28648 911.613 1.37294L911.676 2.12029ZM919.788 1.51943L919.836 2.26792C920.839 2.20402 921.84 2.14423 922.837 2.0885L922.795 1.33967L922.753 0.590841C921.752 0.646783 920.748 0.706803 919.741 0.770948L919.788 1.51943ZM927.764 1.09423L927.796 1.84354C928.783 1.80124 929.766 1.76292 930.746 1.72855L930.72 0.979011L930.694 0.229472C929.71 0.26398 928.723 0.302447 927.732 0.344918L927.764 1.09423ZM935.839 0.834431L935.855 1.58426C936.873 1.56247 937.889 1.54495 938.9 1.53164L938.89 0.781704L938.88 0.0317693C937.865 0.0451298 936.846 0.0627235 935.823 0.084603L935.839 0.834431ZM943.929 0.75L943.929 1.5C944.929 1.5006 945.925 1.50533 946.918 1.51414L946.925 0.764167L946.931 0.0141965C945.934 0.00535387 944.934 0.000604212 943.93 1.19209e-07L943.929 0.75ZM951.87 0.842081L951.853 1.59189C952.878 1.61511 953.899 1.64269 954.915 1.67454L954.939 0.924912L954.962 0.175279C953.941 0.143285 952.916 0.115597 951.887 0.0922738L951.87 0.842081ZM960.03 1.12132L959.995 1.87053C961.005 1.91684 962.011 1.96738 963.013 2.02209L963.054 1.27321L963.094 0.524326C962.088 0.469376 961.078 0.418617 960.064 0.37211L960.03 1.12132ZM968.042 1.58192L967.99 2.33013C968.98 2.39858 969.965 2.47109 970.947 2.54762L971.005 1.79989L971.063 1.05216C970.077 0.975293 969.088 0.902457 968.094 0.833709L968.042 1.58192ZM976.061 2.23223L975.991 2.979C977.006 3.07354 978.017 3.17236 979.024 3.27541L979.101 2.52931L979.177 1.78321C978.166 1.67969 977.15 1.58042 976.13 1.48546L976.061 2.23223ZM984.112 3.08065L984.024 3.82551C985.017 3.94243 986.006 4.06346 986.991 4.18852L987.085 3.4445L987.18 2.70047C986.191 2.57484 985.197 2.45325 984.2 2.3358L984.112 3.08065ZM992.006 4.10756L991.9 4.85006C992.917 4.99498 993.929 5.1442 994.937 5.29763L995.05 4.55618L995.163 3.81472C994.15 3.66057 993.133 3.51066 992.112 3.36506L992.006 4.10756ZM1000.06 5.35999L999.937 6.09956C1000.93 6.26683 1001.92 6.43817 1002.9 6.61352L1003.03 5.87516L1003.16 5.13681C1002.18 4.96063 1001.18 4.78847 1000.19 4.62042L1000.06 5.35999ZM1007.92 6.78704L1007.78 7.52323C1008.77 7.71512 1009.75 7.91102 1010.72 8.11085L1010.87 7.37607L1011.03 6.64129C1010.04 6.4405 1009.06 6.24366 1008.07 6.05085L1007.92 6.78704ZM1015.87 8.4398L1015.7 9.17201C1016.69 9.39098 1017.67 9.61395 1018.65 9.84082L1018.82 9.11023L1018.99 8.37965C1018.01 8.15167 1017.02 7.92762 1016.03 7.70759L1015.87 8.4398ZM1023.68 10.2795L1023.5 11.0072C1024.46 11.2468 1025.41 11.4902 1026.37 11.7372L1026.55 11.0113L1026.74 10.2854C1025.79 10.0371 1024.83 9.79257 1023.86 9.55178L1023.68 10.2795ZM1031.49 12.3363L1031.29 13.0589C1032.26 13.3304 1033.24 13.6057 1034.2 13.8848L1034.41 13.1642L1034.62 12.4436C1033.65 12.1632 1032.67 11.8865 1031.69 11.6136L1031.49 12.3363ZM1039.21 14.5934L1038.99 15.3105C1039.94 15.6016 1040.89 15.8963 1041.82 16.1944L1042.05 15.4796L1042.28 14.7648C1041.34 14.4652 1040.39 14.169 1039.43 13.8764L1039.21 14.5934ZM1046.88 17.0605L1046.65 17.7713C1047.61 18.0955 1048.57 18.4232 1049.52 18.7544L1049.76 18.0461L1050.01 17.3378C1049.05 17.0049 1048.09 16.6755 1047.12 16.3497L1046.88 17.0605ZM1054.48 19.7344L1054.23 20.4384C1055.16 20.7808 1056.08 21.1263 1057 21.475L1057.27 20.7737L1057.54 20.0723C1056.61 19.7218 1055.68 19.3745 1054.74 19.0304L1054.48 19.7344ZM1062.01 22.6171L1061.73 23.3138C1062.68 23.69 1063.61 24.0695 1064.54 24.452L1064.83 23.7583L1065.11 23.0646C1064.18 22.6801 1063.24 22.2987 1062.29 21.9205L1062.01 22.6171ZM1069.44 25.7008L1069.15 26.3895C1070.06 26.7819 1070.96 27.177 1071.86 27.5749L1072.16 26.8893L1072.46 26.2037C1071.56 25.8038 1070.65 25.4065 1069.74 25.0122L1069.44 25.7008ZM1076.82 29.0035L1076.5 29.6836C1077.42 30.1106 1078.33 30.5402 1079.23 30.9724L1079.56 30.2956L1079.88 29.6189C1078.97 29.1845 1078.05 28.7526 1077.13 28.3234L1076.82 29.0035ZM1084.03 32.4825L1083.7 33.1535C1084.6 33.6041 1085.5 34.057 1086.38 34.5121L1086.73 33.8447L1087.07 33.1772C1086.18 32.7197 1085.28 32.2644 1084.37 31.8115L1084.03 32.4825ZM1091.24 36.2084L1090.89 36.8696C1091.77 37.3446 1092.65 37.8217 1093.53 38.3005L1093.89 37.6431L1094.25 36.9856C1093.37 36.5042 1092.49 36.0247 1091.59 35.5471L1091.24 36.2084ZM1098.22 40.0738L1097.85 40.7248C1098.75 41.2364 1099.63 41.7496 1100.51 42.2643L1100.89 41.6173L1101.27 40.9704C1100.39 40.453 1099.5 39.937 1098.6 39.4227L1098.22 40.0738ZM1105.22 44.2089L1104.83 44.8489C1105.68 45.3679 1106.52 45.8879 1107.35 46.4088L1107.75 45.7729L1108.15 45.137C1107.31 44.6133 1106.46 44.0905 1105.61 43.5688L1105.22 44.2089ZM1112.03 48.5036L1111.62 49.1322C1112.47 49.6874 1113.32 50.2432 1114.15 50.7993L1114.57 50.1751L1114.98 49.551C1114.14 48.992 1113.3 48.4332 1112.44 47.875L1112.03 48.5036ZM1118.67 52.9641L1118.25 53.5807C1119.09 54.1648 1119.92 54.7489 1120.75 55.3324L1121.18 54.7206L1121.61 54.1087C1120.79 53.522 1119.95 52.9348 1119.1 52.3475L1118.67 52.9641ZM1125.29 57.6893L1124.84 58.2931C1125.64 58.8838 1126.43 59.4735 1127.21 60.0619L1127.67 59.463L1128.12 58.8641C1127.33 58.2725 1126.54 57.6796 1125.73 57.0856L1125.29 57.6893ZM1131.7 62.5652L1131.24 63.1555C1132.04 63.7826 1132.83 64.4074 1133.6 65.0296L1134.07 64.4445L1134.54 63.8594C1133.76 63.2337 1132.97 62.6054 1132.16 61.9748L1131.7 62.5652ZM1137.93 67.5941L1137.45 68.1704C1138.25 68.836 1139.03 69.4978 1139.8 70.1552L1140.29 69.5846L1140.77 69.0139C1140 68.3528 1139.21 67.6873 1138.41 67.0178L1137.93 67.5941ZM1144.03 72.8416L1143.54 73.4028C1144.31 74.091 1145.07 74.7731 1145.82 75.4484L1146.32 74.8932L1146.82 74.3379C1146.08 73.6586 1145.31 72.9725 1144.53 72.2803L1144.03 72.8416ZM1150.01 78.3085L1149.49 78.8536C1150.23 79.5545 1150.96 80.2464 1151.66 80.9284L1152.18 80.3897L1152.7 79.851C1152 79.1648 1151.27 78.4687 1150.52 77.7635L1150.01 78.3085ZM1155.78 83.9468L1155.24 84.4743C1155.97 85.2056 1156.67 85.9223 1157.34 86.6234L1157.88 86.103L1158.42 85.5825C1157.74 84.8768 1157.04 84.1553 1156.31 83.4194L1155.78 83.9468ZM1161.31 89.7461L1160.76 90.254C1161.49 91.047 1162.19 91.8128 1162.84 92.5491L1163.4 92.0496L1163.96 91.5502C1163.3 90.8083 1162.6 90.0369 1161.87 89.2382L1161.31 89.7461ZM1166.7 95.8457L1166.13 96.3299C1166.81 97.1325 1167.43 97.879 1167.98 98.5643L1168.57 98.0906L1169.15 97.6169C1168.58 96.9247 1167.96 96.1713 1167.28 95.3616L1166.7 95.8457ZM1171.75 102.161L1171.15 102.609C1171.41 102.962 1171.61 103.232 1171.74 103.413C1171.8 103.503 1171.85 103.571 1171.88 103.617C1171.9 103.639 1171.91 103.656 1171.92 103.667C1171.92 103.672 1171.92 103.676 1171.93 103.679C1171.93 103.68 1171.93 103.681 1171.93 103.682C1171.93 103.682 1171.93 103.682 1171.93 103.682C1171.93 103.682 1171.93 103.682 1171.93 103.682C1171.93 103.682 1171.93 103.682 1171.93 103.682C1171.93 103.682 1171.93 103.682 1171.93 103.682C1171.93 103.682 1171.93 103.682 1172.54 103.255C1173.16 102.827 1173.16 102.827 1173.16 102.827C1173.16 102.827 1173.16 102.827 1173.16 102.827C1173.16 102.827 1173.16 102.827 1173.16 102.827C1173.16 102.827 1173.16 102.827 1173.16 102.827C1173.16 102.826 1173.16 102.826 1173.16 102.825C1173.16 102.825 1173.16 102.823 1173.16 102.822C1173.15 102.818 1173.15 102.813 1173.15 102.807C1173.14 102.794 1173.12 102.776 1173.11 102.752C1173.07 102.703 1173.02 102.632 1172.96 102.538C1172.82 102.351 1172.62 102.074 1172.35 101.713L1171.75 102.161Z" fill="var(--stroke-0, #FF500A)" style="fill:#FF500A;fill:color(display-p3 1.0000 0.3120 0.0400);fill-opacity:1;"/>
</svg>
