<svg fill="none" xmlns="http://www.w3.org/2000/svg" viewBox="0 0 14 17" height="16.9988" width="14"><g clip-path="url(#clip0_3000_6288)"><path d="M13.3997 5.7953C13.3011 5.8718 11.5603 6.8527 11.5603 9.0338C11.5603 11.5566 13.7754 12.4491 13.8417 12.4712C13.8315 12.5256 13.4898 13.6935 12.6738 14.8835C11.9462 15.9307 11.1863 16.9762 10.0303 16.9762C8.87425 16.9762 8.57675 16.3047 7.24225 16.3047C5.94175 16.3047 5.47935 16.9983 4.42195 16.9983C3.36455 16.9983 2.62675 16.0293 1.77845 14.8393C0.795853 13.4419 0.00195312 11.271 0.00195312 9.2106C0.00195312 5.9058 2.15075 4.1531 4.26555 4.1531C5.38925 4.1531 6.32595 4.8909 7.03145 4.8909C7.70295 4.8909 8.75015 4.1089 10.0286 4.1089C10.5131 4.1089 12.2539 4.1531 13.3997 5.7953ZM9.42165 2.7098C9.95035 2.0825 10.3244 1.2121 10.3244 0.3417C10.3244 0.221 10.3142 0.0986 10.2921 0C9.43185 0.0323 8.40845 0.5729 7.79135 1.2886C7.30685 1.8394 6.85465 2.7098 6.85465 3.5921C6.85465 3.7247 6.87675 3.8573 6.88695 3.8998C6.94135 3.91 7.02975 3.9219 7.11815 3.9219C7.88995 3.9219 8.86065 3.4051 9.42165 2.7098Z" fill="currentColor"></path></g><defs><clipPath id="clip0_3000_6288"><rect fill="currentColor" height="16.9988" width="14"></rect></clipPath></defs></svg>