<svg _ngcontent-ng-c1301439344="" width="1297" height="264" viewBox="0 0 1297 264" fill="none" xmlns="http://www.w3.org/2000/svg" class="footer-antigravity"><path _ngcontent-ng-c1301439344="" id="letter-A" fill="#121317" d="M182.353 199.875H149.223L131.151 149.496H51.2012L33.1309 199.875H0L73.9268 3.83301H108.152L182.353 199.875ZM82.9629 61.6055L61.332 121.568H121.021L99.3906 61.6055L91.998 39.1533H90.3555L82.9629 61.6055Z"></path><path _ngcontent-ng-c1301439344="" id="letter-N" fill="#121317" d="M268.954 55.8555C286.112 55.8556 298.98 60.9666 307.56 71.1885C316.139 81.2279 320.429 94.7353 320.429 111.711V199.876H291.132V115.544C291.132 104.227 288.302 96.0133 282.644 90.9023C276.985 85.6088 269.593 82.9619 260.466 82.9619C253.347 82.9619 247.141 84.9698 241.848 88.9854C236.554 92.8186 232.355 97.9296 229.252 104.318C226.331 110.707 224.871 117.552 224.871 124.854V199.876H195.301V60.2363H223.229V79.4023H224.871C228.887 72.6486 234.82 67.081 242.669 62.7002C250.7 58.137 259.462 55.8555 268.954 55.8555Z"></path><path _ngcontent-ng-c1301439344="" id="letter-T" fill="#121317" d="M385.177 60.2363H419.401V85.9736H385.177V153.055C385.177 160.356 386.637 165.742 389.558 169.21C392.661 172.678 397.316 174.412 403.521 174.412C406.442 174.412 409.18 174.047 411.735 173.316C414.291 172.404 417.12 171.035 420.223 169.21V197.959C416.755 199.237 413.195 200.241 409.545 200.971C406.077 201.701 402.335 202.065 398.319 202.065C385.177 202.065 374.772 198.233 367.105 190.566C359.622 182.9 355.88 172.495 355.88 159.353V85.9736H331.237V60.2363H355.88V20.8086H385.177V60.2363Z"></path><path _ngcontent-ng-c1301439344="" id="letter-I" fill="#121317" d="M466.406 199.876H436.835V60.2363H466.406V199.876Z"></path><path _ngcontent-ng-c1301439344="" id="dot-I1" fill="#121317" d="M451.621 0C457.279 0.000108058 462.025 1.91688 465.858 5.75C469.692 9.40069 471.608 14.0553 471.608 19.7139C471.608 25.1898 469.691 29.9355 465.858 33.9512C462.025 37.7843 457.279 39.7011 451.621 39.7012C446.145 39.7012 441.399 37.7844 437.383 33.9512C433.55 29.9355 431.633 25.1898 431.633 19.7139C431.633 14.0554 433.55 9.40069 437.383 5.75C441.399 1.91677 446.145 0 451.621 0Z"></path><path _ngcontent-ng-c1301439344="" id="letter-G" fill="#121317" d="M547.834 55.8555C557.873 55.8555 566.726 57.8633 574.393 61.8789C582.059 65.7121 588.083 71.006 592.464 77.7598H594.106V60.2363H622.309V192.482C622.309 207.633 619.296 220.502 613.272 231.089C607.431 241.676 599.309 249.708 588.904 255.184C578.5 260.66 566.453 263.397 552.763 263.397C540.533 263.397 529.945 261.39 521.001 257.374C512.239 253.541 505.121 248.521 499.645 242.314C494.169 236.291 490.244 230.085 487.871 223.696L515.252 212.196C518.172 219.498 522.827 225.431 529.216 229.994C535.787 234.74 543.636 237.112 552.763 237.112C565.722 237.112 575.853 233.279 583.154 225.613C590.456 217.947 594.106 207.085 594.106 193.03V179.614H592.464C588.083 186.003 582.059 191.205 574.393 195.221C566.726 199.236 557.873 201.244 547.834 201.244C535.969 201.244 525.017 198.233 514.978 192.209C505.121 186.185 497.181 177.789 491.157 167.02C485.316 156.067 482.396 143.289 482.396 128.687C482.396 113.901 485.316 101.124 491.157 90.3545C497.181 79.4025 505.121 70.9142 514.978 64.8906C525.017 58.867 535.969 55.8555 547.834 55.8555ZM553.036 82.6885C545.735 82.6885 538.89 84.4225 532.501 87.8906C526.295 91.3588 521.276 96.5609 517.442 103.497C513.609 110.251 511.692 118.647 511.692 128.687C511.692 138.543 513.609 146.941 517.442 153.877C521.276 160.631 526.295 165.742 532.501 169.21C538.89 172.678 545.735 174.412 553.036 174.412C560.338 174.412 567.092 172.678 573.298 169.21C579.687 165.559 584.706 160.356 588.356 153.603C592.19 146.666 594.106 138.361 594.106 128.687C594.106 118.465 592.19 109.977 588.356 103.224C584.706 96.4699 579.686 91.3588 573.298 87.8906C567.092 84.4225 560.338 82.6885 553.036 82.6885Z"></path><path _ngcontent-ng-c1301439344="" id="letter-R" fill="#121317" d="M712.772 56.1289C716.606 56.1289 719.8 56.4026 722.355 56.9502C725.094 57.3153 727.558 57.9545 729.748 58.8672V89.5332C726.28 88.0729 722.72 86.8863 719.069 85.9736C715.601 85.0611 711.951 84.6045 708.118 84.6045C701.182 84.6045 694.975 86.5213 689.499 90.3545C684.206 94.0052 680.007 98.9335 676.904 105.14C673.801 111.346 672.25 118.282 672.25 125.948V199.875H642.679V60.2363H670.606V80.7715H672.25C674.44 76.0256 677.543 71.8265 681.559 68.1758C685.757 64.5251 690.503 61.6045 695.797 59.4141C701.273 57.2237 706.931 56.1289 712.772 56.1289Z"></path><path _ngcontent-ng-c1301439344="" id="letter-A2" fill="#121317" d="M792.689 55.8555C812.768 55.8555 828.284 60.8756 839.236 70.915C850.188 80.7718 855.664 94.6441 855.664 112.532V199.876H827.188V182.626H825.546C822.99 186.277 819.613 189.745 815.415 193.03C811.399 196.316 806.654 198.963 801.178 200.971C795.702 203.161 789.587 204.257 782.833 204.257C772.611 204.257 763.666 202.248 756 198.232C748.334 194.217 742.219 188.741 737.655 181.805C733.274 174.686 731.084 166.563 731.084 157.437C731.084 147.397 733.64 138.909 738.751 131.973C744.044 125.036 750.98 119.742 759.56 116.092C768.321 112.441 777.996 110.616 788.583 110.616C794.607 110.616 800.082 111.073 805.011 111.985C809.939 112.715 814.320 113.627 818.153 114.723C821.986 115.818 824.998 117.005 827.188 118.282V110.89C827.188 101.763 823.903 94.4614 817.332 88.9854C810.761 83.5093 802.273 80.7715 791.868 80.7715C784.749 80.7715 777.996 82.4147 771.607 85.7002C765.219 88.8033 760.016 93.0924 756 98.5684L736.013 82.9619C740.028 77.3033 744.866 72.466 750.524 68.4502C756.365 64.4345 762.845 61.331 769.964 59.1406C777.083 56.9502 784.658 55.8555 792.689 55.8555ZM794.059 132.794C782.194 132.794 773.706 135.167 768.595 139.913C763.484 144.659 760.929 150.591 760.929 157.71C760.929 164.281 763.302 169.666 768.048 173.864C772.976 178.062 779.639 180.162 788.035 180.162C795.702 180.162 802.456 178.336 808.297 174.686C814.138 171.035 818.701 166.289 821.986 160.448C825.454 154.425 827.188 147.944 827.188 141.008C822.990 138.635 818.062 136.718 812.403 135.258C806.745 133.615 800.630 132.794 794.059 132.794Z"></path><path _ngcontent-ng-c1301439344="" id="letter-V" fill="#121317" d="M926.642 161.816H928.011L967.986 60.2354H1000.29L941.975 199.875H912.404L854.632 60.2354H887.488L926.642 161.816Z"></path><path _ngcontent-ng-c1301439344="" id="letter-I2" fill="#121317" d="M1039.73 199.876H1010.16V60.2363H1039.73V199.876Z"></path><path _ngcontent-ng-c1301439344="" id="dot-I2" fill="#121317" d="M1024.95 0C1030.61 0 1035.35 1.91677 1039.19 5.75C1043.02 9.40066 1044.93 14.0555 1044.93 19.7139C1044.93 25.1897 1043.02 29.9355 1039.19 33.9512C1035.35 37.7844 1030.61 39.7012 1024.95 39.7012C1019.47 39.7012 1014.73 37.7844 1010.71 33.9512C1006.88 29.9354 1004.96 25.1899 1004.96 19.7139C1004.96 14.0553 1006.88 9.40071 1010.71 5.75C1014.73 1.91685 1019.47 9.3676e-06 1024.95 0Z"></path><path _ngcontent-ng-c1301439344="" id="letter-T2" fill="#121317" d="M1109.66 60.2363H1143.89V85.9736H1109.66V153.055C1109.66 160.356 1111.12 165.742 1114.04 169.21C1117.15 172.678 1121.8 174.412 1128.01 174.412C1130.93 174.412 1133.67 174.047 1136.22 173.316C1138.78 172.404 1141.61 171.035 1144.71 169.21V197.959C1141.24 199.237 1137.68 200.241 1134.03 200.971C1130.56 201.701 1126.82 202.065 1122.8 202.065C1109.66 202.065 1099.26 198.233 1091.59 190.566C1084.11 182.9 1080.37 172.495 1080.37 159.353V85.9736H1055.72V60.2363H1080.37V20.8086H1109.66V60.2363Z" data-svg-origin="1055.719970703125 20.8085994720459" transform="matrix(1,0,0,1,0,0)" style=""></path><path _ngcontent-ng-c1301439344="" id="letter-Y" fill="#121317" d="M1223.75 155.519H1225.12L1263.72 60.2354H1296.3L1224.02 226.707C1222.74 229.81 1221.28 233.096 1219.64 236.564C1218.18 240.032 1216.81 243.135 1215.53 245.873C1214.44 248.794 1213.62 250.893 1213.07 252.171C1212.52 253.449 1211.88 254.726 1211.15 256.004C1210.6 257.464 1210.24 258.468 1210.06 259.016H1178.57C1179.48 257.008 1180.76 254.179 1182.4 250.528C1184.23 246.878 1185.96 243.227 1187.61 239.576C1188.7 237.203 1189.8 234.647 1190.89 231.909C1192.17 229.171 1193.45 226.342 1194.72 223.422C1196.18 220.501 1197.55 217.672 1198.83 214.934L1209.24 192.208L1150.92 60.2354H1183.77L1223.75 155.519Z" data-svg-origin="1150.9200439453125 60.23540115356445" transform="matrix(1,0,0,1,0,0)" style=""></path></svg>