<svg fill="none" xmlns="http://www.w3.org/2000/svg" viewBox="0 0 75 24" height="25" width="75"><path d="M52.0273 6.62988C53.4638 6.62988 54.6046 7.26571 55.1973 7.96973H55.2891V6.99219H57.7979V17.7559C57.7978 22.1827 55.175 23.9999 52.0732 24C49.1544 24 47.3984 22.047 46.7363 20.458L49.0391 19.5039C49.4499 20.4799 50.454 21.6377 52.0732 21.6377C54.0568 21.6376 55.2889 20.4128 55.2891 18.1191V17.2559H55.1973C54.6046 17.9829 53.4638 18.6182 52.0273 18.6182C49.017 18.618 46.2578 16.0074 46.2578 12.6465C46.2578 9.26356 49.017 6.63009 52.0273 6.62988ZM25.5879 6.63086C28.8576 6.63086 31.5225 9.15091 31.5225 12.625C31.5222 16.0758 28.8574 18.6191 25.5879 18.6191C22.3194 18.6191 19.6545 16.0758 19.6543 12.625C19.6543 9.15092 22.3192 6.63088 25.5879 6.63086ZM38.8906 6.63086C42.1603 6.63086 44.8252 9.15091 44.8252 12.625C44.825 16.0758 42.1601 18.6191 38.8906 18.6191C35.6211 18.6191 32.9573 16.0758 32.957 12.625C32.957 9.15092 35.621 6.63088 38.8906 6.63086ZM69.5723 6.62988C72.6961 6.62988 74.2252 9.10425 74.7266 10.4443L75 11.126L66.9492 14.4404C67.566 15.6435 68.5231 16.2568 69.8691 16.2568C71.214 16.2568 72.149 15.5985 72.833 14.5996L74.8867 15.9619C74.2257 16.9389 72.6283 18.6191 69.8691 18.6191C66.4489 18.6191 63.9778 15.9849 63.9775 12.625C63.9775 9.06005 66.4705 6.63008 69.5723 6.62988ZM9.4873 0C12.3391 0 14.3686 1.11239 15.8975 2.56543L14.0957 4.35938C13.0008 3.33735 11.5174 2.54297 9.4873 2.54297C5.72455 2.54311 2.78223 5.56356 2.78223 9.30957C2.7824 13.0554 5.72466 16.0751 9.4873 16.0752C11.9283 16.0752 13.319 15.0989 14.209 14.2129C14.938 13.487 15.4178 12.4423 15.5996 11.0127H9.4873V8.46875H18.0859C18.1773 8.92276 18.2236 9.46858 18.2236 10.0586C18.2236 11.9666 17.6982 14.3279 16.0107 16.0078C14.3684 17.7107 12.2696 18.6182 9.4873 18.6182C4.33341 18.618 0.000188594 14.4415 0 9.30957C0 4.17853 4.33329 0.000143406 9.4873 0ZM62.4326 18.2549H59.7871V0.635742H62.4326V18.2549ZM25.5879 8.99121C23.7969 8.99123 22.252 10.468 22.252 12.625C22.2522 14.7588 23.797 16.2578 25.5879 16.2578C27.3798 16.2578 28.9246 14.7588 28.9248 12.625C28.9248 10.4679 27.3799 8.99121 25.5879 8.99121ZM38.8906 8.99121C37.0996 8.99123 35.5537 10.468 35.5537 12.625C35.5539 14.7588 37.0997 16.2578 38.8906 16.2578C40.6825 16.2578 42.2273 14.7588 42.2275 12.625C42.2275 10.4679 40.6827 8.99121 38.8906 8.99121ZM52.2559 8.99023C50.4317 8.99023 48.9024 10.5355 48.9023 12.6465C48.9023 14.7355 50.4317 16.2568 52.2559 16.2568C54.0569 16.2568 55.4707 14.7355 55.4707 12.6465C55.4707 10.5355 54.0569 8.99031 52.2559 8.99023ZM69.6641 8.94531C68.3181 8.94531 66.4484 10.1264 66.5156 12.4424L71.8994 10.2178C71.6021 9.46876 70.7128 8.94532 69.6641 8.94531Z" fill="currentColor"></path></svg>